<?xml version="1.0" encoding="utf-8"?>
<!-- Generator: Adobe Illustrator 21.1.0, SVG Export Plug-In . SVG Version: 6.00 Build 0)  -->
<svg version="1.1" id="Layer_1" xmlns="http://www.w3.org/2000/svg" xmlns:xlink="http://www.w3.org/1999/xlink" x="0px" y="0px"
	 viewBox="0 0 62.9 45.8" style="enable-background:new 0 0 62.9 45.8;" xml:space="preserve">
<style type="text/css">
	.st0{fill:#FFFFFF;}
</style>
<g>
	<path class="st0" d="M4,22.9c10.4,0.4,10.5,0.3-4,8.5c14.6-8,14.8-8.1,7.4-3.3c7.7-4.8,7.9-4.6,4.7,5.3c3.9-9.3,4.4-8.9,19.4,12.4
		C16.8,24.1,16.5,23.6,19,26.5c-2.9-3.6-3.2-3.6-3.9-3.6c0.7,0,1,0,3.9-3.6c-2.5,2.9-2.2,2.3,12.4-19.4C16.4,21.3,15.9,21.7,12,12.4
		c3.2,9.9,3.1,10.1-4.7,5.3c7.4,4.8,7.2,4.7-7.4-3.3C14.5,22.6,14.4,22.5,4,22.9"/>
	<path class="st0" d="M31,24.4c-0.1,0.3-0.3,0.5-0.5,0.7c-0.2,0.2-0.4,0.3-0.7,0.4c-0.3,0.1-0.6,0.2-0.9,0.2c-0.4,0-0.7-0.1-1-0.2
		c-0.3-0.1-0.5-0.3-0.7-0.6c-0.2-0.2-0.4-0.5-0.5-0.9c-0.1-0.3-0.2-0.7-0.2-1c0-0.3,0-0.6,0.1-0.9c0.1-0.3,0.2-0.6,0.4-0.9
		c0.2-0.3,0.4-0.5,0.8-0.7c0.3-0.2,0.7-0.3,1.1-0.3c0.3,0,0.6,0,0.8,0.1c0.2,0.1,0.5,0.2,0.6,0.4c0.2,0.2,0.3,0.3,0.4,0.5
		c0.1,0.2,0.2,0.4,0.2,0.6h0.2c0-0.2-0.1-0.4-0.1-0.6c-0.1-0.2-0.2-0.4-0.4-0.6c-0.2-0.2-0.4-0.3-0.7-0.5c-0.3-0.1-0.6-0.2-1-0.2
		c-0.5,0-0.9,0.1-1.2,0.3c-0.3,0.2-0.6,0.4-0.8,0.7c-0.2,0.3-0.4,0.6-0.5,0.9c-0.1,0.3-0.1,0.7-0.1,1c0,0.4,0.1,0.8,0.2,1.1
		c0.1,0.3,0.3,0.6,0.5,0.9c0.2,0.2,0.5,0.4,0.8,0.6c0.3,0.1,0.6,0.2,1,0.2c0.3,0,0.7-0.1,0.9-0.2c0.3-0.1,0.5-0.3,0.7-0.5
		c0.2-0.2,0.4-0.4,0.5-0.7c0.1-0.3,0.2-0.6,0.3-0.9h-0.2C31.2,23.8,31.1,24.1,31,24.4"/>
	<path class="st0" d="M42.5,20.2l-2.2,5.3h-3.5v-2.6h3.3v-0.2h-3.3v-2.4h3.5v-0.2h-3.7v5.5h3.6h0.1h0.1l0.7-1.8H44l0.7,1.8h0.2
		l-2.2-5.5H42.5z M41.3,23.7l1.4-3.4h0l1.3,3.4H41.3z"/>
	<polygon class="st0" points="44.1,20.3 46.1,20.3 46.1,25.7 46.2,25.7 46.2,20.3 48.2,20.3 48.2,20.2 44.1,20.2 	"/>
	<polygon class="st0" points="48.7,22.9 52,22.9 52,22.7 48.7,22.7 48.7,20.3 52.2,20.3 52.2,20.2 48.5,20.2 48.5,25.7 52.2,25.7 
		52.2,25.5 48.7,25.5 	"/>
	<polygon class="st0" points="56.5,22.5 53.6,22.5 53.6,20.2 52.8,20.2 52.8,25.7 53.6,25.7 53.6,23.1 56.5,23.1 56.5,25.7 
		57.2,25.7 57.2,20.2 56.5,20.2 	"/>
	<polygon class="st0" points="60.5,22.4 62.9,20.2 61.9,20.2 59.1,22.9 59.1,20.2 58.4,20.2 58.4,25.7 59.1,25.7 59.1,23.7 60,22.9 
		62,25.7 62.9,25.7 	"/>
	<path class="st0" d="M35.9,21.6c0-0.8-0.7-1.5-1.5-1.5h-0.4H32v0.2v5.4h0.2v-2.6l2.3,0l1.4,2.6l0.2,0l-1.4-2.6
		C35.4,23,35.9,22.4,35.9,21.6 M32.1,22.9v-2.7h2.3c0.7,0,1.3,0.6,1.3,1.3c0,0.7-0.6,1.3-1.3,1.3h-1.2H32.1z"/>
</g>
</svg>
