<?xml version="1.0" encoding="utf-8"?>
<!-- Generator: Adobe Illustrator 21.1.0, SVG Export Plug-In . SVG Version: 6.00 Build 0)  -->
<svg version="1.1" id="Layer_1" xmlns="http://www.w3.org/2000/svg" xmlns:xlink="http://www.w3.org/1999/xlink" x="0px" y="0px"
	 viewBox="0 0 685.2 274.4" style="enable-background:new 0 0 685.2 274.4;" xml:space="preserve">
<style type="text/css">
	.st0{fill:#CF0A2C;}
</style>
<g>
	<g>
		<path class="st0" d="M47.2,239.7c-3.4,1.1-6.8,1.5-9.9,1.9v2.6h11.2v2.2H37.3v5.5h7.1v13.3H42v-1.6H30.1v1.6h-2.3v-12.4
			c-0.9,0.5-2.3,1.1-3.8,1.6l-1.7-2c4.1-1.3,7.8-3.2,10.1-6.1H24V244h11v-2.3c-2.8,0.2-5.8,0.5-9,0.5l-1.6-2.2
			c7.4,0,15.6-0.6,21.1-2.2L47.2,239.7z M35,246.9c-1.2,1.9-3.7,4-5.5,5L35,252V246.9z M42.1,254.2H30.2v2.3h11.9V254.2z
			 M42.1,261.4v-2.6H30.2v2.6H42.1z M39.3,246.5c3.8,1,7.2,2.9,10.4,5.7l-1.6,1.8c-2.6-2.6-6.5-4.7-10.5-5.7L39.3,246.5z"/>
		<path class="st0" d="M70,250.9c-1.1-1.8-2.7-3.2-4.7-3.9l1.4-1.7c1.7,0.5,3.9,2,5.1,4.1L70,250.9z M72.1,253.9
			c-0.6,4.1-2,7.9-4.4,11.3l-2.2-1.2c2.4-2.6,4-8.6,4.6-11l2.1,0.7c2.4-1.1,4.2-2.9,5.1-4.7h-4.8v-2.3h4.7v-3.2h-3.5v-2.3h3.5v-3.5
			h2.4v3.5h5.1v-3.4h2.4v3.5h3.5v2.3h-3.5v3.2h4.7v2.3h-4.7c1.3,2.1,4.3,4.5,6.3,5l-1.6,1.9c-1.6-0.7-2.9-1.7-3.6-2.4v5.5h-9.4v1.9
			c0,0.5,0.1,1.1,0.8,1.1h8.1c1.2,0,1.1-1.2,1.4-2.9h2.3c-0.1,2.4-0.3,5.2-3.1,5.2h-9.4c-1.9,0-2.5-1.4-2.5-2.5v-8
			c-0.7,0.5-1.6,1.3-2.9,2L72.1,253.9z M71.3,244.1c-1.7-2.5-3.4-3.2-5-3.7l1.8-1.6c1.9,0.7,3.7,1.8,4.9,3.7L71.3,244.1z
			 M79.9,248.9c-0.3,1.1-1.1,2-1.6,2.7h8.2c-0.6-0.7-1.3-1.7-1.9-2.7H79.9z M78.8,256.6h7v-2.8h-7.1L78.8,256.6L78.8,256.6z
			 M79.7,243.4v3.2h5.1v-3.3h-5.1V243.4z"/>
		<path class="st0" d="M110.2,263.8v-2.3h11.4v-2.8h-9.1v-2.2h9.1v-2.4h2.4l0.1,2.4h9v2.3h-9v2.9h11.4v2.2L110.2,263.8z
			 M132.6,247.3v-4.9h-19.7v5.1h-2.4v-7.4h11.2c-0.3-0.4-1.2-1-2.4-1.7l2.3-1.3c1.3,0.9,2.2,2,2.8,3H135v7.2L132.6,247.3
			L132.6,247.3z M131.5,254.5c-0.3-0.5-1.1-1.2-1.6-1.8c-5.5,0.6-12.2,1.1-15.7,1.7c-0.5-0.8-1-1.4-1.5-2.3c2.8-1.4,5.2-3.6,6.7-5.5
			h-5.1v-2.3h16.9v2.2h-8.6c-1.5,2.1-3.5,4-5.1,5l10.1-0.8l-1.9-1.2l2-1.4c1.9,1,4.5,3.3,5.7,5.1L131.5,254.5z"/>
		<path class="st0" d="M169.3,262.2c1.5,0.1,2.6,0.3,3.8,0.2c0.4,0,0.6-0.6,0.6-1.1v-14.5h-7.3c1.1,5.6,3.7,8.8,7,11.5l-1.6,2
			c-3.1-2.5-5.6-5.8-6.8-9.4c-1.6,3.5-4.1,7.3-8.1,9.4l-1.5-2c4.1-2.5,7.2-6.5,8.3-11.4h-8.5v18.6h-2.5v-21h10.9
			c-0.1-1-0.2-2.2-0.1-3.3H158v-2.3h8.1c-0.1,2.3-0.1,4,0.1,5.5h10v17.2c0,0.8-0.2,1.8-0.8,2.4c-0.7,0.7-3.9,0.6-5.1,0.7
			L169.3,262.2z"/>
		<path class="st0" d="M197.7,237.4c1,0.9,2.9,2.4,3.7,4.2l-0.7,0.3l4.5,0.1v2.3h-11.7v-2.2h5.4c-0.2-0.8-2.1-2.7-3.1-3.4
			L197.7,237.4z M204,248.2h-9.3V246h9.4L204,248.2z M204,250.1v2.2h-9.3v-2.2H204z M195.2,265.1v-10.5h8.5v8.2h-6.2v2.2
			L195.2,265.1L195.2,265.1z M201.4,256.8h-3.8v3.8h3.8V256.8z M202.9,263.3c2.7-0.7,5.3-2.2,7.3-3.8c-1.7-1.8-2.8-4.2-3.8-6.4h-1.2
			V251l-1.7-2c3.4-1,3.8-2.2,3.5-9.7h9.5v6.8c0,0.4,0.2,0.6,0.7,0.6h3.1v2.1h-4c-1.3,0-2.1-1.1-2.1-2.2v-5.1h-5
			c-0.2,3.6,0.7,7.1-3.7,9.3l12.7,0.1c-0.6,3.6-2.3,6.5-4.7,8.7c2.1,1.7,4.7,2.8,7.9,3.7l-2.1,1.9c-2.6-1-5.5-2.4-7.5-4.1
			c-2.4,1.8-4.8,3.3-7.5,4.2L202.9,263.3z M208.9,253c0.7,1.6,1.5,3.3,3,4.9c0.9-1,2.4-2.5,3.3-4.9H208.9z"/>
		<path class="st0" d="M242.4,241.9c-0.6-1.4-1.4-2.3-2.8-3.5l1.9-1.3c1.5,1.2,2.8,2.7,3.4,4.5l-0.5,0.3l5.2,0.1v2.3h-12.8V242h5.6
			L242.4,241.9L242.4,241.9z M248.4,248.1h-10.1v-2.3h10.1V248.1z M238.4,249.9h10v2.3h-10V249.9z M245.4,264.7v-1.5h-4v1.5h-2.3
			v-10.2h8.7v10.2H245.4z M245.4,256.7h-4v4.2h4V256.7z M255,248.9h-6.4v-2.2h6.5v-9.2h2.4v9.2h7.2v2.2h-7.3v16.4H255V248.9z"/>
		<path class="st0" d="M279.8,246.5v-2.3h3.2v-6.9h2.5v6.8h3.4v2.2h-3.4v18.9H283v-18.9h-3.2V246.5z M292.7,251.5h4.2
			c-0.3,3.7-0.6,7.3-1.5,10.5c-0.2,0.9-1.1,1.8-2.1,2c-0.9,0.1-1.7-0.1-2.6-0.2l-0.5-1.6c-0.6,0.9-1.8,2.2-2.8,3l-1.8-1.5
			c2.2-2,3.5-3.7,4.1-6.5c0.2-1.2,0.5-2.4,0.6-3.5h-3.1v-2.2h3.2c0-0.5,0.1-1.2,0.1-2.1c-0.3,0.2-1,0.3-1.6,0.4l-1.3-2.2
			c3.4-0.5,6.8-1.9,7.7-4.7h-4.9v-2.3h5.3l0.2-3.2h2.4c0,1.3-0.1,2.4-0.2,3.2h6.7c-0.2,2.9-0.7,4.7-1.3,6.4
			c-0.3,0.8-1.1,1.4-1.9,1.6c-1.3,0.2-2.5-0.1-3.8-0.3c-0.1-0.9-0.2-1.5-0.4-2.5c1.3,0.2,2.3,0.6,3.4,0.7c0.2,0,0.3-0.1,0.5-0.2
			c0.5-1,0.8-2.2,1.1-3.3h-4.6c-0.4,2.2-2.9,5.3-6.8,6.3l1.9,0.1L292.7,251.5z M292.8,261.9c0.2-0.1,0.3-0.2,0.4-0.4
			c0.8-2.6,1.1-5.3,1.3-7.7h-2c-0.4,3.9-0.7,5.1-2,7.8L292.8,261.9z M302.2,249.1v2.4h4.3c0,2-0.2,3.7-0.3,5.3
			c-0.2,1.8-0.5,3.5-0.9,5.2c-0.2,1-1,2.2-2.1,2.4c-0.6,0.1-1.5,0-2.5-0.1l-0.9-2.4c1.3,0.1,2.1,0.5,2.9,0.3c0.2-0.1,0.4-0.5,0.5-1
			c0.7-2.5,0.9-5.1,1-7.6H302c-0.3,5.4-1.8,8.7-5.5,11.5l-1.8-1.6c2.8-2.2,4.6-4.8,4.8-8c0.1-0.7,0.2-1.4,0.2-1.9h-2.4v-2.2h2.5
			l0.2-2.4L302.2,249.1z"/>
		<path class="st0" d="M337.3,238.1c3.9,3,8,6.2,13.3,7.2l-1.5,2c-0.9-0.2-1.7-0.5-2.1-0.6v6.3h-22.4v-6.6c-0.4,0.2-1.1,0.5-2,0.8
			c-0.5-0.7-0.8-1.3-1.3-2c5.3-2.1,10.3-4.4,14.4-8.8l2.1,1.2L337.3,238.1z M340.9,244.5h-10.1v-1.3c-1.9,1.2-3.8,2.1-4.7,2.5
			l18.8,0.1c-0.7-0.3-2.6-1.4-3.9-2.2L340.9,244.5L340.9,244.5z M326.4,265.1v-10.9h18.8v10.9h-2.4v-1.5h-14v1.5H326.4z M327,248
			v2.8h3.2c-0.3-0.4-1.2-1.1-2.2-2c0.6-0.3,1.2-0.7,1.6-0.8H327z M328.8,257.7h14v-1.3h-14V257.7z M342.9,259.9h-14v1.5h14V259.9z
			 M330.1,248c1.2,1,2,1.9,2.7,2.8h1.9V248H330.1z M339.2,242.3c-0.8-0.7-2.4-1.9-3.2-2.7c-1.4,1.1-2.4,1.9-3.5,2.7H339.2z M337,248
			v2.9h2c0.8-0.8,1.4-1.6,2.1-2.9H337z M343.1,248.9c-0.6,1-1.1,2-1.1,2h2.7V248h-3.1L343.1,248.9z"/>
	</g>
	<g>
		<g>
			<path class="st0" d="M37.3,208v-9.1h2.8v22.6h-2.8v-10.9H26.5v10.9h-2.8v-22.6h2.8v9.1H37.3z"/>
			<path class="st0" d="M66.6,210.2c0,6.7-5.3,11.8-11.9,11.8c-6.5,0-11.9-5.1-11.9-11.8c0-6.5,5.4-11.8,11.9-11.8
				S66.6,203.8,66.6,210.2z M63.7,210.2c0-5-3.7-9.1-9-9.1s-9,4.2-9,9.1c0,5.2,4.1,9.2,9,9.2S63.7,215.4,63.7,210.2z"/>
			<path class="st0" d="M69.4,197.8l17,17.8v-16.7h2.8v23.6l-17-17.8v16.9h-2.8V197.8z"/>
			<path class="st0" d="M114.1,210.1v0.9c0,6.2-4.4,11-10.7,11c-6.3,0-11.4-5.5-11.4-11.7c0-6.5,5.2-11.9,11.7-11.9
				c3.5,0,7,1.6,9.2,4.4l-2,1.9c-1.6-2.2-4.4-3.7-7.1-3.7c-5.1,0-9,4.1-9,9.2c0,4.7,3.9,9.2,8.8,9.2c3.5,0,7.3-3,7.4-6.7h-5.8v-2.6
				L114.1,210.1L114.1,210.1z"/>
			<path class="st0" d="M138.9,198.9h3.7l-10.2,10.2l10.4,12.5H139l-8.5-10.5l-1.1,1.1v9.5h-2.8v-22.6h2.8v9.8L138.9,198.9z"/>
			<path class="st0" d="M165.2,210.2c0,6.7-5.3,11.8-11.9,11.8c-6.5,0-11.9-5.1-11.9-11.8c0-6.5,5.4-11.8,11.9-11.8
				S165.2,203.8,165.2,210.2z M162.4,210.2c0-5-3.7-9.1-9-9.1s-9,4.2-9,9.1c0,5.2,4.1,9.2,9,9.2
				C158.2,219.4,162.4,215.4,162.4,210.2z"/>
			<path class="st0" d="M168,197.8l17,17.8v-16.7h2.8v23.6l-17-17.8v16.9H168V197.8z"/>
			<path class="st0" d="M212.7,210.1v0.9c0,6.2-4.4,11-10.7,11s-11.4-5.5-11.4-11.7c0-6.5,5.2-11.9,11.7-11.9c3.5,0,7,1.6,9.2,4.4
				l-2,1.9c-1.6-2.2-4.4-3.7-7.1-3.7c-5.1,0-9,4.1-9,9.2c0,4.7,3.9,9.2,8.8,9.2c3.5,0,7.3-3,7.4-6.7h-5.8v-2.6L212.7,210.1
				L212.7,210.1z"/>
			<path class="st0" d="M227.8,221.5H225v-22.6h2.8V221.5z"/>
			<path class="st0" d="M232,197.8l17,17.8v-16.7h2.8v23.6l-17-17.8v16.9H232V197.8z"/>
			<path class="st0" d="M261.9,221.5H259v-20h-5.4v-2.6h13.6v2.6h-5.4L261.9,221.5L261.9,221.5z"/>
			<path class="st0" d="M269.2,198.9h12.2v2.6h-9.3v6.3h9.1v2.6h-9.1v8.5h9.3v2.6h-12.2V198.9z"/>
			<path class="st0" d="M298.6,221.5h-3.4l-6.7-9.6h-1.2v9.6h-2.8v-22.6h3.4c2,0,4.2,0,6,1c1.9,1.1,3,3.2,3,5.4
				c0,3.2-2.2,5.9-5.4,6.3L298.6,221.5z M287.4,209.6h0.9c2.9,0,6-0.5,6-4.1c0-3.5-3.4-4-6.1-4h-0.8V209.6z"/>
			<path class="st0" d="M303.4,221.5h-2.8v-22.6h2.8V221.5z"/>
			<path class="st0" d="M330,210.2c0,6.7-5.3,11.8-11.8,11.8s-11.9-5.1-11.9-11.8c0-6.5,5.4-11.8,11.9-11.8
				C324.6,198.4,330,203.8,330,210.2z M327.2,210.2c0-5-3.7-9.1-9-9.1s-9,4.2-9,9.1c0,5.2,4.1,9.2,9,9.2
				C323,219.4,327.2,215.4,327.2,210.2z"/>
			<path class="st0" d="M347,221.5h-3.4l-6.7-9.6h-1.2v9.6h-2.8v-22.6h3.4c2,0,4.2,0,6,1c1.9,1.1,3,3.2,3,5.4c0,3.2-2.2,5.9-5.4,6.3
				L347,221.5z M335.7,209.6h0.9c2.9,0,6-0.5,6-4.1c0-3.5-3.4-4-6.1-4h-0.8V209.6z"/>
			<path class="st0" d="M358.6,198.9h4.7c6.9,0,12.7,3.7,12.7,11.2c0,7.7-5.6,11.4-12.8,11.4h-4.6L358.6,198.9L358.6,198.9z
				 M361.4,219h1c5.8,0,10.7-2.2,10.7-8.7c0-6.6-5-8.7-10.7-8.7h-1V219z"/>
			<path class="st0" d="M379,198.9h12.2v2.6h-9.3v6.3h9.1v2.6h-9.1v8.5h9.3v2.6H379V198.9z"/>
			<path class="st0" d="M403.9,203.2c-0.8-1.4-1.9-2.1-3.6-2.1c-1.8,0-3.8,1.2-3.8,3.2c0,1.8,1.7,2.7,3.2,3.2l1.6,0.6
				c3.2,1.3,5.6,3,5.6,6.8c0,4.1-3.2,7-7.2,7c-3.7,0-6.5-2.7-7-6.3l2.8-0.6c0,2.5,2,4.3,4.4,4.3s4.2-2,4.2-4.4s-1.9-3.5-3.9-4.3
				l-1.6-0.7c-2.6-1.1-4.9-2.6-4.9-5.7c0-3.7,3.2-5.9,6.7-5.9c2.5,0,4.6,1.2,5.8,3.4L403.9,203.2z"/>
			<path class="st0" d="M412.6,221.5h-2.8v-22.6h2.8V221.5z"/>
			<path class="st0" d="M437.7,210.1v0.9c0,6.2-4.4,11-10.7,11c-6.3,0-11.4-5.5-11.4-11.7c0-6.5,5.2-11.9,11.7-11.9
				c3.5,0,7,1.6,9.2,4.4l-2,1.9c-1.6-2.2-4.4-3.7-7.1-3.7c-5.1,0-9,4.1-9,9.2c0,4.7,3.9,9.2,8.8,9.2c3.5,0,7.3-3,7.4-6.7h-5.8v-2.6
				L437.7,210.1L437.7,210.1z"/>
			<path class="st0" d="M440.4,197.8l17,17.8v-16.7h2.8v23.6l-17-17.8v16.9h-2.8V197.8z"/>
			<path class="st0" d="M477,215.9l-2.6,5.7h-3l10.8-23.6l10.8,23.6h-3l-2.6-5.7H477z M482.2,204.1l-4,9.1h8L482.2,204.1z"/>
			<path class="st0" d="M504.5,203.2c-0.8-1.4-1.9-2.1-3.6-2.1c-1.8,0-3.8,1.2-3.8,3.2c0,1.8,1.7,2.7,3.2,3.2l1.6,0.6
				c3.2,1.3,5.6,3,5.6,6.8c0,4.1-3.2,7-7.2,7c-3.7,0-6.5-2.7-7-6.3l2.9-0.6c0,2.5,2,4.3,4.4,4.3s4.2-2,4.2-4.4s-2-3.5-3.9-4.3
				l-1.6-0.7c-2.6-1.1-4.9-2.6-4.9-5.7c0-3.7,3.2-5.9,6.7-5.9c2.5,0,4.6,1.2,5.8,3.4L504.5,203.2z"/>
			<path class="st0" d="M520.6,203.2c-0.8-1.4-1.9-2.1-3.6-2.1c-1.8,0-3.8,1.2-3.8,3.2c0,1.8,1.7,2.7,3.2,3.2l1.6,0.6
				c3.2,1.3,5.6,3,5.6,6.8c0,4.1-3.2,7-7.2,7c-3.7,0-6.5-2.7-7-6.3l2.8-0.6c0,2.5,2,4.3,4.4,4.3s4.2-2,4.2-4.4s-1.9-3.5-3.9-4.3
				l-1.6-0.7c-2.6-1.1-4.9-2.6-4.9-5.7c0-3.7,3.2-5.9,6.7-5.9c2.5,0,4.6,1.2,5.8,3.4L520.6,203.2z"/>
			<path class="st0" d="M548.7,210.2c0,6.7-5.3,11.8-11.9,11.8c-6.5,0-11.8-5.1-11.8-11.8c0-6.5,5.4-11.8,11.8-11.8
				C543.3,198.4,548.7,203.8,548.7,210.2z M545.9,210.2c0-5-3.7-9.1-9-9.1s-9,4.2-9,9.1c0,5.2,4.1,9.2,9,9.2
				C541.7,219.4,545.9,215.4,545.9,210.2z"/>
			<path class="st0" d="M568,203.2c-1.6-1.4-3.8-2.2-6-2.2c-5.1,0-8.9,4.2-8.9,9.2s3.8,9.2,8.9,9.2c2.2,0,4.3-0.8,6-2.3v3.3
				c-1.7,1-4,1.6-5.9,1.6c-6.5,0-11.8-5.1-11.8-11.7c0-6.7,5.4-11.9,12-11.9c2,0,4,0.5,5.7,1.5V203.2z"/>
			<path class="st0" d="M573.9,221.5h-2.8v-22.6h2.8V221.5z"/>
			<path class="st0" d="M581.4,215.9l-2.6,5.7h-3l10.8-23.6l10.8,23.6h-3l-2.6-5.7H581.4z M586.5,204.1l-4,9.1h8L586.5,204.1z"/>
			<path class="st0" d="M603.6,221.5h-2.8v-20h-5.4v-2.6H609v2.6h-5.4V221.5z"/>
			<path class="st0" d="M613.7,221.5h-2.8v-22.6h2.8V221.5z"/>
			<path class="st0" d="M640.3,210.2c0,6.7-5.3,11.8-11.8,11.8s-11.9-5.1-11.9-11.8c0-6.5,5.4-11.8,11.9-11.8
				S640.3,203.8,640.3,210.2z M637.5,210.2c0-5-3.7-9.1-9-9.1s-9,4.2-9,9.1c0,5.2,4.1,9.2,9,9.2S637.5,215.4,637.5,210.2z"/>
			<path class="st0" d="M643.1,197.8l17,17.8v-16.7h2.8v23.6l-17-17.8v16.9h-2.8V197.8z"/>
		</g>
	</g>
	<g>
		<g>
			<g>
				<path class="st0" d="M660.8,164.8l-90-155.9L512,110.8c2.4-7.5,3.7-15.5,3.7-23.9c0-43.1-34.9-78-78-78h-74.2v155.9h74.2
					c22.9,0,43.6-9.9,57.8-25.7l-14.8,25.7L660.8,164.8L660.8,164.8z M275,164.8h74V8.9h-74V164.8z"/>
			</g>
		</g>
		<rect x="139.8" y="8.9" class="st0" width="7.3" height="155.9"/>
		<rect x="46.7" y="83.2" class="st0" width="78.4" height="7.3"/>
		<rect x="24.7" y="8.9" class="st0" width="7.3" height="155.9"/>
		<path class="st0" d="M260.4,8.9h-10.8L161.8,87l95.1,77.8h10.8c-18.6-15.5-95.1-78-95.1-78L260.4,8.9z"/>
	</g>
</g>
</svg>
