<?xml version="1.0" encoding="utf-8"?>
<!-- Generator: Adobe Illustrator 21.1.0, SVG Export Plug-In . SVG Version: 6.00 Build 0)  -->
<svg version="1.1" id="Layer_1" xmlns="http://www.w3.org/2000/svg" xmlns:xlink="http://www.w3.org/1999/xlink" x="0px" y="0px"
	 viewBox="0 0 1350 674.8" style="enable-background:new 0 0 1350 674.8;" xml:space="preserve">
<style type="text/css">
	.st0{fill:#FFFFFF;}
</style>
<path class="st0" d="M828.2,0H723.9v305.6h104.3c76.8,0,152-58.4,152-152.4C980.2,58.1,905,0,828.2,0z M828.2,268.5h-66.1V37.4h66.1
	c63.4,0,115,50.8,115,115.8C943.2,217.7,891.6,268.5,828.2,268.5z M1350,205.9v37h-29h-129.5v62.7H1154
	c-85.2,0-133.7-46.6-133.7-115.8V0h37.4v178.4c0,68.8,45.5,87.9,96.3,87.9V0h37.4v205.9h92.1V0h37.4v205.9H1350z M667,305.6h-38.2V0
	H667V305.6z M28.7,168.1H0V131h28.7V0h37.8v131h106.6v27.9c0,29.4,16,47,44.7,47H230v-37.8V131V0h37.4v131v37.1v137.5H230v-63.4
	h-18.7c-41.6,0-73.7-32.1-75.2-74.1H66.5v137.5H28.7V168.1z M345.3,168.1h-28.6V131h28.6V0h37.8v131h32.1L534,0h49.7L464.5,131
	h107.7v174.6h-37.1V168.1h-152v137.5h-37.8V168.1z M96.4,635.9h-56l0.2,3.7v31.1l-0.2,3.7h10.1v-3.8h35.9v3.8h10l-0.1-3.7v-31.1
	L96.4,635.9z M86.5,662.9H50.5v-6.3h35.9V662.9z M86.5,649.6H50.5v-6h35.9V649.6z M81.1,615.7c8.3,6,21.1,10.8,32.8,13.1
	c-1.5,2.7-3.6,7.1-4.2,9.1c-14.7-3.9-28-11.4-36.9-20.2l0.2,12l0.2,3.2h-9.9l0.2-3.2l0.2-11.6c-8.6,8.9-21.4,16.5-35.6,20.4
	c-0.7-2-2.8-6.4-4.3-9.1C35,626.9,47,621.9,55,615.7H35c-3.6,0-6.4,0-8.7,0.2v-9.3c2.3,0.2,5.1,0.2,8.7,0.2h28.6v-7.3
	c-8.5,0.7-17.3,1-26.6,0.9c-0.6-1.5-2.6-5.9-4-8.7c22.3,0.7,46.4-1.2,61.7-4.5l6.7,7.5l-2.6,0.3c-8.3,1.5-16.9,2.8-26,3.8v8.1h29.7
	c3.6,0,6.3,0,8.7-0.2v9.3c-2.4-0.2-5.1-0.2-8.7-0.2H81.1z M130.4,610.4c3.6,2.2,10.1,6.6,14.4,10.1l-5.2,8.1
	c-4.4-3.9-10.1-8-14.3-10.4L130.4,610.4z M148.1,598.8l-5.5,8c-4.6-4.1-10.2-8.2-14.7-10.9l5.6-7.9
	C137.4,590.4,143.7,595.1,148.1,598.8z M195.5,625.3h8.9c2.9,0,5,0,7.1,0.2v-9.3c-2,0.2-4.2,0.2-7.1,0.2h-9.7v-10.7h6.4
	c2.5,0,4.5,0,6.5,0.2v-9.1c-1.9,0.2-4,0.2-6.5,0.2h-6.4v-7l0.2-2.7l-9.9-0.4l0.2,3v7.1H173v-7l0.2-2.7l-9.9-0.4l0.2,3v7.1h-5
	c-2.4,0-4.5,0-6.4-0.2v9.1c1.9-0.2,4-0.2,6.4-0.2h5v10.7h-8.4c-2.8,0-5,0-7-0.2v9.3c2-0.2,4.3-0.2,7-0.2h6.4
	c-3.4,6.4-9.7,12.2-17.1,16.2l-5.2-6c-2,4.9-7.8,20.3-12.6,28.6l-1.9,2.6l8.4,7.4l1.9-4.6c3.1-5.9,8-17.1,10.6-24l3.2,4.8
	c3.2-1.8,6.3-4.1,9.2-6.6v18.2c0,5.2,0.6,7.9,2.9,9.5c2.1,1.5,5.5,2,21,2c21.1,0,26.3-3.5,27.4-16.9l-9.7-5.2
	c-0.1,6.7-0.6,9.5-2.8,11.1c-2.7,1.7-6.8,2.3-13.8,2.3c-9,0-11.7-0.1-13.1-0.4l-1.8-2v-6.4h26.3l-0.1-2.7v-15.4
	c4.5,4.9,9.8,9.1,15.4,12.3c0.7-1.9,2.9-6.2,4.5-8.9C206,637.6,199.6,632.1,195.5,625.3z M173,605.7h12.3v10.7H173V605.7z
	 M184.9,647.4H168v-5.8h16.9V647.4z M167.5,633.1c1.6-2.5,3.1-5.1,4.4-7.8h13.5c1.5,2.7,3.1,5.3,4.9,7.8H167.5z M273.5,662.5V654
	h20.4c2.8,0,5,0,7.1,0.2v-9.3c-2,0.2-4.3,0.2-7.1,0.2h-20.4v-7.3v-1c6.6-0.4,12.9-0.9,17.7-1.2l5.1,5.7l8.1-5.8
	c-6.2-6.5-14.5-13.1-19.6-16.3h6.3c2.4,0,4.5,0,6.3,0.2v-8.5c-1.8,0.2-3.9,0.2-6.3,0.2h-44.6c-2.5,0-4.5,0-6.4-0.2v8.5
	c1.9-0.2,3.9-0.2,6.4-0.2h8c-3.2,4.4-8.8,9.6-15,11.5l3,8l5.5-0.3c4-0.3,9.5-0.6,15.4-1v0.3v7.3h-20.2c-2.8,0-5,0-7-0.2v9.3
	c2-0.2,4.2-0.2,7-0.2h20.2v8.5H234c-3.4,0-6.1,0-8.3-0.2v9.5c2.2-0.2,4.9-0.2,8.3-0.2h68.4c3.4,0,6.1,0,8.4,0.2v-9.5
	c-2.3,0.2-5,0.2-8.4,0.2H273.5z M255,630.3c4.7-3.7,8.6-8,10.4-11.1h19l-7,4.5c1.7,1.3,4,3,6.3,5C273.9,629.3,263.6,629.9,255,630.3
	z M308.6,598.2v15.2l0.1,2.7h-10v-11.9h-60.6v11.9H228l0.2-2.7v-15.2l-0.2-2.7h35.1l-3.9-6.5l7.3-2.9c1.9,2.5,4.1,6.2,6,9.4h36.2
	L308.6,598.2z M407.3,610.6v45.9l0.2,7c0,6.6-5.6,10.4-22.3,10.4c-1.2-2.5-3.7-7.5-5.3-10.5c0.1,0,5.1,0.8,9.9,0.8
	c5.4,0,7.2-1.1,7.2-3.3v-4.4v-40.9h-21.6c3.4,16.9,11.4,24.4,19.5,28.7l-5.3,9.9c-7.5-5.1-15-12.6-19.8-26.3
	c-4.7,11.7-11.7,21.9-21.2,28.7c-2-2.8-4.7-6.6-6.3-8.6c12.6-8.2,19.1-19.9,22-32.5h-23.6v52.9l0.2,5.5h-10.8l0.2-5.5v-59.4
	l-0.2-3.2h34.7c-0.3-2.7-0.4-5.6-0.6-8.7h-13.8l-3.8,0.1v-9.1l3.8,0.1h23.4v7.7c0,3.6,0.1,6.9,0.3,9.9h33.4L407.3,610.6z
	 M471.6,600.6v-7.3l-0.2-2.8h28.1l-0.2,1.8v19.3l0.9,1.3l3.8,0.2c1.5,0,4.9,0,7.6-0.3c-0.6,2.9-1,5.9-1.5,8.5
	c-2.4,0.2-5.4,0.3-7.3,0.3c-6.2,0-8.9-0.6-10.5-2c-1.8-1.5-2.1-3.9-2.1-8.7v-12.3h-9.6v2.5c0,10.9-6.2,19.5-15.5,24.1l-5.6-7.6
	C466.6,613.9,471.6,609.3,471.6,600.6z M434.5,591.1l7.9-4.3c3.2,3.6,5.8,7.9,8.1,11.9l-8.5,4.5
	C440.2,599.1,437.4,594.6,434.5,591.1z M458.1,643.9h-30.2l0.2,3.1v24.1l-0.2,3.1h8.7v-4.1h12.9v4.1h8.6l-0.1-3.1V647L458.1,643.9z
	 M449.5,662.6h-12.9v-11.1h12.9V662.6z M452.5,630.9l4.1-0.1v7.9l-4.1-0.1h-18.8l-4,0.1v-7.9l4,0.1H452.5z M429.4,612l-4.8,0.1v-8.7
	l4.8,0.1H456l4.9-0.1v8.7L456,612H429.4z M456.5,625.5l-4.1-0.1h-18.8l-4,0.1v-7.9l4,0.1h18.8l4.1-0.1V625.5z M505.7,632.6l1-0.5
	c-2.6-2.3-5.8-4.5-7.5-5.6l-0.8,0.8h-29.8l-4.7-0.1v8.7l4.7-0.1h1c2,8.3,5.7,15.4,10.6,21.3c-5.8,4-12.9,6.8-21.6,8.5
	c1.5,2.4,3.6,6.6,4.4,8.8c9.5-2.5,17.4-6,23.9-10.8c6.4,5.1,14.1,8.8,23.2,11.1c0.7-1.8,2.7-6.1,4.1-8.8c-7.8-1.8-14.7-4.6-20.3-8.6
	C499.6,650.9,503.4,642.9,505.7,632.6z M478.7,635.8h16.9c-1.7,6-4.5,11.2-8.5,15.4C483.1,647,480.3,641.8,478.7,635.8z
	 M530.9,631.1l4.3,0.1h21.4l4.3-0.1v7.9l-4.3-0.1h-21.4l-4.3,0.1V631.1z M607.6,618.3c2.3,0,4.3,0,5.9-0.1v10
	c-1.6-0.1-3.6-0.1-5.9-0.1h-12.9v39.7l0.2,6.5h-11c0.1-1.8,0.2-4.3,0.2-6.5v-39.7h-11.8c-2.2,0-4.1,0-5.9,0.1v-10
	c1.7,0.1,3.7,0.1,5.9,0.1H584v-26.1l-0.2-4.8c2.3,0,8.7,0.2,11,0.4l-0.2,4.5v26.1H607.6z M535.1,625.7l-4.3,0.1v-7.9l4.3,0.1h21.4
	l4.3-0.1v7.9l-4.3-0.1H535.1z M560.8,603.7l5.2-0.1v8.7l-5.2-0.1h-30.7l-5.2,0.1v-8.7l5.2,0.1H560.8z M562.4,644.3h-33.3l0.2,3.1
	v24.3l-0.2,3.1h8.9v-4.2h15.6v4.2h8.8l-0.1-3.1v-24.3L562.4,644.3z M553.6,662.9H538V652h15.6V662.9z M544,586.7
	c3.2,3.1,6,7,8.1,10.9l-8.7,4.7c-1.8-3.7-4.6-8.1-7.5-11.2L544,586.7z M705.6,596.1v61.4l0.2,7.1c0,6.1-5.2,9.8-20.4,9.8
	c-0.9-2.2-3.2-7-4.7-10c2,0.3,5.6,0.7,8.7,0.7c4.8,0,6.4-1.1,6.4-3v-4.5V600h-53.1c0.2,6.9,0.4,15.9,0.4,21.8
	c0,26.9-3.7,41.6-10.9,52.9c-2.1-1.8-6.4-5-9-7c6.7-9.7,10-21,10-46.1c0-10.9-0.3-25.3-0.6-30.6h73.1L705.6,596.1z M664.2,622.6
	v-6.5h-9.3l-4.9,0.1v-8.1l4.9,0.1h9.3v-3.6l-0.1-2.8l9.5,0.4l-0.1,2.4v3.6h9.9l4.9-0.1v8.1l-4.9-0.1h-9.9v6.5h12l5.3-0.1v8.1
	l-5.3-0.1h-12v2.8l0.2,3.1H664l0.2-3.1v-2.8h-11.9l-5.3,0.1v-8.1l5.3,0.1H664.2z M686.3,659.3v-18.7l0.1-2.9h-35.1l0.2,3.2v24.4
	l-0.2,3.2h9.5v-6.3h25.6L686.3,659.3z M677,654.3h-16.2v-8.7H677V654.3z M80.8,446.2v-34H40.1v34H28.7v-79.5h11.5v34h40.6v-34h11.5
	v79.5H80.8z M187.7,406.5c0-22.3-18.1-40.4-40.4-40.4c-22.3,0-40.5,18.1-40.5,40.4c0,22.3,18.2,40.4,40.5,40.4
	C169.6,446.9,187.7,428.8,187.7,406.5z M118.3,406.5c0-15.9,12.9-28.9,28.9-28.9c15.9,0,28.8,13,28.8,28.9
	c0,15.9-12.9,28.9-28.8,28.9C131.3,435.4,118.3,422.4,118.3,406.5z M256,366.7h11.5v79.5h-12.7l-41.1-61.1v61.1h-11.5v-79.5h12.9
	l40.9,61.1V366.7z M281.9,406.6c0-23.9,19.8-40.5,40.1-40.5c17.4,0,32,11.4,35,26.1h-12.8c-1.3-3.8-4-7.4-7.7-10
	c-4-2.8-9.1-4.5-14.8-4.5c-14.1,0-28.2,11.3-28.2,29c0,17.2,12.3,28.9,27.9,28.9c19.2,0,25.3-15.9,25.5-20.7l-31.3,0.1V404h42.6
	v42.2h-11.2v-12.6c-4.9,7.1-13.1,13.3-27,13.3C298.9,446.9,281.9,429.7,281.9,406.6z M426.8,366.7v40.7
	c12.8-14.4,35.9-40.7,35.9-40.7h14.9c0,0-15.9,18.1-30.3,34.3l32.4,45.2h-14.1l-25.9-36.3l-12.8,14.6v21.8h-11.5v-79.5H426.8z
	 M521.7,366c-22.3,0-40.5,18.1-40.5,40.4c0,22.3,18.2,40.4,40.5,40.4c22.3,0,40.4-18.1,40.4-40.4C562.1,384.2,544,366,521.7,366z
	 M521.7,435.4c-16,0-28.9-13-28.9-28.9c0-15.9,12.9-28.9,28.9-28.9c15.9,0,28.8,13,28.8,28.9C550.6,422.4,537.6,435.4,521.7,435.4z
	 M576.6,366.7h12.9l40.9,61.1v-61.1h11.5v79.5h-12.7l-41.1-61.1v61.1h-11.5V366.7z M721.6,446.2v-12.6c-4.9,7.1-13.1,13.3-27,13.3
	c-21.2,0-38.2-17.2-38.2-40.3c0-23.9,19.8-40.5,40.1-40.5c17.4,0,32,11.4,35,26.1h-12.8c-1.3-3.8-4-7.4-7.7-10
	c-4-2.8-9-4.5-14.8-4.5c-14.1,0-28.2,11.3-28.2,29c0,17.2,12.3,28.9,27.9,28.9c19.2,0,25.3-15.9,25.5-20.7l-31.3,0.1V404h42.6v42.2
	H721.6z M28.7,476.5h11.5V556H28.7V476.5z M112.9,476.5h11.5V556h-12.7l-41.1-61.1V556H59.1v-79.5h12.9l40.9,61.1V476.5z M159.5,556
	v-68h-24.1v-0.5h-0.1v-11h60v11.5H171v68H159.5z M217.7,487.9v22.5h37.9V522h-37.9v22.5h41.8v0.1h0.1V556h-53.5v-79.5h53.5v11.3
	h-0.1v0.2H217.7z M316.1,524.2c8.8-3.9,15.2-13,15.2-22.8c0-13-11.2-24.9-24.5-24.9h-31.1V556h11.5v-29.8h17l15.1,29.8h12.9
	L316.1,524.2z M306.8,514.7h-19.7v-26.7h19.7c7.3,0,13,6.2,13,13.5C319.8,508.5,314.1,514.7,306.8,514.7z M344.6,476.5H356V556
	h-11.5V476.5z M451.6,516.2c0-22.3-18.1-40.4-40.4-40.4c-22.3,0-40.5,18.1-40.5,40.4c0,22.3,18.2,40.4,40.5,40.4
	C433.5,556.6,451.6,538.5,451.6,516.2z M411.2,545.1c-16,0-28.9-13-28.9-28.9c0-15.9,12.9-28.9,28.9-28.9c15.9,0,28.8,13,28.8,28.9
	C440,532.1,427.1,545.1,411.2,545.1z M521.7,501.4c0-13-11.2-24.9-24.5-24.9h-31.1V556h11.5v-29.8h17l15.1,29.8h12.9l-16.1-31.8
	C515.3,520.3,521.7,511.1,521.7,501.4z M497.2,514.7h-19.7v-26.7h19.7c7.3,0,13,6.2,13,13.5C510.2,508.5,504.5,514.7,497.2,514.7z
	 M605.5,476.5h-29V556h29c21,0,39.7-16.3,39.7-39.8C645.2,492.8,626.4,476.5,605.5,476.5z M605.5,544.5H588v-56.6h17.5
	c15.5,0,28.2,12.7,28.2,28.3C633.7,531.8,621,544.5,605.5,544.5z M659.8,476.5h53.5v11.3h-0.1v0.2h-41.8v22.5h37.9V522h-37.9v22.5
	h41.8v0.1h0.1V556h-53.5V476.5z M778.3,533.5c0,12.8-10.1,23.2-25.7,23.2c-15.4,0-27.9-11.3-27.9-27.3h11.8c0,4.8,2.1,9.3,5.6,12.4
	c2.7,2.3,6.3,3.6,10.4,3.6c9.4,0,14-5.9,14-11.8c0-6.2-4.1-9.9-12.5-12.1l-7.9-2c-12.3-3.1-19.2-10.2-19.2-21.5
	c0-12.4,11.3-22.1,25.3-22.1c15.6,0,24.2,12.4,24.2,24.4h-11.5c0-3.5-1.3-7-3.6-9.5c-2.2-2.2-5.5-3.7-9.4-3.7
	c-8.2,0-13.1,5.5-13.1,10.9c0,5.2,2.1,8.4,9.6,10.5l7.6,2C771.3,514.5,778.3,521.5,778.3,533.5z M792,476.5h11.5V556H792V476.5z
	 M851.9,513.8h42.6V556h-11.1v-12.6c-4.9,7.1-13.2,13.3-27.1,13.3c-21.2,0-38.2-17.2-38.2-40.3c0-23.9,19.8-40.5,40.1-40.5
	c17.4,0,32,11.4,35,26.1h-12.8c-1.3-3.8-4-7.4-7.7-10c-4-2.8-9-4.5-14.8-4.5c-14.1,0-28.2,11.3-28.2,29c0,17.2,12.3,28.9,27.9,28.9
	c19.2,0,25.3-15.9,25.5-20.7l-31.3,0.1V513.8z M963.7,476.5h11.5V556h-12.7l-41.1-61.1V556H910v-79.5h12.9l40.8,61.1V476.5z
	 M1109.3,476.5h11.7l-22.4,79.5h-11.7l-17-60.5l-17,60.5h-11.7l-22.3-79.5h11.6l2.9,10.3v0.1l13.8,49.9l16.9-60.3h11.7l17,60.3
	L1109.3,476.5z M1132,476.5h53.5v11.3h-0.1v0.2h-41.8v22.5h37.9V522h-37.9v22.5h41.8v0.1h0.1V556H1132V476.5z M1201.3,476.5h53.5
	v11.3h-0.1v0.2h-41.8v22.5h37.9V522h-37.9v22.5h41.8v0.1h0.1V556h-53.5V476.5z M1302.7,510.8l32.3,45.2H1321l-25.9-36.3l-12.8,14.6
	V556h-11.5v-79.5h11.5v40.7c12.8-14.4,35.9-40.7,35.9-40.7h14.9C1333,476.5,1317.1,494.6,1302.7,510.8z"/>
</svg>
