<?xml version="1.0" encoding="utf-8"?>
<!-- Generator: Adobe Illustrator 21.1.0, SVG Export Plug-In . SVG Version: 6.00 Build 0)  -->
<svg version="1.1" id="Layer_1" xmlns="http://www.w3.org/2000/svg" xmlns:xlink="http://www.w3.org/1999/xlink" x="0px" y="0px"
	 viewBox="0 0 347.8 78.5" style="enable-background:new 0 0 347.8 78.5;" xml:space="preserve">
<style type="text/css">
	.st0{fill:#FFFFFF;}
</style>
<g>
	<path class="st0" d="M3.4,19.1H0.2v-1.4c0,0,0.1,0,0.1,0c0,0,0.1,0,0.1,0c0.8,0,1.4-0.1,1.6-0.1c0.3,0,0.5-0.1,0.5-0.2
		c0.1-0.1,0.1-0.2,0.1-0.5V2.6c0-0.2,0-0.4-0.1-0.5C2.4,2,2.2,2,2,1.9c-0.3,0-0.9-0.1-1.7-0.1h0h0V0.3h3.2H5h3.2v1.5
		c0,0-0.1,0-0.1,0c0,0-0.1,0-0.1,0c-0.8,0-1.4,0.1-1.6,0.1C6.2,2,6,2,5.9,2.1C5.8,2.2,5.8,2.4,5.8,2.6v14.2c0,0.2,0,0.4,0.1,0.5
		c0.1,0.1,0.3,0.1,0.5,0.2c0.3,0,0.9,0.1,1.7,0.1h0h0v1.4H5H3.4z M4.4,8.3h11.2v1.8H4.4V8.3z M14.8,19.1h-3.2v-1.4c0,0,0.1,0,0.1,0
		c0,0,0.1,0,0.1,0c0.8,0,1.4-0.1,1.6-0.1c0.3,0,0.5-0.1,0.5-0.2c0.1-0.1,0.1-0.2,0.1-0.5V2.6c0-0.2,0-0.4-0.1-0.5
		C13.9,2,13.7,2,13.4,1.9c-0.3,0-0.9-0.1-1.7-0.1h0h0V0.3h3.2h1.7h3.2v1.5c0,0-0.1,0-0.1,0c0,0-0.1,0-0.1,0c-0.8,0-1.4,0.1-1.6,0.1
		c-0.3,0-0.5,0.1-0.5,0.2c-0.1,0.1-0.1,0.2-0.1,0.5v14.2c0,0.2,0,0.4,0.1,0.5c0.1,0.1,0.3,0.1,0.5,0.2c0.3,0,0.9,0.1,1.7,0.1h0h0
		v1.4h-3.2H14.8z"/>
	<path class="st0" d="M31.3,19.4c-1.7,0-3.3-0.4-4.6-1.2c-1.4-0.8-2.4-1.9-3.2-3.4c-0.8-1.5-1.1-3.2-1.1-5.1c0-2,0.4-3.7,1.2-5.1
		c0.8-1.5,1.9-2.6,3.2-3.4C28.2,0.4,29.7,0,31.4,0c1.7,0,3.3,0.4,4.6,1.2c1.3,0.8,2.4,1.9,3.1,3.4c0.8,1.5,1.1,3.2,1.1,5.1
		c0,2-0.4,3.7-1.2,5.1c-0.8,1.5-1.9,2.6-3.2,3.4C34.6,19,33,19.4,31.3,19.4 M31.4,17.4c1.2,0,2.2-0.3,3-0.9c0.8-0.6,1.5-1.4,1.9-2.6
		c0.4-1.1,0.6-2.6,0.6-4.3c0-1.7-0.2-3.1-0.6-4.3c-0.4-1.1-1-2-1.9-2.6c-0.8-0.6-1.8-0.9-3-0.9c-1.2,0-2.2,0.3-3,0.9
		c-0.8,0.6-1.5,1.4-1.9,2.6C26,6.6,25.8,8,25.8,9.7c0,1.7,0.2,3.1,0.6,4.3s1,2,1.9,2.6C29.1,17.1,30.2,17.4,31.4,17.4"/>
	<path class="st0" d="M47.3,4c-0.4-0.5-0.7-1-1.1-1.3c-0.4-0.3-0.8-0.5-1.3-0.6c-0.5-0.1-1.2-0.3-2-0.3V0.3h5.7l10.8,16.4v2.3h-2
		L47.3,4z M42.9,17.6c0.8-0.1,1.4-0.2,1.8-0.3c0.4-0.1,0.6-0.3,0.7-0.5c0.1-0.2,0.1-0.5,0.1-1V1.2h2v14.7c0,0.4,0.1,0.8,0.2,1
		c0.1,0.2,0.3,0.4,0.7,0.5c0.4,0.1,1,0.2,1.8,0.3v1.5h-7.2V17.6z M57.3,3.6c0-0.4-0.1-0.8-0.1-1c-0.1-0.2-0.3-0.4-0.7-0.5
		c-0.4-0.1-1-0.2-1.8-0.3V0.3h7.2v1.5c-0.8,0.1-1.4,0.2-1.8,0.3c-0.4,0.1-0.6,0.3-0.7,0.5c-0.1,0.2-0.1,0.5-0.1,1V18h-2V3.6z"/>
	<path class="st0" d="M72.6,19.4c-1.6,0-3.1-0.4-4.4-1.2c-1.3-0.8-2.3-1.9-3.1-3.4c-0.7-1.5-1.1-3.2-1.1-5.1c0-1.9,0.4-3.6,1.2-5.1
		C66,3.1,67,2,68.3,1.2C69.6,0.4,71.1,0,72.7,0c0.8,0,1.6,0.1,2.4,0.4s1.4,0.6,1.9,1.1c0.5,0.5,0.9,1,1.1,1.6l-0.6,0l1.1-2.9h1.7
		v7.2h-1.5c-0.3-1.2-0.8-2.1-1.4-2.9c-0.6-0.8-1.2-1.4-1.9-1.8C74.7,2.2,73.9,2,73.1,2c-1.2,0-2.2,0.3-3,0.9
		c-0.8,0.6-1.5,1.4-1.9,2.6c-0.4,1.1-0.7,2.6-0.7,4.2c0,1.7,0.2,3.2,0.6,4.3c0.4,1.1,1,2,1.8,2.6c0.8,0.6,1.8,0.8,2.9,0.8
		c0.8,0,1.6-0.2,2.3-0.5s1.2-0.8,1.6-1.4c0.4-0.6,0.6-1.2,0.6-1.9v-1.5c0-0.2,0-0.4-0.1-0.5c-0.1-0.1-0.3-0.2-0.7-0.2s-1-0.1-2-0.1
		h0V9.9h8v1.5c-0.7,0.1-1.2,0.1-1.5,0.1c-0.3,0-0.4,0.1-0.5,0.2c-0.1,0.1-0.1,0.2-0.1,0.5v7.2h-1.4l-1.5-3.9l0.9-0.5
		c-0.2,0.8-0.5,1.6-1.1,2.3s-1.2,1.2-2,1.6C74.6,19.2,73.6,19.4,72.6,19.4"/>
	<path class="st0" d="M94.3,19.1h-3.2v-1.4c0,0,0.1,0,0.1,0c0,0,0.1,0,0.1,0c0.8,0,1.4-0.1,1.6-0.1c0.3,0,0.4-0.1,0.5-0.2
		c0.1-0.1,0.1-0.2,0.1-0.5V2.6c0-0.2,0-0.4-0.1-0.5C93.4,2,93.2,2,92.9,1.9c-0.3,0-0.9-0.1-1.7-0.1h0h0V0.3h3.2H96h3.2v1.5
		c0,0-0.1,0-0.1,0c0,0-0.1,0-0.1,0c-0.8,0-1.4,0.1-1.6,0.1C97.1,2,97,2,96.9,2.1c-0.1,0.1-0.1,0.2-0.1,0.5v14.2c0,0.2,0,0.4,0.1,0.5
		c0.1,0.1,0.3,0.1,0.5,0.2c0.3,0,0.9,0.1,1.7,0.1h0h0v1.4H96H94.3z M95.9,12.5l-0.3-1.8l7.9-7.4c0.4-0.3,0.6-0.6,0.6-0.8
		c0-0.2-0.1-0.3-0.4-0.4c-0.3-0.1-0.9-0.2-1.8-0.3V0.3h7.9v1.5c0,0,0,0-0.1,0c0,0,0,0-0.1,0c-0.5,0-1,0.1-1.3,0.2s-0.6,0.2-0.9,0.4
		c-0.3,0.2-0.6,0.5-1.1,0.9L95.9,12.5z M106.1,19.1l-7.8-9.7l2.2-1.9l5.8,7c0.4,0.4,0.7,0.8,1,1.2c0.3,0.4,0.6,0.7,0.9,1
		c0.3,0.3,0.5,0.5,0.7,0.8s0.5,0.5,0.7,0.8v0.9H106.1z"/>
	<path class="st0" d="M119.6,19.4c-1.7,0-3.3-0.4-4.6-1.2c-1.4-0.8-2.4-1.9-3.2-3.4c-0.8-1.5-1.1-3.2-1.1-5.1c0-2,0.4-3.7,1.2-5.1
		c0.8-1.5,1.9-2.6,3.2-3.4c1.4-0.8,2.9-1.2,4.6-1.2c1.7,0,3.3,0.4,4.6,1.2c1.3,0.8,2.4,1.9,3.1,3.4c0.8,1.5,1.1,3.2,1.1,5.1
		c0,2-0.4,3.7-1.2,5.1c-0.8,1.5-1.9,2.6-3.2,3.4C122.8,19,121.3,19.4,119.6,19.4 M119.6,17.4c1.2,0,2.2-0.3,3-0.9
		c0.8-0.6,1.5-1.4,1.9-2.6c0.4-1.1,0.6-2.6,0.6-4.3c0-1.7-0.2-3.1-0.6-4.3c-0.4-1.1-1-2-1.9-2.6c-0.8-0.6-1.8-0.9-3-0.9
		c-1.2,0-2.2,0.3-3,0.9c-0.8,0.6-1.5,1.4-1.9,2.6c-0.4,1.1-0.6,2.6-0.6,4.3c0,1.7,0.2,3.1,0.6,4.3s1,2,1.9,2.6
		C117.4,17.1,118.4,17.4,119.6,17.4"/>
	<path class="st0" d="M135.5,4c-0.4-0.5-0.7-1-1.1-1.3c-0.4-0.3-0.8-0.5-1.3-0.6c-0.5-0.1-1.2-0.3-2-0.3V0.3h5.7l10.8,16.4v2.3h-2
		L135.5,4z M131.2,17.6c0.8-0.1,1.4-0.2,1.8-0.3c0.4-0.1,0.6-0.3,0.7-0.5c0.1-0.2,0.1-0.5,0.1-1V1.2h2v14.7c0,0.4,0.1,0.8,0.2,1
		c0.1,0.2,0.3,0.4,0.7,0.5c0.4,0.1,1,0.2,1.8,0.3v1.5h-7.2V17.6z M145.6,3.6c0-0.4-0.1-0.8-0.1-1c-0.1-0.2-0.3-0.4-0.7-0.5
		c-0.4-0.1-1-0.2-1.8-0.3V0.3h7.2v1.5c-0.8,0.1-1.4,0.2-1.8,0.3c-0.4,0.1-0.6,0.3-0.7,0.5c-0.1,0.2-0.1,0.5-0.1,1V18h-2V3.6z"/>
	<path class="st0" d="M160.8,19.4c-1.6,0-3.1-0.4-4.4-1.2c-1.3-0.8-2.3-1.9-3.1-3.4c-0.7-1.5-1.1-3.2-1.1-5.1c0-1.9,0.4-3.6,1.2-5.1
		c0.8-1.5,1.8-2.6,3.1-3.4c1.3-0.8,2.8-1.2,4.3-1.2c0.8,0,1.6,0.1,2.4,0.4s1.4,0.6,1.9,1.1c0.5,0.5,0.9,1,1.1,1.6l-0.6,0l1.1-2.9
		h1.7v7.2H167c-0.3-1.2-0.8-2.1-1.4-2.9c-0.6-0.8-1.2-1.4-1.9-1.8C163,2.2,162.2,2,161.3,2c-1.2,0-2.2,0.3-3,0.9
		c-0.8,0.6-1.5,1.4-1.9,2.6c-0.4,1.1-0.7,2.6-0.7,4.2c0,1.7,0.2,3.2,0.6,4.3c0.4,1.1,1,2,1.8,2.6c0.8,0.6,1.8,0.8,2.9,0.8
		c0.9,0,1.6-0.2,2.3-0.5s1.2-0.8,1.6-1.4c0.4-0.6,0.6-1.2,0.6-1.9v-1.5c0-0.2,0-0.4-0.1-0.5c-0.1-0.1-0.3-0.2-0.7-0.2
		c-0.3,0-1-0.1-2-0.1h0V9.9h8v1.5c-0.7,0.1-1.2,0.1-1.5,0.1c-0.3,0-0.4,0.1-0.5,0.2c-0.1,0.1-0.1,0.2-0.1,0.5v7.2h-1.4l-1.5-3.9
		l0.9-0.5c-0.2,0.8-0.5,1.6-1.1,2.3c-0.5,0.7-1.2,1.2-2,1.6C162.8,19.2,161.9,19.4,160.8,19.4"/>
	<path class="st0" d="M3.4,48.6H0.2v-1.4c0,0,0.1,0,0.1,0c0,0,0.1,0,0.1,0C1.2,47.1,1.7,47,2,47c0.3,0,0.5-0.1,0.5-0.2
		c0.1-0.1,0.1-0.2,0.1-0.5V32.1c0-0.2,0-0.4-0.1-0.5c-0.1-0.1-0.3-0.1-0.5-0.2c-0.3,0-0.9-0.1-1.7-0.1h0h0v-1.5h3.2H5h3.2v1.5
		c0,0-0.1,0-0.1,0c0,0-0.1,0-0.1,0c-0.8,0-1.4,0.1-1.6,0.1c-0.3,0-0.5,0.1-0.5,0.2c-0.1,0.1-0.1,0.2-0.1,0.5v14.2
		c0,0.2,0,0.4,0.1,0.5C6,46.9,6.2,47,6.5,47c0.3,0,0.9,0.1,1.7,0.1h0h0v1.4H5H3.4z"/>
	<path class="st0" d="M14.9,33.6c-0.4-0.5-0.7-1-1.1-1.3c-0.4-0.3-0.8-0.5-1.3-0.6c-0.5-0.1-1.2-0.3-2-0.3v-1.5h5.7l10.8,16.4v2.3
		h-2L14.9,33.6z M10.6,47.1c0.8-0.1,1.4-0.2,1.8-0.3c0.4-0.1,0.6-0.3,0.7-0.5c0.1-0.2,0.1-0.5,0.1-1V30.7h2v14.7
		c0,0.4,0.1,0.8,0.2,1c0.1,0.2,0.3,0.4,0.7,0.5c0.4,0.1,1,0.2,1.8,0.3v1.5h-7.2V47.1z M24.9,33.1c0-0.4-0.1-0.8-0.1-1
		c-0.1-0.2-0.3-0.4-0.7-0.5c-0.4-0.1-1-0.2-1.8-0.3v-1.5h7.2v1.5c-0.8,0.1-1.4,0.2-1.8,0.3c-0.4,0.1-0.6,0.3-0.7,0.5
		c-0.1,0.2-0.1,0.5-0.1,1v14.4h-2V33.1z"/>
	<path class="st0" d="M31.9,36.6l0-6.8H49l0,6.8h-1.7c0,0,0,0,0-0.1c0,0,0-0.1,0-0.1c-0.3-1.7-0.5-2.8-0.7-3.4
		c-0.1-0.6-0.3-1-0.4-1.2c-0.1-0.2-0.4-0.3-0.6-0.3H35.4c-0.3,0-0.5,0.1-0.7,0.3c-0.1,0.2-0.3,0.6-0.4,1.1c-0.1,0.6-0.3,1.7-0.6,3.3
		c0,0.1,0,0.1,0,0.2c0,0.1,0,0.1,0,0.2H31.9z M39.7,48.6h-3.8v-1.4c0,0,0.1,0,0.1,0c0,0,0.1,0,0.1,0c1,0,1.6-0.1,2-0.1
		c0.3,0,0.5-0.1,0.6-0.2c0.1-0.1,0.1-0.2,0.1-0.5V30.7H42v15.7c0,0.2,0,0.4,0.1,0.5c0.1,0.1,0.3,0.1,0.7,0.2c0.3,0,1,0.1,2.1,0.1h0
		h0v1.4h-3.8H39.7z"/>
	<path class="st0" d="M54.8,48.6h-3.2v-1.4c0,0,0.1,0,0.1,0c0,0,0.1,0,0.1,0c0.8,0,1.4-0.1,1.6-0.1c0.3,0,0.4-0.1,0.5-0.2
		c0.1-0.1,0.1-0.2,0.1-0.5V32.1c0-0.2,0-0.4-0.1-0.5c-0.1-0.1-0.3-0.1-0.5-0.2c-0.3,0-0.9-0.1-1.7-0.1h0h0v-1.5h3.2h2.4v18.7H54.8z
		 M62.8,39.9l-6.6-0.2v-1.8l6.6-0.2V39.9z M65.3,36c-0.3-1.4-0.5-2.4-0.6-3c-0.2-0.6-0.3-1-0.5-1.1c-0.2-0.2-0.4-0.2-0.8-0.2h-7.2
		v-1.8H67V36H65.3z M56.4,48.6v-1.8h7.4c0.3,0,0.6-0.1,0.8-0.3c0.2-0.2,0.4-0.6,0.5-1.2c0.2-0.6,0.4-1.7,0.6-3.1c0,0,0,0,0,0
		c0,0,0,0,0,0h1.7l0.1,6.4H56.4z"/>
	<path class="st0" d="M73.7,48.6h-3.2v-1.5c0,0,0.1,0,0.1,0c0,0,0.1,0,0.1,0c0.8,0,1.4-0.1,1.6-0.1c0.3,0,0.4-0.1,0.5-0.2
		c0.1-0.1,0.1-0.2,0.1-0.5V32.1c0-0.2,0-0.4-0.1-0.5c-0.1-0.1-0.3-0.1-0.5-0.2c-0.3,0-0.9-0.1-1.7-0.1h0h0v-1.5h3.2h2.4v16.5
		c0,0.2,0,0.4,0.1,0.5s0.3,0.1,0.6,0.2c0.3,0,0.9,0.1,1.8,0.1h0h0v1.5h-3.3H73.7z M88.8,46c-0.1,0.6-0.3,1.1-0.5,1.5
		c-0.2,0.4-0.6,0.8-1,1c-0.4,0.3-0.9,0.4-1.5,0.4c-0.7,0-1.2-0.1-1.7-0.4c-0.4-0.3-0.8-0.7-1.2-1.3c-0.3-0.6-0.7-1.5-1-2.6
		c-0.1-0.2-0.1-0.4-0.2-0.6c-0.1-0.2-0.1-0.4-0.2-0.5c-0.3-1-0.5-1.7-0.7-2.2c-0.2-0.5-0.5-0.9-1-1.2c-0.4-0.3-1-0.5-1.8-0.5h-2.6
		V38h4.6c0.9,0,1.6-0.1,2.2-0.3c0.6-0.2,1-0.6,1.3-1c0.3-0.5,0.5-1.1,0.5-1.8c0-0.7-0.1-1.3-0.4-1.8c-0.3-0.5-0.7-0.8-1.3-1.1
		c-0.6-0.2-1.3-0.3-2.2-0.3h-4.7v-1.7h4.8c1.5,0,2.8,0.2,3.9,0.6c1.1,0.4,1.9,0.9,2.4,1.6c0.5,0.7,0.8,1.6,0.8,2.6
		c0,1-0.3,1.9-0.8,2.6c-0.5,0.7-1.3,1.2-2.3,1.6c-1,0.4-2.2,0.5-3.6,0.5h-3.1v-0.1h1.7c1.1,0,2,0.2,2.7,0.5c0.7,0.3,1.4,0.8,1.9,1.5
		c0.5,0.7,0.9,1.5,1.3,2.5c0.3,0.8,0.5,1.4,0.7,1.8c0.2,0.4,0.4,0.7,0.7,0.8c0.2,0.2,0.5,0.2,0.8,0.2c0.2,0,0.4,0,0.5-0.1
		c0.2-0.1,0.3-0.1,0.4-0.3c0.1-0.1,0.3-0.2,0.4-0.4L88.8,46z"/>
	<path class="st0" d="M93.3,48.6h-3.2v-1.4c0,0,0.1,0,0.1,0c0,0,0.1,0,0.1,0c0.8,0,1.4-0.1,1.6-0.1c0.3,0,0.5-0.1,0.5-0.2
		c0.1-0.1,0.1-0.2,0.1-0.5V32.1c0-0.2,0-0.4-0.1-0.5c-0.1-0.1-0.3-0.1-0.5-0.2c-0.3,0-0.9-0.1-1.7-0.1h0h0v-1.5h3.2H95h3.2v1.5
		c0,0-0.1,0-0.1,0c0,0-0.1,0-0.1,0c-0.8,0-1.4,0.1-1.6,0.1c-0.3,0-0.5,0.1-0.5,0.2c-0.1,0.1-0.1,0.2-0.1,0.5v14.2
		c0,0.2,0,0.4,0.1,0.5c0.1,0.1,0.3,0.1,0.5,0.2c0.3,0,0.9,0.1,1.7,0.1h0h0v1.4H95H93.3z"/>
	<path class="st0" d="M109.8,48.9c-1.7,0-3.3-0.4-4.6-1.2c-1.4-0.8-2.4-1.9-3.2-3.4c-0.8-1.5-1.1-3.2-1.1-5.1c0-2,0.4-3.7,1.2-5.1
		c0.8-1.5,1.9-2.6,3.2-3.4c1.4-0.8,2.9-1.2,4.6-1.2c1.7,0,3.3,0.4,4.6,1.2c1.3,0.8,2.4,1.9,3.1,3.4c0.8,1.5,1.1,3.2,1.1,5.1
		c0,2-0.4,3.7-1.2,5.1c-0.8,1.5-1.9,2.6-3.2,3.4C113,48.5,111.5,48.9,109.8,48.9 M109.8,46.9c1.2,0,2.2-0.3,3-0.9
		c0.8-0.6,1.5-1.4,1.9-2.6c0.4-1.1,0.6-2.6,0.6-4.3c0-1.7-0.2-3.1-0.6-4.3c-0.4-1.1-1-2-1.9-2.6c-0.8-0.6-1.8-0.9-3-0.9
		c-1.2,0-2.2,0.3-3,0.9c-0.8,0.6-1.5,1.4-1.9,2.6c-0.4,1.1-0.6,2.6-0.6,4.3c0,1.7,0.2,3.1,0.6,4.3c0.4,1.1,1,2,1.9,2.6
		C107.6,46.6,108.6,46.9,109.8,46.9"/>
	<path class="st0" d="M124.6,48.6h-3.2v-1.5c0,0,0.1,0,0.1,0c0,0,0.1,0,0.1,0c0.8,0,1.4-0.1,1.6-0.1c0.3,0,0.4-0.1,0.5-0.2
		c0.1-0.1,0.1-0.2,0.1-0.5V32.1c0-0.2,0-0.4-0.1-0.5c-0.1-0.1-0.3-0.1-0.5-0.2c-0.3,0-0.9-0.1-1.7-0.1h0h0v-1.5h3.2h2.4v16.5
		c0,0.2,0,0.4,0.1,0.5s0.3,0.1,0.6,0.2c0.3,0,0.9,0.1,1.8,0.1h0h0v1.5h-3.3H124.6z M139.7,46c-0.1,0.6-0.3,1.1-0.5,1.5
		c-0.2,0.4-0.6,0.8-1,1c-0.4,0.3-0.9,0.4-1.5,0.4c-0.7,0-1.2-0.1-1.7-0.4c-0.4-0.3-0.8-0.7-1.2-1.3c-0.3-0.6-0.7-1.5-1-2.6
		c-0.1-0.2-0.1-0.4-0.2-0.6c-0.1-0.2-0.1-0.4-0.2-0.5c-0.3-1-0.5-1.7-0.7-2.2c-0.2-0.5-0.5-0.9-1-1.2c-0.4-0.3-1-0.5-1.8-0.5h-2.6
		V38h4.6c0.9,0,1.6-0.1,2.2-0.3c0.6-0.2,1-0.6,1.3-1s0.5-1.1,0.5-1.8c0-0.7-0.1-1.3-0.4-1.8c-0.3-0.5-0.7-0.8-1.3-1.1
		c-0.6-0.2-1.3-0.3-2.2-0.3h-4.7v-1.7h4.8c1.5,0,2.8,0.2,3.9,0.6c1.1,0.4,1.9,0.9,2.4,1.6c0.5,0.7,0.8,1.6,0.8,2.6
		c0,1-0.3,1.9-0.8,2.6c-0.5,0.7-1.3,1.2-2.3,1.6c-1,0.4-2.2,0.5-3.6,0.5h-3.1v-0.1h1.7c1.1,0,2,0.2,2.7,0.5c0.7,0.3,1.4,0.8,1.9,1.5
		c0.5,0.7,0.9,1.5,1.3,2.5c0.3,0.8,0.5,1.4,0.7,1.8c0.2,0.4,0.4,0.7,0.7,0.8c0.2,0.2,0.5,0.2,0.8,0.2c0.2,0,0.4,0,0.5-0.1
		c0.2-0.1,0.3-0.1,0.4-0.3c0.1-0.1,0.3-0.2,0.4-0.4L139.7,46z"/>
	<path class="st0" d="M150.9,48.6h-3.2v-1.4c0,0,0.1,0,0.1,0c0,0,0.1,0,0.1,0c0.8,0,1.4-0.1,1.6-0.1c0.3,0,0.4-0.1,0.5-0.2
		c0.1-0.1,0.1-0.2,0.1-0.5V32.1c0-0.2,0-0.4-0.1-0.5c-0.1-0.1-0.3-0.1-0.5-0.2c-0.3,0-0.9-0.1-1.7-0.1h0h0v-1.5h3.2h2.4v18.7H150.9z
		 M152.4,48.6v-1.8h2.9c1.5,0,2.7-0.3,3.7-0.9c1-0.6,1.7-1.4,2.2-2.5c0.5-1.1,0.7-2.5,0.7-4.2c0-1.7-0.2-3.1-0.7-4.2
		c-0.5-1.1-1.2-1.9-2.2-2.5c-1-0.6-2.2-0.8-3.8-0.8l-2.8,0v-1.7h2.8c2.2,0,4,0.4,5.5,1.1c1.5,0.7,2.7,1.8,3.5,3.2
		c0.8,1.4,1.2,3.1,1.2,5c0,2-0.4,3.6-1.2,5.1c-0.8,1.4-2,2.5-3.6,3.2c-1.5,0.7-3.4,1.1-5.5,1.1H152.4z"/>
	<path class="st0" d="M171.2,48.6H168v-1.4c0,0,0.1,0,0.1,0c0,0,0.1,0,0.1,0c0.8,0,1.4-0.1,1.6-0.1c0.3,0,0.4-0.1,0.5-0.2
		c0.1-0.1,0.1-0.2,0.1-0.5V32.1c0-0.2,0-0.4-0.1-0.5c-0.1-0.1-0.3-0.1-0.5-0.2c-0.3,0-0.9-0.1-1.7-0.1h0h0v-1.5h3.2h2.4v18.7H171.2z
		 M179.1,39.9l-6.6-0.2v-1.8l6.6-0.2V39.9z M181.7,36c-0.3-1.4-0.5-2.4-0.6-3c-0.2-0.6-0.3-1-0.5-1.1c-0.2-0.2-0.4-0.2-0.8-0.2h-7.2
		v-1.8h10.8V36H181.7z M172.8,48.6v-1.8h7.4c0.3,0,0.6-0.1,0.8-0.3c0.2-0.2,0.4-0.6,0.5-1.2c0.2-0.6,0.4-1.7,0.6-3.1c0,0,0,0,0,0
		c0,0,0,0,0,0h1.7l0.1,6.4H172.8z"/>
	<path class="st0" d="M195.2,48.9c-1,0-1.8-0.1-2.6-0.4c-0.8-0.2-1.4-0.6-2-1.1c-0.5-0.5-1-1.1-1.3-1.9l0.6,0.1l-1,3.1h-1.6
		l-0.1-6.8h1.4c0.4,1.2,0.9,2.2,1.5,2.9c0.6,0.7,1.3,1.3,2,1.6c0.7,0.3,1.6,0.5,2.5,0.5c0.7,0,1.3-0.1,1.9-0.4c0.5-0.2,1-0.6,1.3-1
		c0.3-0.4,0.4-1,0.4-1.6c0-0.5-0.1-0.9-0.3-1.3c-0.2-0.4-0.6-0.7-1.1-1c-0.5-0.3-1.2-0.5-2-0.8l-3.2-0.9c-1.1-0.3-2-0.7-2.7-1.2
		c-0.7-0.5-1.2-1-1.5-1.7c-0.3-0.7-0.5-1.4-0.5-2.3c0-1,0.3-1.8,0.8-2.6c0.5-0.8,1.2-1.4,2.1-1.9c0.9-0.5,1.9-0.7,3-0.7
		c0.9,0,1.6,0.1,2.3,0.4c0.7,0.2,1.2,0.6,1.6,1c0.4,0.4,0.8,1,1,1.6l-0.6,0.2l1-3.1h1.6L200,36h-1.5c-0.3-1-0.7-1.8-1.2-2.4
		c-0.5-0.7-1.1-1.2-1.7-1.5c-0.7-0.3-1.4-0.5-2.2-0.5c-0.7,0-1.3,0.1-1.8,0.4c-0.5,0.2-0.9,0.6-1.2,1c-0.3,0.4-0.4,0.9-0.4,1.4
		c0,0.4,0.1,0.8,0.3,1.1c0.2,0.3,0.5,0.6,0.9,0.9c0.4,0.3,1,0.5,1.8,0.7l3.2,0.9c1.2,0.3,2.1,0.7,2.8,1.2c0.7,0.5,1.3,1.1,1.6,1.7
		c0.4,0.7,0.5,1.5,0.5,2.4c0,1.1-0.2,2.1-0.8,2.9c-0.5,0.8-1.2,1.5-2.1,2C197.3,48.6,196.3,48.9,195.2,48.9"/>
	<path class="st0" d="M206.8,48.6h-3.2v-1.4c0,0,0.1,0,0.1,0c0,0,0.1,0,0.1,0c0.8,0,1.4-0.1,1.6-0.1c0.3,0,0.5-0.1,0.5-0.2
		c0.1-0.1,0.1-0.2,0.1-0.5V32.1c0-0.2,0-0.4-0.1-0.5c-0.1-0.1-0.3-0.1-0.5-0.2c-0.3,0-0.9-0.1-1.7-0.1h0h0v-1.5h3.2h1.7h3.2v1.5
		c0,0-0.1,0-0.1,0c0,0-0.1,0-0.1,0c-0.8,0-1.4,0.1-1.6,0.1c-0.3,0-0.5,0.1-0.5,0.2c-0.1,0.1-0.1,0.2-0.1,0.5v14.2
		c0,0.2,0,0.4,0.1,0.5c0.1,0.1,0.3,0.1,0.5,0.2c0.3,0,0.9,0.1,1.7,0.1h0h0v1.4h-3.2H206.8z"/>
	<path class="st0" d="M222.8,48.9c-1.6,0-3.1-0.4-4.4-1.2c-1.3-0.8-2.3-1.9-3.1-3.4c-0.7-1.5-1.1-3.2-1.1-5.1c0-1.9,0.4-3.6,1.2-5.1
		c0.8-1.5,1.8-2.6,3.1-3.4c1.3-0.8,2.8-1.2,4.3-1.2c0.8,0,1.6,0.1,2.4,0.4s1.4,0.6,1.9,1.1c0.5,0.5,0.9,1,1.1,1.6l-0.6,0l1.1-2.9
		h1.7v7.2H229c-0.3-1.2-0.8-2.1-1.4-2.9c-0.6-0.8-1.2-1.4-1.9-1.8c-0.7-0.4-1.5-0.6-2.4-0.6c-1.2,0-2.2,0.3-3,0.9
		c-0.8,0.6-1.5,1.4-1.9,2.6c-0.4,1.1-0.7,2.6-0.7,4.2c0,1.7,0.2,3.2,0.6,4.3c0.4,1.1,1,2,1.8,2.6c0.8,0.6,1.8,0.8,2.9,0.8
		c0.9,0,1.6-0.2,2.3-0.5s1.2-0.8,1.6-1.4c0.4-0.6,0.6-1.2,0.6-1.9v-1.5c0-0.2,0-0.4-0.1-0.5c-0.1-0.1-0.3-0.2-0.7-0.2
		c-0.3,0-1-0.1-2-0.1h0v-1.5h8v1.5c-0.7,0.1-1.2,0.1-1.5,0.1c-0.3,0-0.4,0.1-0.5,0.2c-0.1,0.1-0.1,0.2-0.1,0.5v7.2h-1.4l-1.5-3.9
		l0.9-0.5c-0.2,0.8-0.5,1.6-1.1,2.3c-0.5,0.7-1.2,1.2-2,1.6C224.8,48.7,223.9,48.9,222.8,48.9"/>
	<path class="st0" d="M239.1,33.6c-0.4-0.5-0.7-1-1.1-1.3c-0.4-0.3-0.8-0.5-1.3-0.6c-0.5-0.1-1.2-0.3-2-0.3v-1.5h5.7l10.8,16.4v2.3
		h-2L239.1,33.6z M234.8,47.1c0.8-0.1,1.4-0.2,1.8-0.3c0.4-0.1,0.6-0.3,0.7-0.5c0.1-0.2,0.1-0.5,0.1-1V30.7h2v14.7
		c0,0.4,0.1,0.8,0.2,1c0.1,0.2,0.3,0.4,0.7,0.5c0.4,0.1,1,0.2,1.8,0.3v1.5h-7.2V47.1z M249.1,33.1c0-0.4-0.1-0.8-0.1-1
		c-0.1-0.2-0.3-0.4-0.7-0.5c-0.4-0.1-1-0.2-1.8-0.3v-1.5h7.2v1.5c-0.8,0.1-1.4,0.2-1.8,0.3c-0.4,0.1-0.6,0.3-0.7,0.5
		c-0.1,0.2-0.1,0.5-0.1,1v14.4h-2V33.1z"/>
	<path class="st0" d="M263.7,32.3c-0.1-0.3-0.2-0.5-0.3-0.6c-0.1-0.1-0.3-0.2-0.6-0.2c-0.3,0-0.7-0.1-1.4-0.1h0v-1.5h8.1v1.5
		c-0.8,0-1.4,0.1-1.7,0.1c-0.3,0-0.5,0.1-0.5,0.2c-0.1,0.1,0,0.3,0.1,0.5l4,13h-0.6l5-14.8h1.2l5.4,14.8l-0.6,0l3.4-12.2
		c0.1-0.4,0.2-0.8,0.1-1c-0.1-0.2-0.3-0.4-0.7-0.5c-0.4-0.1-1-0.2-1.9-0.3v-1.5h7.4v1.5c-0.7,0.1-1.1,0.2-1.5,0.3
		c-0.3,0.1-0.6,0.3-0.7,0.5c-0.2,0.2-0.3,0.5-0.4,1c0,0,0,0,0,0c0,0,0,0,0,0l-5.1,15.5h-1.9l-4.9-13.3h0.5l-4.6,13.3h-1.9
		L263.7,32.3z"/>
	<path class="st0" d="M294.5,48.6h-3.2v-1.4c0,0,0.1,0,0.1,0c0,0,0.1,0,0.1,0c0.8,0,1.4-0.1,1.6-0.1c0.3,0,0.4-0.1,0.5-0.2
		c0.1-0.1,0.1-0.2,0.1-0.5V32.1c0-0.2,0-0.4-0.1-0.5c-0.1-0.1-0.3-0.1-0.5-0.2c-0.3,0-0.9-0.1-1.7-0.1h0h0v-1.5h3.2h2.4v18.7H294.5z
		 M302.5,39.9l-6.6-0.2v-1.8l6.6-0.2V39.9z M305,36c-0.3-1.4-0.5-2.4-0.6-3c-0.2-0.6-0.3-1-0.5-1.1c-0.2-0.2-0.4-0.2-0.8-0.2h-7.2
		v-1.8h10.8V36H305z M296.1,48.6v-1.8h7.4c0.3,0,0.6-0.1,0.8-0.3c0.2-0.2,0.4-0.6,0.5-1.2c0.2-0.6,0.4-1.7,0.6-3.1c0,0,0,0,0,0
		c0,0,0,0,0,0h1.7l0.1,6.4H296.1z"/>
	<path class="st0" d="M313.4,48.6h-3.2v-1.4c0,0,0.1,0,0.1,0c0,0,0.1,0,0.1,0c0.8,0,1.4-0.1,1.6-0.1c0.3,0,0.4-0.1,0.5-0.2
		c0.1-0.1,0.1-0.2,0.1-0.5V32.1c0-0.2,0-0.4-0.1-0.5c-0.1-0.1-0.3-0.1-0.5-0.2c-0.3,0-0.9-0.1-1.7-0.1h0h0v-1.5h3.2h2.4v18.7H313.4z
		 M321.3,39.9l-6.6-0.2v-1.8l6.6-0.2V39.9z M323.9,36c-0.3-1.4-0.5-2.4-0.6-3c-0.2-0.6-0.3-1-0.5-1.1c-0.2-0.2-0.4-0.2-0.8-0.2h-7.2
		v-1.8h10.8V36H323.9z M315,48.6v-1.8h7.4c0.3,0,0.6-0.1,0.8-0.3c0.2-0.2,0.4-0.6,0.5-1.2c0.2-0.6,0.4-1.7,0.6-3.1c0,0,0,0,0,0
		c0,0,0,0,0,0h1.7l0.1,6.4H315z"/>
	<path class="st0" d="M332.3,48.6h-3.2v-1.4c0,0,0.1,0,0.1,0c0,0,0.1,0,0.1,0c0.8,0,1.4-0.1,1.6-0.1c0.3,0,0.5-0.1,0.5-0.2
		c0.1-0.1,0.1-0.2,0.1-0.5V32.1c0-0.2,0-0.4-0.1-0.5c-0.1-0.1-0.3-0.1-0.5-0.2c-0.3,0-0.9-0.1-1.7-0.1h0h0v-1.5h3.2h1.7h3.2v1.5
		c0,0-0.1,0-0.1,0c0,0-0.1,0-0.1,0c-0.8,0-1.4,0.1-1.6,0.1c-0.3,0-0.5,0.1-0.5,0.2c-0.1,0.1-0.1,0.2-0.1,0.5v14.2
		c0,0.2,0,0.4,0.1,0.5c0.1,0.1,0.3,0.1,0.5,0.2c0.3,0,0.9,0.1,1.7,0.1h0h0v1.4H334H332.3z M333.8,42.1l-0.3-1.8l7.9-7.4
		c0.4-0.3,0.6-0.6,0.6-0.8c0-0.2-0.1-0.3-0.4-0.4c-0.3-0.1-0.9-0.2-1.8-0.3v-1.5h7.9v1.5c0,0,0,0-0.1,0c0,0,0,0-0.1,0
		c-0.5,0-1,0.1-1.3,0.2c-0.3,0.1-0.6,0.2-0.9,0.4c-0.3,0.2-0.6,0.5-1.1,0.9L333.8,42.1z M344,48.6l-7.8-9.7l2.2-1.9l5.8,7
		c0.4,0.4,0.7,0.8,1,1.2c0.3,0.4,0.6,0.7,0.9,1c0.3,0.3,0.5,0.5,0.7,0.8c0.2,0.3,0.5,0.5,0.7,0.8v0.9H344z"/>
	<path class="st0" d="M11,78.4c-0.5,0-1-0.1-1.4-0.3c-0.4-0.2-0.8-0.4-1.2-0.6c-0.3-0.2-0.7-0.6-1.2-1c-0.4-0.4-0.8-0.6-1-0.9
		c-0.3-0.2-0.6-0.4-0.9-0.5c-0.3-0.1-0.7-0.2-1-0.2c-0.4,0-0.8,0.1-1.1,0.4C3,75.6,2.8,76,2.8,76.5c0,0.5,0.1,1,0.3,1.6H0
		c0-1.5,0.3-2.7,0.8-3.7c0.5-1,1.2-1.9,1.9-2.5c0.8-0.6,1.8-1.3,3-2.1c1-0.6,1.8-1.2,2.4-1.6c0.6-0.5,1.1-1,1.4-1.6
		c0.4-0.6,0.6-1.4,0.6-2.2c0-0.7-0.1-1.2-0.4-1.7s-0.6-0.8-1.1-1.1C8.2,61.2,7.7,61,7,61c-0.7,0-1.3,0.2-1.8,0.5
		c-0.5,0.3-0.9,0.8-1.1,1.4c-0.3,0.6-0.5,1.3-0.6,2l-3.1-0.8c0.1-1.1,0.5-2,1.2-2.8C2.2,60.7,3,60.1,4,59.7c1-0.4,2-0.6,3.1-0.6
		c1.4,0,2.5,0.2,3.5,0.7c1,0.5,1.7,1.1,2.2,2c0.5,0.8,0.8,1.8,0.8,2.8c0,1.1-0.3,2.1-0.9,2.9c-0.6,0.8-1.3,1.4-2.1,1.9
		c-0.8,0.5-1.9,1-3.2,1.6c-0.9,0.4-1.7,0.8-2.3,1.1c-0.6,0.3-1.1,0.6-1.5,1c-0.5,0.4-0.8,0.9-0.9,1.4l-0.3-0.1
		C2.7,74.3,3,74.1,3.3,74c0.3-0.1,0.6-0.2,0.9-0.3c0.3-0.1,0.6-0.1,0.9-0.1c0.4,0,0.8,0,1.3,0.1c0.4,0.1,0.8,0.2,1.2,0.3
		s0.8,0.2,1.3,0.4c0.4,0.1,0.7,0.3,1,0.3c0.3,0.1,0.6,0.2,0.8,0.2c0.3,0.1,0.5,0.1,0.8,0.1c0.4,0,0.7-0.1,1-0.2
		c0.3-0.1,0.6-0.3,0.9-0.6c0.3-0.3,0.5-0.7,0.6-1.2h0.5c-0.1,1.2-0.3,2.2-0.6,2.9c-0.3,0.8-0.6,1.3-1.1,1.7
		C12.4,78.2,11.8,78.4,11,78.4"/>
	<path class="st0" d="M24.8,78.5c-1.5,0-2.9-0.4-4.1-1.3c-1.2-0.8-2.2-2-2.9-3.5c-0.7-1.5-1-3.1-1-5c0-1.8,0.4-3.5,1.1-5
		c0.7-1.5,1.7-2.6,2.9-3.5c1.2-0.8,2.6-1.3,4.1-1.3c1.5,0,2.9,0.4,4.1,1.2c1.2,0.8,2.2,2,2.9,3.5c0.7,1.5,1,3.1,1,5
		c0,1.8-0.4,3.5-1.1,5c-0.7,1.5-1.7,2.6-2.9,3.5C27.6,78,26.3,78.5,24.8,78.5 M24.8,76.5c0.9,0,1.8-0.3,2.5-0.9
		c0.7-0.6,1.2-1.5,1.6-2.7c0.4-1.2,0.6-2.5,0.6-4.1s-0.2-2.9-0.5-4.1c-0.4-1.2-0.9-2-1.6-2.7c-0.7-0.6-1.5-0.9-2.5-0.9
		c-0.9,0-1.8,0.3-2.5,0.9c-0.7,0.6-1.2,1.5-1.6,2.7c-0.4,1.2-0.6,2.5-0.6,4.1c0,1.6,0.2,2.9,0.5,4.1c0.4,1.2,0.9,2.1,1.6,2.7
		C23,76.2,23.8,76.5,24.8,76.5"/>
	<path class="st0" d="M46.1,78.4c-0.5,0-1-0.1-1.4-0.3c-0.4-0.2-0.8-0.4-1.2-0.6c-0.3-0.2-0.7-0.6-1.2-1c-0.4-0.4-0.8-0.6-1-0.9
		c-0.3-0.2-0.6-0.4-0.9-0.5c-0.3-0.1-0.7-0.2-1-0.2c-0.4,0-0.8,0.1-1.1,0.4c-0.3,0.3-0.4,0.7-0.4,1.2c0,0.5,0.1,1,0.3,1.6H35
		c0-1.5,0.3-2.7,0.8-3.7c0.5-1,1.2-1.9,1.9-2.5c0.8-0.6,1.8-1.3,3-2.1c1-0.6,1.8-1.2,2.4-1.6c0.6-0.5,1.1-1,1.4-1.6
		c0.4-0.6,0.6-1.4,0.6-2.2c0-0.7-0.1-1.2-0.4-1.7c-0.2-0.5-0.6-0.8-1.1-1.1c-0.5-0.3-1-0.4-1.6-0.4c-0.7,0-1.3,0.2-1.8,0.5
		c-0.5,0.3-0.9,0.8-1.1,1.4c-0.3,0.6-0.5,1.3-0.6,2l-3.1-0.8c0.1-1.1,0.5-2,1.2-2.8c0.6-0.8,1.4-1.4,2.4-1.7c1-0.4,2-0.6,3.1-0.6
		c1.4,0,2.5,0.2,3.5,0.7c1,0.5,1.7,1.1,2.2,2c0.5,0.8,0.8,1.8,0.8,2.8c0,1.1-0.3,2.1-0.9,2.9c-0.6,0.8-1.3,1.4-2.1,1.9
		c-0.8,0.5-1.9,1-3.2,1.6c-0.9,0.4-1.7,0.8-2.3,1.1c-0.6,0.3-1.1,0.6-1.5,1c-0.5,0.4-0.8,0.9-0.9,1.4l-0.3-0.1
		c0.3-0.2,0.5-0.3,0.8-0.4c0.3-0.1,0.6-0.2,0.9-0.3c0.3-0.1,0.6-0.1,0.9-0.1c0.4,0,0.8,0,1.3,0.1c0.4,0.1,0.8,0.2,1.2,0.3
		c0.4,0.1,0.8,0.2,1.3,0.4c0.4,0.1,0.7,0.3,1,0.3c0.3,0.1,0.6,0.2,0.8,0.2c0.3,0.1,0.5,0.1,0.8,0.1c0.4,0,0.7-0.1,1-0.2
		c0.3-0.1,0.6-0.3,0.9-0.6c0.3-0.3,0.5-0.7,0.6-1.2h0.5c-0.1,1.2-0.3,2.2-0.6,2.9c-0.3,0.8-0.7,1.3-1.1,1.7
		C47.4,78.2,46.8,78.4,46.1,78.4"/>
	<path class="st0" d="M62.5,78.4c-0.5,0-1-0.1-1.4-0.3c-0.4-0.2-0.8-0.4-1.2-0.6s-0.7-0.6-1.2-1c-0.4-0.4-0.8-0.6-1-0.9
		c-0.3-0.2-0.6-0.4-0.9-0.5c-0.3-0.1-0.7-0.2-1-0.2c-0.4,0-0.8,0.1-1.1,0.4c-0.3,0.3-0.4,0.7-0.4,1.2c0,0.5,0.1,1,0.3,1.6h-3.1
		c0-1.5,0.3-2.7,0.8-3.7c0.5-1,1.2-1.9,1.9-2.5c0.8-0.6,1.8-1.3,3-2.1c1-0.6,1.8-1.2,2.4-1.6c0.6-0.5,1.1-1,1.4-1.6
		c0.4-0.6,0.6-1.4,0.6-2.2c0-0.7-0.1-1.2-0.4-1.7s-0.6-0.8-1.1-1.1c-0.5-0.3-1-0.4-1.6-0.4c-0.7,0-1.3,0.2-1.8,0.5
		c-0.5,0.3-0.9,0.8-1.1,1.4c-0.3,0.6-0.5,1.3-0.6,2l-3.1-0.8c0.1-1.1,0.5-2,1.2-2.8c0.6-0.8,1.4-1.4,2.4-1.7c1-0.4,2-0.6,3.1-0.6
		c1.4,0,2.5,0.2,3.5,0.7c1,0.5,1.7,1.1,2.2,2c0.5,0.8,0.8,1.8,0.8,2.8c0,1.1-0.3,2.1-0.9,2.9c-0.6,0.8-1.3,1.4-2.1,1.9
		c-0.8,0.5-1.9,1-3.2,1.6c-0.9,0.4-1.7,0.8-2.3,1.1c-0.6,0.3-1.1,0.6-1.5,1c-0.4,0.4-0.8,0.9-0.9,1.4l-0.3-0.1
		c0.3-0.2,0.5-0.3,0.8-0.4c0.3-0.1,0.6-0.2,0.9-0.3c0.3-0.1,0.6-0.1,0.9-0.1c0.4,0,0.8,0,1.3,0.1c0.4,0.1,0.8,0.2,1.2,0.3
		s0.8,0.2,1.3,0.4c0.4,0.1,0.7,0.3,1,0.3c0.3,0.1,0.6,0.2,0.8,0.2c0.3,0.1,0.5,0.1,0.8,0.1c0.4,0,0.7-0.1,1-0.2
		c0.3-0.1,0.6-0.3,0.9-0.6c0.3-0.3,0.5-0.7,0.6-1.2h0.5c-0.1,1.2-0.3,2.2-0.6,2.9c-0.3,0.8-0.7,1.3-1.1,1.7
		C63.9,78.2,63.3,78.4,62.5,78.4"/>
</g>
</svg>
