<?xml version="1.0" encoding="utf-8"?>
<!-- Generator: Adobe Illustrator 21.1.0, SVG Export Plug-In . SVG Version: 6.00 Build 0)  -->
<svg version="1.1" id="Layer_1" xmlns="http://www.w3.org/2000/svg" xmlns:xlink="http://www.w3.org/1999/xlink" x="0px" y="0px"
	 viewBox="0 0 347.8 78.5" style="enable-background:new 0 0 347.8 78.5;" xml:space="preserve">
<style type="text/css">
	.st0{fill:#FFFFFF;}
</style>
<g>
	<g>
		<path class="st0" d="M18.8,11.4V7.7C16.1,8.1,10.9,8.2,9,8.2c-1.8,0-2,0-2-0.4c0-0.2,0.1-0.4,0.4-0.4c7-0.3,16.1-1.1,21.1-3.7
			l1.8,1.1c0.2,0.1,0.4,0.3,0.4,0.5c0,0.2-0.2,0.5-0.6,0.5c0,0-0.8-0.1-1-0.1c-2.6,0.8-5.4,1.4-8.5,1.9v3.9h10.9l2.2-1.9l2.2,1.7
			c0.2,0.1,0.3,0.3,0.3,0.6c0,0.5-0.4,0.7-0.8,0.7h-14c4.5,5.1,10.7,7.1,14.4,7.8c0.2,0,0.3,0.2,0.3,0.3s-0.2,0.4-0.6,0.5
			s-0.6,0.4-0.7,0.7c-0.1,0.2-0.2,0.4-0.4,0.4c0,0,0,0-0.1,0c-6.3-2.1-10.6-5.6-13.7-9.8V21c0,0.5-1.3,0.6-1.3,0.6
			c-0.3,0-0.4-0.2-0.4-0.6v-8.5h-0.1c-3.4,6.8-14.3,10-14.8,10c-0.2,0-0.3-0.1-0.3-0.4c0-0.1,0.1-0.2,0.2-0.4c4.4-1.4,10.6-5,13-9.3
			H4.4l-0.3-1.1H18.8z M26.8,21.9l0.9-0.9l1.6,1.1c0.1,0.1,0.2,0.2,0.2,0.4c0,0,0,0.4-0.6,0.6c-0.2,0.1-0.4,0.2-0.4,0.4v12.4
			c0,0.2-0.1,0.4-0.4,0.5c-1.1,0.3-1.4,0.4-1.4-0.5v-1.8H12.2v1.6c0,0.2-0.1,0.4-0.4,0.5c-1.1,0.3-1.3,0.3-1.3-0.5V20.8l1.5,1.1
			H26.8z M12.2,22.9v4.3h14.7v-4.3H12.2z M12.2,28.3v4.6h14.7v-4.6H12.2z"/>
		<path class="st0" d="M54,26.9v5.6c0,0.6,0.4,0.7,0.9,0.7h9.9c0.5,0,0.8-0.2,1-0.4c0.4-0.4,0.8-1.1,1.1-1.9l0.6-2.2
			c0-0.2,0.2-0.2,0.4-0.2c0.2,0,0.2,0.1,0.2,0.3l-0.4,2.4c-0.1,0.4-0.1,0.7-0.1,0.9c0,0.3,0.1,0.5,0.1,0.6c0.3,0.1,0.5,0.4,0.5,0.7
			c0,0.6-0.5,1.4-1.4,1.4h-13c-0.7,0-1.6-0.3-1.6-1.7V20.5c-3,3.3-6.5,4.5-6.6,4.5c-0.2,0-0.3-0.2-0.3-0.3c0-0.1,0.1-0.2,0.2-0.3
			c0.6-0.3,5.2-2.7,7.3-7.9h-6.2l-0.1-0.3l-3.5,9.7l-0.4,1.8c0,0.9,0.3,2.2,0.7,3.6c0.3,0.9,0.5,1.7,0.5,2.4c0,0.7-0.1,1.9-1.1,1.9
			c-1,0-1.3-1.2-1.3-2.7c0-0.4,0.1-2.4,0.1-2.8c0-1-0.1-1.8-0.3-2.5c-0.1-0.4-1-0.6-2.6-0.8c-0.2-0.1-0.3-0.2-0.3-0.4
			c0-0.2,0.2-0.2,0.4-0.2c0.3,0,0.6,0,0.8,0c0.9,0,1.9,0,2.4-1.4l5.8-14.1c0.1-0.1,0.2-0.2,0.4-0.2c0.4,0,0.4,0.2,0.3,0.5l-1.7,4.4
			h6.2V9.6h-4.2l-0.3-1.1h4.5V3.9l1.8,0.4c0.5,0.1,0.8,0.3,0.8,0.6s-0.2,0.5-0.5,0.5c-0.2,0.1-0.4,0.3-0.4,0.6v2.6h6.1V3.8l1.8,0.4
			c0.6,0.1,0.8,0.3,0.8,0.6s-0.2,0.5-0.5,0.5c-0.3,0.1-0.4,0.3-0.4,0.6v2.8h2.8l2-1.6l1.8,1.4c0.2,0.1,0.3,0.3,0.3,0.6
			c0,0.5-0.4,0.7-0.8,0.7h-6.2v5.8h3.9l2.2-1.8l2.2,1.7c0.2,0.1,0.3,0.3,0.3,0.5c0,0.4-0.3,0.7-0.8,0.7h-8c1.7,2,4.3,4.5,8.9,5.5
			c0.2,0,0.4,0.1,0.4,0.2c0,0.1-0.2,0.3-0.6,0.4c-0.4,0.1-0.7,0.4-0.8,0.7c-0.1,0.3-0.2,0.4-0.4,0.4c0,0-0.1,0-0.1,0
			c-4.7-2.2-6.9-5.2-8.3-7.3h-6.5l-1.8,3.1l1.2,0.8h7.3l0.8-1.2l1.4,1c0.2,0.1,0.2,0.4,0.2,0.6c0,0.2-0.1,0.4-0.4,0.5
			c-0.2,0.1-0.4,0.2-0.4,0.4v7c0,0.4-0.1,0.5-1.3,0.8c-0.3,0-0.5-0.2-0.5-0.8v-1.6H54z M41.9,17.4c-0.6-2.2-1.8-3.9-2.6-4.4
			c-0.1-0.1-0.1-0.1-0.1-0.2c0-0.1,0-0.3,0.3-0.3c0.3,0,1.3,0.5,2.6,2c1.4,1.6,1.4,1.8,1.4,3.1C43.3,17.8,43,18,42.7,18
			C42.3,18,42,17.7,41.9,17.4z M44.2,9.1c-0.8-2.4-2-3.7-2.8-4.2c-0.1-0.1-0.2-0.2-0.2-0.3c0-0.1,0.1-0.4,0.4-0.4
			c0.7,0,3.6,2.3,4.3,3.9c0,1.1,0,1.5-0.7,1.5C44.7,9.7,44.3,9.4,44.2,9.1z M54,21.4v4.4h7.6v-4.4H54z M54.8,9.6v5.8h6.1V9.6H54.8z"
			/>
		<path class="st0" d="M78.4,9.1l-0.3,1.5c-0.2,0.8-1.1,3.3-2.4,3.3c-0.8,0-0.9-0.8-0.9-1c0-0.2,0.3-0.5,0.7-0.9
			c1-0.9,2.4-2.4,2.5-5.3c0-0.1,0.1-0.2,0.3-0.2c0.1,0,0.3,0.1,0.3,0.2V8h10.8V3.7L91.1,4c0.6,0.1,0.8,0.3,0.8,0.6
			c0,0.3-0.1,0.5-0.4,0.6c-0.3,0.1-0.4,0.3-0.4,0.5V8h11.7l1.1-1.2l1.3,1.6c0.2,0.2,0.4,0.4,0.4,0.7c0,0.1-0.1,0.7-0.7,0.7l-0.5-0.1
			c-0.2,0-0.5,0.1-0.6,0.2l-2.5,2.7c0.8,0.6,0.9,0.7,0.9,1c0,0.5-0.2,0.7-0.8,0.7h-13c-0.5,1.1-1.1,2.3-1.8,3.6l-2,2.8l3-0.2
			c3.8-0.5,7.2-1.2,10.2-1.9c-1.1-1.1-2-1.8-2.9-2.1c-0.1,0-0.2-0.1-0.2-0.2c0-0.1,0-0.4,0.4-0.4c0.9,0,7,3.8,7,6.3
			c0,0.6-0.5,0.8-0.8,0.8c-0.5,0-0.7-0.4-0.8-0.5c-0.6-1.2-1.3-2.3-2-3.1c-6.8,2.2-14.7,3.1-17.9,3.2c-0.1,0-0.3,0.2-0.4,0.6
			c0,0.4-0.2,0.5-0.5,0.5c-0.3,0-0.6-0.2-0.6-0.6L78.6,22l-0.2-1.3l1.8,0.2h3.5c0.6-1.1,1.2-2.3,1.7-3.8l0.9-2.7h-6.8l-0.3-1.1h18.2
			l2.2-1.9l1,0.8c0.8-1.1,1.4-2.1,1.8-3.2H78.4z M75.2,35.3L75,34.3h14.2v-6.1h-9.8l-0.3-1.1h10.1v-4.3l1.8,0.4
			c0.6,0.1,0.8,0.3,0.8,0.6s-0.2,0.5-0.5,0.5c-0.3,0.1-0.4,0.3-0.4,0.6v2.2h6.9l2.2-1.9l2.2,1.7c0.2,0.1,0.3,0.3,0.3,0.5
			c0,0.5-0.4,0.7-0.8,0.7H90.9v6.1h10.2l2.2-1.9l2.2,1.7c0.2,0.1,0.3,0.3,0.3,0.5c0,0.4-0.3,0.7-0.8,0.7H75.2z"/>
		<path class="st0" d="M112,9.2l1.8,1.5h11.7c-0.3-1.5-0.5-3.2-0.6-4.9H118l-0.2-1.1h7.2l0.7-1.1l1.2,1c0.2,0.2,0.4,0.4,0.4,0.6
			c0,0.1-0.1,0.6-0.7,0.7c-0.4,0.1-0.6,0.2-0.6,0.5c0.1,1.4,0.4,2.8,0.7,4.1h10.3l0.8-1l1.4,1.2c0.3,0.2,0.5,0.4,0.5,0.7
			c0,0.3-0.2,0.5-0.5,0.6c-0.3,0.1-0.4,0.3-0.4,0.4v21.6c0,1.3-1.4,1.8-3.2,2.1c-0.1-0.3-0.3-0.6-0.6-1c-0.3-0.3-1.3-0.7-3-1.1
			c-0.2-0.1-0.4-0.2-0.4-0.4c0-0.2,0.1-0.2,0.3-0.2h0.1c1.5,0.2,2.7,0.3,3.5,0.3c0.8,0,1.5,0,1.5-0.9V11.7h-10l0.6,2.4
			c1.7,5.4,5.5,9,8.5,10.3l0.2,0.3c0,0.1-0.3,0.2-0.8,0.3c-0.5,0.1-0.9,0.4-1.2,0.7c-0.1,0.4-0.3,0.5-0.5,0.5
			c-0.2,0-3.1-2.3-4.6-4.8c-1.6-2.4-2.4-5-3.1-7.2c-1.4,3.7-2.7,6-6,8.9c-2.6,2.2-4.8,3.1-5,3.1c-0.2,0-0.3-0.2-0.3-0.3
			c0-0.1,0.1-0.2,0.2-0.2c1.9-1.2,3.4-2.5,4.6-3.7c2.1-2.2,4-5.2,5.1-8.5l0.5-1.7h-11.5v24c0,0.4-0.4,0.5-1.4,0.8
			c-0.2,0-0.3-0.3-0.3-0.8V9.2z"/>
		<path class="st0" d="M153,9.9l2.2-1.9l2.2,1.7c0.2,0.1,0.2,0.4,0.2,0.6c0,0.5-0.5,0.7-0.8,0.7h-12.4l-0.2-1.1H153z M145.6,23.6
			l1.3,0.9h5.9l0.9-0.9l1.6,1.1c0.1,0.1,0.2,0.2,0.2,0.4c0,0.2-0.1,0.5-0.6,0.6c-0.3,0.1-0.4,0.2-0.4,0.4v8.7c0,0.2-0.1,0.4-0.4,0.5
			c-1.1,0.3-1.4,0.3-1.4-0.5v-1.5h-5.5v2.2c0,0.2-0.1,0.4-0.4,0.5c-1.2,0.2-1.3,0.3-1.3-0.6V23.6z M151.7,5.3l2.2-1.8l2.2,1.7
			c0.1,0.1,0.2,0.3,0.2,0.5c0,0.4-0.2,0.7-0.8,0.7H146l-0.2-1.1H151.7z M151.3,14.6l2.2-1.9l2.2,1.7c0.2,0.1,0.3,0.3,0.3,0.6
			c0,0.5-0.4,0.7-0.8,0.7H146l-0.2-1.1H151.3z M151.2,19.7l2.2-1.9l2.2,1.7c0.2,0.1,0.3,0.3,0.3,0.5c0,0.4-0.3,0.7-0.8,0.7H146
			l-0.2-1.1H151.2z M147.3,32h5.5v-6.5h-5.5V32z M170.7,19.6l1.2-0.5l1.4,1.2c0.2,0.2,0.3,0.4,0.3,0.6c0,0.4-0.4,0.6-0.7,0.6
			c-0.3,0-0.5,0.1-0.6,0.3c-1,2.4-2.3,4.5-3.9,6.5l-1.2,1.4l1.8,1.4c2,1.4,4.6,2.3,7.7,2.9c0.1,0,0.2,0.1,0.2,0.2
			c0,0.1-0.3,0.2-0.8,0.3c-0.5,0.1-0.8,0.4-1,0.8c-0.2,0.5-0.4,0.7-0.5,0.7h0c-2.7-0.8-5-2.1-6.7-3.7l-1.6-1.6
			c-2.8,2.5-6.3,4.2-10.2,5h-0.1c-0.2,0-0.3-0.1-0.3-0.4c0-0.1,0-0.2,0.1-0.2c3.6-1,6.7-3,9.4-5.5c-2.5-3.1-3.7-6.3-4.5-8.9H158
			l-0.2-1.1H170.7z M163,6.4c0,1.5,0,3.9-0.6,6c-1.1,4.2-4.8,6.1-5.1,6.1c-0.2,0-0.4-0.2-0.4-0.3s0.1-0.2,0.2-0.3
			c2.6-2,4.1-4.4,4.1-10.9V4.2l1.8,1.1h5.3l0.9-1.1l1.5,1.1c0.2,0.2,0.3,0.4,0.3,0.6c0,0.2-0.2,0.6-0.6,0.6
			c-0.3,0.1-0.4,0.3-0.4,0.5v6.6c0,1.2,0.5,1.5,1.8,1.5c1.9,0,2.1-0.3,2.4-1.6l0.4-2.1c0-0.2,0.2-0.3,0.4-0.3c0.2,0,0.3,0.1,0.3,0.4
			l-0.1,2.2l0.1,0.9l0.4,0.5c0.2,0.1,0.3,0.4,0.3,0.7c0,0.4-0.2,0.6-0.7,0.8l-1.2,0.2h-2c-2.5,0-3.9-0.7-3.8-2.8V6.4H163z
			 M161.4,20.6c0.8,2.4,2.1,5.3,4.7,8l1.3-1.5c1.9-2.6,3.2-5.7,3.4-6.5H161.4z"/>
		<path class="st0" d="M188.5,10.4l2.2-1.9l2.2,1.7c0.2,0.1,0.3,0.3,0.3,0.6c0,0.5-0.4,0.7-0.8,0.7h-13l-0.3-1.1H188.5z M180.6,24
			l1.5,1.1h7l0.8-1.2l1.4,1c0.2,0.1,0.2,0.4,0.2,0.6c0,0.2-0.2,0.4-0.4,0.5c-0.2,0.1-0.4,0.2-0.4,0.4v9.6c0,0.4-0.1,0.5-1.3,0.8
			c-0.3,0-0.5-0.2-0.5-0.8v-1.9h-6.7v1.8c0,0.2-0.1,0.3-0.4,0.5c-1.1,0.3-1.3,0.3-1.3-0.5V24z M186.9,20.1l2.2-1.8l2.2,1.7
			c0.1,0.1,0.2,0.3,0.2,0.5c0,0.4-0.2,0.7-0.8,0.7h-9.9l-0.3-1.1H186.9z M187,15.2l2.2-1.9l2.2,1.7c0.2,0.1,0.3,0.3,0.3,0.5
			c0,0.4-0.3,0.7-0.8,0.7h-9.9l-0.3-1.1H187z M187.2,5.5l2.2-1.9l2.2,1.7c0.2,0.1,0.3,0.3,0.3,0.6c0,0.5-0.4,0.7-0.8,0.7h-10.1
			l-0.2-1.1H187.2z M182.3,32.9h6.7v-6.8h-6.7V32.9z M201,17h-7.8L193,16h8V3.4l2,0.3c0.5,0,0.8,0.2,0.8,0.5s-0.2,0.6-0.5,0.7
			c-0.3,0.1-0.5,0.4-0.5,0.6V16h4.4l2.2-1.9l2.2,1.7c0.2,0.1,0.2,0.3,0.2,0.5c0,0.5-0.2,0.7-0.8,0.7h-8.3v18.7
			c0,0.6-1.1,0.8-1.4,0.8s-0.4-0.1-0.4-0.3V17z"/>
		<path class="st0" d="M241.8,6.2h-20.6v5.2c0,8.8-0.8,15-2.8,19.4c-0.6,1.2-2.4,4.8-3.1,4.8c-0.2,0-0.2-0.2-0.2-0.3
			c0-0.1,0-0.1,0.1-0.2c2.4-3.9,4.3-8.6,4.3-23.7V3.8l1.8,1.4h20.6l0.9-1l1.7,1.3c0.2,0.1,0.3,0.3,0.3,0.6c0,0.1,0,0.5-0.6,0.8
			c-0.4,0.1-0.5,0.3-0.5,0.5v26.3c0,0.2,0,1.9-3.8,2.2c0-1.2-1.1-1.7-2.6-2.1c-0.2-0.1-0.4-0.2-0.4-0.4c0-0.2,0.1-0.3,0.4-0.3h0.1
			c1.6,0.2,2.7,0.4,3.4,0.4c0.6,0,1.1-0.1,1.1-0.8V6.2z M222.9,18.3l-0.3-1.1h7.8v-4.8h-6.8l-0.2-1.1h7.1V7.4l1.8,0.4
			c0.5,0.1,0.8,0.3,0.8,0.5c0,0.3-0.2,0.5-0.5,0.6c-0.2,0.1-0.4,0.3-0.4,0.6v1.9h3.5l1.9-1.9l1.8,1.7c0.2,0.1,0.2,0.4,0.2,0.6
			c0,0.5-0.4,0.7-0.7,0.7h-6.7v4.8h4.3l1.9-1.9l1.8,1.7c0.2,0.1,0.2,0.4,0.2,0.6c0,0.4-0.3,0.7-0.7,0.7H222.9z M225.6,20.5l1.3,0.9
			h8l0.8-1.2l1.4,1c0.2,0.1,0.3,0.4,0.3,0.6c0,0.2-0.2,0.4-0.4,0.5c-0.2,0.1-0.3,0.2-0.3,0.4v8.2c0,0.5-0.2,0.5-1.3,0.8
			c-0.2,0-0.4-0.2-0.4-0.8v-1.5h-7.6V31c0,0.2-0.1,0.4-0.4,0.5c-1.2,0.2-1.3,0.3-1.3-0.6V20.5z M227.3,22.6v5.8h7.6v-5.8H227.3z"/>
	</g>
	<g>
		<path class="st0" d="M24.1,64.5c-0.4,5-1.9,7.4-5,7.4c-4.3,0-6.1-4.8-9.5-4.8C7.7,67,7,69,8,71.5H3.6c0-12.2,14.2-11.1,14.2-19.5
			c0-2.8-1.6-4.5-4.3-4.5S9.2,49.4,8.6,53l-4.4-1.1c0.3-2.3,1.4-4,3.1-5.3c1.8-1.3,3.8-1.9,6.2-1.9c5.7,0,9.1,3.2,9.1,7.7
			c0.1,5-4.7,7.3-8.7,9c-2.8,1.2-5.6,2.7-6.4,4.5c1-0.5,2.1-0.8,3.2-0.8c1.3,0,2.9,0.3,4.9,1c2,0.7,3.4,1,4.1,1c1.8,0,3-0.9,3.6-2.7
			H24.1z"/>
		<path class="st0" d="M30.3,68.1c-2.2-2.6-3.2-5.8-3.2-9.8c0-3.9,1.1-7.2,3.3-9.7c2.2-2.6,4.9-3.9,8.1-3.9c3.3,0,5.9,1.3,8.1,3.8
			c2.1,2.6,3.2,5.8,3.2,9.8c0,3.9-1.1,7.2-3.3,9.7c-2.2,2.6-4.9,3.9-8,3.9C35.2,72,32.5,70.6,30.3,68.1z M44.9,58.3
			c0-6.7-2.4-10.8-6.4-10.8c-4,0-6.5,4.2-6.5,10.8c0,6.7,2.4,10.8,6.5,10.8C42.5,69.1,44.9,65,44.9,58.3z"/>
		<path class="st0" d="M73.3,64.5c-0.4,5-1.9,7.4-5,7.4c-4.3,0-6.1-4.8-9.5-4.8c-1.9,0-2.6,2-1.6,4.4h-4.4C52.8,59.3,67,60.4,67,52
			c0-2.8-1.6-4.5-4.3-4.5s-4.4,1.8-4.9,5.5l-4.4-1.1c0.3-2.3,1.4-4,3.1-5.3c1.8-1.3,3.8-1.9,6.2-1.9c5.7,0,9.1,3.2,9.1,7.7
			c0.1,5-4.7,7.3-8.7,9c-2.8,1.2-5.6,2.7-6.4,4.5c1-0.5,2.1-0.8,3.2-0.8c1.3,0,2.9,0.3,4.9,1c2,0.7,3.4,1,4.1,1c1.8,0,3-0.9,3.6-2.7
			H73.3z"/>
		<path class="st0" d="M96.3,64.5c-0.4,5-1.9,7.4-5,7.4c-4.3,0-6.1-4.8-9.5-4.8c-1.9,0-2.6,2-1.6,4.4h-4.4
			c0-12.2,14.2-11.1,14.2-19.5c0-2.8-1.6-4.5-4.3-4.5c-2.7,0-4.4,1.8-4.9,5.5l-4.4-1.1c0.3-2.3,1.4-4,3.1-5.3
			c1.8-1.3,3.8-1.9,6.2-1.9c5.7,0,9.1,3.2,9.1,7.7c0.1,5-4.7,7.3-8.7,9c-2.8,1.2-5.6,2.7-6.4,4.5c1-0.5,2.1-0.8,3.2-0.8
			c1.3,0,2.9,0.3,4.9,1c2,0.7,3.4,1,4.1,1c1.8,0,3-0.9,3.6-2.7H96.3z"/>
	</g>
</g>
</svg>
