<?xml version="1.0" encoding="utf-8"?>
<!-- Generator: Adobe Illustrator 21.1.0, SVG Export Plug-In . SVG Version: 6.00 Build 0)  -->
<svg version="1.1" id="Layer_1" xmlns="http://www.w3.org/2000/svg" xmlns:xlink="http://www.w3.org/1999/xlink" x="0px" y="0px"
	 viewBox="0 0 144.6 24.3" style="enable-background:new 0 0 144.6 24.3;" xml:space="preserve">
<style type="text/css">
	.st0{fill:#FFFFFF;}
</style>
<g>
	<g>
		<polygon class="st0" points="1.8,16.4 1.8,15.2 2.2,15.2 2.2,17.9 1.8,17.9 1.8,16.6 0.5,16.6 0.5,17.9 0.2,17.9 0.2,15.2 
			0.5,15.2 0.5,16.4 		"/>
		<path class="st0" d="M5.5,16.6c0,0.8-0.6,1.4-1.4,1.4s-1.4-0.6-1.4-1.4s0.7-1.4,1.4-1.4C4.8,15.1,5.5,15.9,5.5,16.6 M5.1,16.6
			c0-0.6-0.5-1.1-1.1-1.1S2.9,16,2.9,16.6s0.5,1.1,1.1,1.1S5.1,17.2,5.1,16.6"/>
		<polygon class="st0" points="5.9,15.1 8,17.2 8,15.2 8.3,15.2 8.3,18.1 6.2,15.9 6.2,17.9 5.9,17.9 		"/>
		<path class="st0" d="M11.4,16.6L11.4,16.6c0,0.9-0.5,1.4-1.3,1.4s-1.4-0.7-1.4-1.4c0-0.8,0.6-1.4,1.4-1.4c0.4,0,0.8,0.2,1.1,0.5
			L11,15.9c-0.2-0.3-0.5-0.4-0.9-0.4C9.5,15.5,9,16,9,16.6s0.5,1.1,1.1,1.1c0.4,0,0.9-0.4,0.9-0.8h-0.7v-0.3
			C10.3,16.6,11.4,16.6,11.4,16.6z"/>
		<polygon class="st0" points="14.5,15.2 14.9,15.2 13.7,16.4 14.9,17.9 14.5,17.9 13.4,16.8 13.3,16.9 13.3,17.9 13,17.9 13,15.2 
			13.3,15.2 13.3,16.4 		"/>
		<path class="st0" d="M17.8,16.6c0,0.8-0.6,1.4-1.4,1.4S15,17.4,15,16.6s0.7-1.4,1.4-1.4C17.1,15.1,17.8,15.9,17.8,16.6 M17.4,16.6
			c0-0.6-0.5-1.1-1.1-1.1s-1.1,0.5-1.1,1.1s0.5,1.1,1.1,1.1S17.4,17.2,17.4,16.6"/>
		<polygon class="st0" points="18.2,15.1 20.3,17.2 20.3,15.2 20.6,15.2 20.6,18.1 18.5,15.9 18.5,17.9 18.2,17.9 		"/>
		<path class="st0" d="M23.7,16.6L23.7,16.6c0,0.9-0.5,1.4-1.3,1.4S21,17.4,21,16.6c0-0.8,0.6-1.4,1.4-1.4c0.4,0,0.8,0.2,1.1,0.5
			L23.3,16c-0.2-0.3-0.5-0.4-0.9-0.4c-0.6,0-1.1,0.5-1.1,1.1s0.5,1.1,1.1,1.1c0.4,0,0.9-0.4,0.9-0.8h-0.7v-0.3
			C22.6,16.6,23.7,16.6,23.7,16.6z"/>
		<rect x="25.2" y="15.2" class="st0" width="0.3" height="2.7"/>
		<polygon class="st0" points="26.2,15.1 28.2,17.2 28.2,15.2 28.6,15.2 28.6,18.1 26.5,15.9 26.5,17.9 26.2,17.9 		"/>
		<polygon class="st0" points="29.9,17.9 29.6,17.9 29.6,15.5 28.9,15.5 28.9,15.2 30.5,15.2 30.5,15.5 29.9,15.5 		"/>
		<polygon class="st0" points="30.9,15.2 32.4,15.2 32.4,15.5 31.2,15.5 31.2,16.4 32.3,16.4 32.3,16.6 31.2,16.6 31.2,17.6 
			32.4,17.6 32.4,17.9 30.9,17.9 		"/>
		<path class="st0" d="M34.6,17.9h-0.4l-0.8-1.2h-0.1v1.2H33v-2.7h0.4c0.2,0,0.5,0,0.7,0.1s0.4,0.4,0.4,0.7c0,0.4-0.3,0.7-0.7,0.8
			L34.6,17.9z M33.2,16.5L33.2,16.5c0.5,0,0.8-0.1,0.8-0.5s-0.4-0.5-0.7-0.5h-0.1V16.5z"/>
		<rect x="34.9" y="15.2" class="st0" width="0.3" height="2.7"/>
		<path class="st0" d="M38.6,16.6c0,0.8-0.6,1.4-1.4,1.4s-1.4-0.6-1.4-1.4s0.7-1.4,1.4-1.4C37.9,15.1,38.6,15.9,38.6,16.6
			 M38.2,16.6c0-0.6-0.5-1.1-1.1-1.1S36,16,36,16.6s0.5,1.1,1.1,1.1C37.7,17.8,38.2,17.2,38.2,16.6"/>
		<path class="st0" d="M40.7,17.9h-0.4l-0.8-1.2h-0.1v1.2H39v-2.7h0.4c0.2,0,0.5,0,0.7,0.1s0.4,0.4,0.4,0.7c0,0.4-0.3,0.7-0.7,0.8
			L40.7,17.9z M39.3,16.5L39.3,16.5c0.5,0,0.8-0.1,0.8-0.5s-0.4-0.5-0.7-0.5h-0.1V16.5z"/>
		<path class="st0" d="M42.1,15.2h0.6c0.8,0,1.5,0.4,1.5,1.4c0,0.9-0.7,1.4-1.6,1.4H42L42.1,15.2L42.1,15.2z M42.5,17.6L42.5,17.6
			c0.8,0,1.4-0.3,1.4-1.1s-0.6-1.1-1.3-1.1h-0.1C42.5,15.4,42.5,17.6,42.5,17.6z"/>
		<polygon class="st0" points="44.7,15.2 46.2,15.2 46.2,15.5 45,15.5 45,16.4 46.1,16.4 46.1,16.6 45,16.6 45,17.6 46.2,17.6 
			46.2,17.9 44.7,17.9 		"/>
		<path class="st0" d="M47.8,15.8c-0.1-0.2-0.2-0.3-0.4-0.3s-0.5,0.1-0.5,0.4c0,0.2,0.2,0.3,0.4,0.4l0.2,0.1
			c0.4,0.2,0.7,0.4,0.7,0.8c0,0.5-0.4,0.9-0.9,0.9c-0.4,0-0.8-0.3-0.8-0.8l0.3-0.1c0,0.3,0.2,0.5,0.5,0.5s0.5-0.2,0.5-0.5
			s-0.2-0.4-0.5-0.5l-0.2-0.1c-0.3-0.1-0.6-0.3-0.6-0.7s0.4-0.7,0.8-0.7c0.3,0,0.6,0.1,0.7,0.4L47.8,15.8z"/>
		<rect x="48.6" y="15.2" class="st0" width="0.3" height="2.7"/>
		<path class="st0" d="M52.1,16.6L52.1,16.6c0,0.9-0.5,1.4-1.3,1.4s-1.4-0.7-1.4-1.4c0-0.8,0.6-1.4,1.4-1.4c0.4,0,0.8,0.2,1.1,0.5
			L51.7,16c-0.2-0.3-0.5-0.4-0.9-0.4c-0.6,0-1.1,0.5-1.1,1.1s0.5,1.1,1.1,1.1c0.4,0,0.9-0.4,0.9-0.8H51v-0.3
			C51,16.6,52.1,16.6,52.1,16.6z"/>
		<polygon class="st0" points="52.5,15.1 54.6,17.2 54.6,15.2 54.9,15.2 54.9,18.1 52.9,15.9 52.9,17.9 52.5,17.9 		"/>
		<path class="st0" d="M57,17.4l-0.3,0.7h-0.4l1.3-2.9l1.3,2.9h-0.4l-0.2-0.7H57z M57.7,15.9L57.2,17h1L57.7,15.9z"/>
		<path class="st0" d="M60.5,15.8c-0.1-0.2-0.2-0.3-0.4-0.3s-0.5,0.1-0.5,0.4c0,0.2,0.2,0.3,0.4,0.4l0.2,0.1
			c0.4,0.2,0.7,0.4,0.7,0.8c0,0.5-0.4,0.9-0.9,0.9c-0.4,0-0.8-0.3-0.8-0.8l0.3-0.1c0,0.3,0.2,0.5,0.5,0.5s0.5-0.2,0.5-0.5
			s-0.2-0.4-0.5-0.5l-0.2-0.1c-0.3-0.1-0.6-0.3-0.6-0.7s0.4-0.7,0.8-0.7c0.3,0,0.6,0.1,0.7,0.4L60.5,15.8z"/>
		<path class="st0" d="M62.5,15.8c-0.1-0.2-0.2-0.3-0.4-0.3s-0.5,0.1-0.5,0.4c0,0.2,0.2,0.3,0.4,0.4l0.2,0.1
			c0.4,0.2,0.7,0.4,0.7,0.8c0,0.5-0.4,0.9-0.9,0.9c-0.4,0-0.8-0.3-0.8-0.8l0.3-0.1c0,0.3,0.2,0.5,0.5,0.5s0.5-0.2,0.5-0.5
			s-0.2-0.4-0.5-0.5l-0.2-0.1c-0.3-0.1-0.6-0.3-0.6-0.7s0.4-0.7,0.8-0.7c0.3,0,0.6,0.1,0.7,0.4L62.5,15.8z"/>
		<path class="st0" d="M66,16.6c0,0.8-0.6,1.4-1.4,1.4s-1.4-0.6-1.4-1.4s0.7-1.4,1.4-1.4C65.4,15.1,66,15.9,66,16.6 M65.7,16.6
			c0-0.6-0.5-1.1-1.1-1.1s-1.1,0.5-1.1,1.1s0.5,1.1,1.1,1.1S65.7,17.2,65.7,16.6"/>
		<path class="st0" d="M68.5,15.8c-0.2-0.2-0.5-0.3-0.7-0.3c-0.6,0-1.1,0.5-1.1,1.1s0.5,1.1,1.1,1.1c0.3,0,0.5-0.1,0.7-0.3v0.4
			C68.3,17.9,68,18,67.8,18c-0.8,0-1.4-0.6-1.4-1.4s0.7-1.4,1.5-1.4c0.2,0,0.5,0.1,0.7,0.2L68.5,15.8L68.5,15.8z"/>
		<rect x="68.9" y="15.2" class="st0" width="0.3" height="2.7"/>
		<path class="st0" d="M70.3,17.4L70,17.9h-0.4l1.3-2.9l1.3,2.9h-0.4l-0.3-0.6C71.5,17.3,70.3,17.3,70.3,17.4z M70.9,15.9L70.4,17h1
			L70.9,15.9z"/>
		<polygon class="st0" points="73.1,17.9 72.7,17.9 72.7,15.5 72.1,15.5 72.1,15.2 73.7,15.2 73.7,15.5 73.1,15.5 		"/>
		<rect x="74.1" y="15.2" class="st0" width="0.3" height="2.7"/>
		<path class="st0" d="M77.7,16.6c0,0.8-0.6,1.4-1.4,1.4s-1.4-0.6-1.4-1.4s0.7-1.4,1.4-1.4C77.1,15.1,77.7,15.9,77.7,16.6
			 M77.4,16.6c0-0.6-0.5-1.1-1.1-1.1s-1.1,0.5-1.1,1.1s0.5,1.1,1.1,1.1S77.4,17.2,77.4,16.6"/>
		<polygon class="st0" points="78.2,15.1 80.2,17.2 80.2,15.2 80.6,15.2 80.6,18.1 78.5,15.9 78.5,17.9 78.2,17.9 		"/>
		<path class="st0" d="M3.1,20.2c-0.4,0.1-0.9,0.2-1.2,0.2v0.3h1.4V21H1.9v0.7h0.9v1.7H2.5v-0.2H1v0.2H0.7v-1.6
			C0.6,22,0.4,22,0.2,22.1L0,21.9c0.5-0.2,1-0.4,1.3-0.8H0.2v-0.3h1.4v-0.3c-0.3,0-0.7,0.1-1.1,0.1l-0.2-0.2c0.9,0,2-0.1,2.6-0.3
			L3.1,20.2z M1.6,21.1c-0.2,0.2-0.5,0.5-0.7,0.6h0.7V21.1z M2.5,22H1v0.3h1.5V22z M2.5,22.9v-0.3H1v0.3H2.5z M2.1,21.1
			c0.5,0.1,0.9,0.4,1.3,0.7l-0.2,0.2c-0.3-0.3-0.8-0.6-1.3-0.7L2.1,21.1z"/>
		<path class="st0" d="M5.4,21.6c-0.1-0.2-0.3-0.4-0.6-0.5L5,20.9c0.2,0.1,0.5,0.2,0.6,0.5L5.4,21.6z M5.6,22
			c-0.1,0.5-0.2,1-0.5,1.4l-0.3-0.2c0.3-0.3,0.5-1.1,0.6-1.4L5.6,22c0.3-0.2,0.5-0.4,0.7-0.6H5.7v-0.3h0.6v-0.4H5.8v-0.3h0.4v-0.4
			h0.3v0.4h0.6v-0.4h0.3v0.4h0.4v0.3H7.5v0.4h0.6v0.3H7.5C7.7,21.7,8,22,8.3,22l-0.2,0.2C7.9,22.1,7.7,22,7.6,22v0.7H6.5v0.2
			c0,0.1,0,0.1,0.1,0.1h1c0.2,0,0.1-0.1,0.2-0.4H8c0,0.4,0,0.8-0.4,0.8H6.5c-0.2,0-0.3-0.2-0.3-0.3v-1c-0.1,0.1-0.2,0.2-0.4,0.2
			L5.6,22z M5.5,20.9c-0.2-0.3-0.4-0.4-0.6-0.5l0.2-0.2c0.2,0.1,0.5,0.2,0.6,0.5L5.5,20.9z M6.6,21.4c0,0.1-0.1,0.3-0.2,0.3h1
			c-0.1-0.1-0.2-0.2-0.2-0.3H6.6z M6.5,22.4h0.9v-0.3H6.5V22.4z M6.6,20.8v0.4h0.6v-0.4H6.6z"/>
		<path class="st0" d="M9.8,23.2V23h1.4v-0.3h-1.1v-0.3h1.1v-0.3h0.3v0.3h1.1v0.3h-1.1v0.4h1.4v0.3L9.8,23.2z M12.6,21.2v-0.6h-2.5
			v0.6H9.8v-0.9h1.4c0-0.1-0.2-0.1-0.3-0.2l0.3-0.2c0.2,0.1,0.3,0.2,0.4,0.4h1.3v0.9C12.9,21.2,12.6,21.2,12.6,21.2z M12.4,22.1
			c0-0.1-0.1-0.2-0.2-0.2c-0.7,0.1-1.5,0.1-2,0.2c-0.1-0.1-0.1-0.2-0.2-0.3c0.3-0.2,0.7-0.5,0.8-0.7h-0.6v-0.3h2.1v0.3h-1.1
			c-0.2,0.3-0.4,0.5-0.6,0.6l1.3-0.1l-0.2-0.2l0.3-0.1c0.2,0.1,0.6,0.4,0.7,0.6L12.4,22.1z"/>
		<path class="st0" d="M16.5,23c0.2,0,0.3,0,0.5,0c0.1,0,0.1-0.1,0.1-0.1v-1.8h-0.9c0.1,0.7,0.5,1.1,0.9,1.4l-0.2,0.2
			c-0.4-0.3-0.7-0.7-0.9-1.2c-0.2,0.4-0.5,0.9-1,1.2l-0.2-0.2c0.5-0.3,0.9-0.8,1-1.4h-1.1v2.3h-0.3v-2.6h1.4c0-0.1,0-0.3,0-0.4h-0.7
			v-0.3h1c0,0.3,0,0.5,0,0.7h1.2v2.2c0,0.1,0,0.2-0.1,0.3s-0.5,0.1-0.6,0.1L16.5,23z"/>
		<path class="st0" d="M19.5,19.9c0.1,0.1,0.4,0.3,0.5,0.5h-0.1h0.6v0.3H19v-0.3h0.7c0-0.1-0.3-0.3-0.4-0.4L19.5,19.9z M20.3,21.4
			h-1.2v-0.3h1.2V21.4z M20.3,21.5v0.3h-1.2v-0.3H20.3z M19.2,23.4v-1.3h1.1v1h-0.8v0.3H19.2z M20,22.4h-0.5v0.5H20V22.4z
			 M20.1,23.2c0.3-0.1,0.7-0.3,0.9-0.5c-0.2-0.2-0.3-0.5-0.5-0.8h-0.2v-0.3l-0.2-0.2c0.4-0.1,0.5-0.3,0.4-1.2h1.2v0.9
			c0,0,0,0.1,0.1,0.1h0.4v0.1h-0.5c-0.2,0-0.3-0.1-0.3-0.3v-0.6h-0.6c0,0.5,0.1,0.9-0.5,1.2h1.6c-0.1,0.5-0.3,0.8-0.6,1.1
			c0.3,0.2,0.6,0.3,1,0.5L22,23.4c-0.3-0.1-0.7-0.3-0.9-0.5c-0.3,0.2-0.6,0.4-0.9,0.5L20.1,23.2z M20.9,21.9
			c0.1,0.2,0.2,0.4,0.4,0.6c0.1-0.1,0.3-0.3,0.4-0.6H20.9z"/>
		<path class="st0" d="M24.5,20.5c-0.1-0.2-0.2-0.3-0.3-0.4l0.2-0.2c0.2,0.2,0.4,0.3,0.4,0.6h-0.1h0.7v0.3h-1.6v-0.3
			C23.8,20.5,24.5,20.5,24.5,20.5z M25.2,21.4H24v-0.3h1.3L25.2,21.4L25.2,21.4z M24,21.5h1.2v0.3H24V21.5z M24.8,23.4v-0.2h-0.5
			v0.2H24v-1.3h1.1v1.3H24.8z M24.8,22.4h-0.5v0.5h0.5V22.4z M26,21.4h-0.8v-0.3H26v-1.2h0.3v1.2h0.9v0.3h-0.9v2.1H26V21.4z"/>
		<path class="st0" d="M28.5,21.1v-0.3h0.4V20h0.3v0.9h0.4v0.3h-0.4v2.4h-0.3v-2.4H28.5z M30.1,21.8h0.5c0,0.5-0.1,0.9-0.2,1.3
			c0,0.1-0.1,0.2-0.3,0.2c-0.1,0-0.2,0-0.3,0L29.7,23c-0.1,0.1-0.2,0.3-0.4,0.4l-0.2-0.2c0.3-0.2,0.4-0.5,0.5-0.8
			c0-0.2,0.1-0.3,0.1-0.4h-0.4v-0.3h0.4c0-0.1,0-0.2,0-0.3c0,0-0.1,0-0.2,0l-0.2-0.3c0.4-0.1,0.9-0.2,1-0.6h-0.6v-0.2h0.7v-0.4h0.3
			c0,0.2,0,0.3,0,0.4h0.8c0,0.4-0.1,0.6-0.2,0.8c0,0.1-0.1,0.2-0.2,0.2c-0.2,0-0.3,0-0.5,0c0-0.1,0-0.2-0.1-0.3
			c0.2,0,0.3,0.1,0.4,0.1c0,0,0,0,0.1,0c0.1-0.1,0.1-0.3,0.1-0.4h-0.6c-0.1,0.3-0.4,0.7-0.9,0.8h0.2L30.1,21.8z M30.2,23L30.2,23
			c0.1-0.4,0.2-0.7,0.2-1h-0.2c0,0.5-0.1,0.6-0.2,1H30.2z M31.3,21.4v0.3h0.5c0,0.2,0,0.5,0,0.7s-0.1,0.4-0.1,0.7
			c0,0.1-0.1,0.3-0.3,0.3c-0.1,0-0.2,0-0.3,0L31,23c0.2,0,0.3,0.1,0.4,0l0.1-0.1c0.1-0.3,0.1-0.6,0.1-1h-0.3c0,0.7-0.2,1.1-0.7,1.4
			l-0.2-0.2c0.4-0.3,0.6-0.6,0.6-1c0-0.1,0-0.2,0-0.2h-0.3v-0.3H31v-0.3L31.3,21.4z"/>
		<path class="st0" d="M35.1,20c0.5,0.4,1,0.8,1.7,0.9l-0.2,0.3c-0.1,0-0.2-0.1-0.3-0.1v0.8h-2.8v-0.8c0,0-0.1,0.1-0.2,0.1
			c-0.1-0.1-0.1-0.2-0.2-0.3c0.7-0.3,1.3-0.6,1.8-1.1L35.1,20L35.1,20z M35.6,20.9h-1.3v-0.2c-0.2,0.2-0.5,0.3-0.6,0.3H36
			c-0.1,0-0.3-0.2-0.5-0.3L35.6,20.9L35.6,20.9z M33.7,23.4V22h2.4v1.4h-0.3v-0.2H34v0.2H33.7z M33.8,21.2v0.4h0.4
			c0-0.1-0.1-0.1-0.3-0.2c0.1,0,0.1-0.1,0.2-0.1L33.8,21.2z M34,22.5h1.8v-0.2H34V22.5z M35.8,22.8H34V23h1.8V22.8z M34.2,21.2
			c0.2,0.1,0.3,0.2,0.3,0.4h0.2v-0.4H34.2z M35.3,20.5c-0.1-0.1-0.3-0.2-0.4-0.3c-0.2,0.1-0.3,0.2-0.4,0.3H35.3z M35.1,21.2v0.4h0.3
			c0.1-0.1,0.2-0.2,0.3-0.4H35.1z M35.8,21.4c-0.1,0.1-0.1,0.2-0.1,0.2H36v-0.4h-0.4L35.8,21.4z"/>
		<rect x="8.4" y="0.8" class="st0" width="0.5" height="11"/>
		<rect x="1.8" y="6" class="st0" width="5.5" height="0.5"/>
		<rect x="0.2" y="0.8" class="st0" width="0.5" height="11"/>
		<path class="st0" d="M16.9,0.8h-0.8L9.9,6.3l6.7,5.5h0.8c-1.3-1.1-6.7-5.5-6.7-5.5L16.9,0.8z"/>
		<path class="st0" d="M33.5,9.9c-1,1.1-2.5,1.8-4.1,1.8l0,0h-5.2v-11h5.2l0,0c3,0,5.5,2.5,5.5,5.5c0,0.6-0.1,1.2-0.3,1.7l4.2-7.2
			l6.4,11H32.4L33.5,9.9z"/>
		<rect x="17.9" y="0.8" class="st0" width="5.2" height="11"/>
	</g>
	<g>
		<path class="st0" d="M106.5,6.2h-1V4.9h1V0.3h1.3v4.6h1.1l4.2-4.6h1.7l-4.2,4.6h3.8V11h-1.3V6.2h-5.3V11h-1.3V6.2z M117.8,0.3
			h-1.3V11h1.3V0.3z M140.7,7.5V0.3h-1.3v7.2h-3.2V0.3h-1.3v9.3c-1.8,0-3.4-0.7-3.4-3.1V0.3h-1.3V7c0,2.4,1.7,4.1,4.7,4.1h1.3V8.8
			h4.5h1V7.5H140.7z M128.7,5.7c0,3.3-2.6,5.3-5.3,5.3h-3.7V0.3h3.7C126.1,0.3,128.7,2.4,128.7,5.7z M127.4,5.7c0-2.3-1.8-4.1-4-4.1
			h-2.3v8.1h2.3C125.6,9.7,127.4,8,127.4,5.7z M95.4,11h1.3V6.2h2.4c0.1,1.5,1.2,2.6,2.6,2.6h0.7V11h1.3V6.2V4.9V0.3h-1.3v4.6v1.3
			v1.3H102c-1,0-1.6-0.6-1.6-1.6v-1h-3.7V0.3h-1.3v4.6h-1v1.3h1V11z M97.6,16v-2.8h-0.4v1.2h-1.4v-1.2h-0.4V16h0.4v-1.2h1.4V16H97.6
			z M99.6,16c-0.8,0-1.4-0.6-1.4-1.4c0-0.8,0.6-1.4,1.4-1.4c0.8,0,1.4,0.6,1.4,1.4C101,15.4,100.3,16,99.6,16z M99.6,15.6
			c0.6,0,1-0.5,1-1c0-0.6-0.5-1-1-1c-0.6,0-1,0.5-1,1C98.6,15.1,99,15.6,99.6,15.6z M103.4,15.3l-1.4-2.1h-0.5V16h0.4v-2.1l1.4,2.1
			h0.4v-2.8h-0.4V15.3z M105.6,16c0.5,0,0.8-0.2,0.9-0.5V16h0.4v-1.5h-1.5v0.4l1.1,0c0,0.2-0.2,0.7-0.9,0.7c-0.5,0-1-0.4-1-1
			c0-0.6,0.5-1,1-1c0.2,0,0.4,0.1,0.5,0.2c0.1,0.1,0.2,0.2,0.3,0.4h0.4c-0.1-0.5-0.6-0.9-1.2-0.9c-0.7,0-1.4,0.6-1.4,1.4
			C104.3,15.4,104.9,16,105.6,16z M110.1,14.4c0.5-0.6,1.1-1.2,1.1-1.2h-0.5c0,0-0.8,0.9-1.3,1.4v-1.4H109V16h0.4v-0.8l0.4-0.5
			l0.9,1.3h0.5L110.1,14.4z M114.1,14.6c0,0.8-0.6,1.4-1.4,1.4c-0.8,0-1.4-0.6-1.4-1.4c0-0.8,0.6-1.4,1.4-1.4
			C113.5,13.2,114.1,13.8,114.1,14.6z M113.7,14.6c0-0.6-0.5-1-1-1c-0.6,0-1,0.5-1,1c0,0.6,0.5,1,1,1
			C113.2,15.6,113.7,15.1,113.7,14.6z M114.6,16h0.4v-2.1l1.4,2.1h0.4v-2.8h-0.4v2.1l-1.4-2.1h-0.5V16z M120.1,16v-1.5h-1.5v0.4
			l1.1,0c0,0.2-0.2,0.7-0.9,0.7c-0.5,0-1-0.4-1-1c0-0.6,0.5-1,1-1c0.2,0,0.4,0.1,0.5,0.2c0.1,0.1,0.2,0.2,0.3,0.4h0.4
			c-0.1-0.5-0.6-0.9-1.2-0.9c-0.7,0-1.4,0.6-1.4,1.4c0,0.8,0.6,1.4,1.3,1.4c0.5,0,0.8-0.2,0.9-0.5V16H120.1z M95.4,19.8h0.4V17h-0.4
			V19.8z M98.4,19.2L96.9,17h-0.5v2.8h0.4v-2.1l1.4,2.1h0.4V17h-0.4V19.2z M100.4,19.8v-2.4h0.9V17h-2.1v0.4h0v0h0.8v2.4H100.4z
			 M103.5,17.4L103.5,17.4L103.5,17.4l0-0.4h-1.9v2.8h1.9v-0.4h0v0H102v-0.8h1.3v-0.4H102v-0.8H103.5z M106,19.8h-0.5l-0.5-1h-0.6v1
			h-0.4V17h1.1c0.5,0,0.9,0.4,0.9,0.9c0,0.3-0.2,0.7-0.5,0.8L106,19.8z M105.6,17.9c0-0.3-0.2-0.5-0.5-0.5h-0.7v0.9h0.7
			C105.4,18.4,105.6,18.1,105.6,17.9z M106.5,19.8h0.4V17h-0.4V19.8z M108.8,19.8c-0.8,0-1.4-0.6-1.4-1.4c0-0.8,0.6-1.4,1.4-1.4
			c0.8,0,1.4,0.6,1.4,1.4C110.2,19.2,109.6,19.8,108.8,19.8z M109.8,18.4c0-0.6-0.5-1-1-1c-0.6,0-1,0.5-1,1c0,0.6,0.5,1,1,1
			C109.4,19.4,109.8,19,109.8,18.4z M112.1,18.7l0.6,1.1h-0.5l-0.5-1h-0.6v1h-0.4V17h1.1c0.5,0,0.9,0.4,0.9,0.9
			C112.7,18.2,112.5,18.6,112.1,18.7z M112.3,17.9c0-0.3-0.2-0.5-0.5-0.5h-0.7v0.9h0.7C112.1,18.4,112.3,18.1,112.3,17.9z M117,18.4
			c0,0.8-0.7,1.4-1.4,1.4h-1V17h1C116.3,17,117,17.6,117,18.4z M116.6,18.4c0-0.5-0.4-1-1-1H115v2h0.6
			C116.2,19.4,116.6,19,116.6,18.4z M117.5,19.8h1.9v-0.4h0v0h-1.5v-0.8h1.3v-0.4h-1.3v-0.8h1.5v0h0V17h-1.9V19.8z M120.9,18.2
			l-0.3-0.1c-0.3-0.1-0.3-0.2-0.3-0.4c0-0.2,0.2-0.4,0.5-0.4c0.1,0,0.3,0.1,0.3,0.1c0.1,0.1,0.1,0.2,0.1,0.3h0.4
			c0-0.4-0.3-0.9-0.8-0.9c-0.5,0-0.9,0.3-0.9,0.8c0,0.4,0.2,0.6,0.7,0.8l0.3,0.1c0.3,0.1,0.4,0.2,0.4,0.4c0,0.2-0.2,0.4-0.5,0.4
			c-0.1,0-0.3,0-0.4-0.1c-0.1-0.1-0.2-0.3-0.2-0.4h-0.4c0,0.6,0.4,1,1,1c0.5,0,0.9-0.4,0.9-0.8C121.7,18.6,121.4,18.3,120.9,18.2z
			 M122.1,19.8h0.4V17h-0.4V19.8z M124.2,18.7l1.1,0c0,0.2-0.2,0.7-0.9,0.7c-0.5,0-1-0.4-1-1c0-0.6,0.5-1,1-1c0.2,0,0.4,0.1,0.5,0.2
			c0.1,0.1,0.2,0.2,0.3,0.4h0.4c-0.1-0.5-0.6-0.9-1.2-0.9c-0.7,0-1.4,0.6-1.4,1.4c0,0.8,0.6,1.4,1.3,1.4c0.5,0,0.8-0.2,0.9-0.5v0.4
			h0.4v-1.5h-1.5V18.7z M128.1,19.2l-1.4-2.1h-0.5v2.8h0.4v-2.1l1.4,2.1h0.4V17h-0.4V19.2z M132.7,19.1l-0.6-2.1h-0.4l-0.6,2.1
			l-0.5-1.7v0l-0.1-0.4h-0.4l0.8,2.8h0.4l0.6-2.1l0.6,2.1h0.4l0.8-2.8h-0.4L132.7,19.1z M134,19.8h1.9v-0.4h0v0h-1.5v-0.8h1.3v-0.4
			h-1.3v-0.8h1.5v0h0V17H134V19.8z M136.5,19.8h1.9v-0.4h0v0h-1.5v-0.8h1.3v-0.4h-1.3v-0.8h1.5v0h0V17h-1.9V19.8z M141.1,17h-0.5
			c0,0-0.8,0.9-1.3,1.4V17h-0.4v2.8h0.4V19l0.4-0.5l0.9,1.3h0.5l-1.1-1.6C140.5,17.7,141.1,17,141.1,17z M97.8,22.7v1.1l0,0.1h-0.3
			v-0.1h-1.3v0.1h-0.4c0,0,0-0.1,0-0.1v-1.1c0,0,0-0.1,0-0.1h2C97.8,22.6,97.8,22.7,97.8,22.7z M96.2,23.1h1.3v-0.2h-1.3V23.1z
			 M97.4,23.3h-1.3v0.2h1.3V23.3z M98,21.9c0.1,0,0.2,0,0.3,0v-0.3c-0.1,0-0.2,0-0.3,0h-1v-0.3c0.3,0,0.6-0.1,0.9-0.1
			c0,0,0.1,0,0.1,0l-0.2-0.3c-0.5,0.1-1.4,0.2-2.2,0.2c0,0.1,0.1,0.3,0.1,0.3c0.3,0,0.6,0,0.9,0v0.3h-1c-0.1,0-0.2,0-0.3,0v0.3
			c0.1,0,0.2,0,0.3,0h0.7c-0.3,0.2-0.7,0.4-1.1,0.5c0.1,0.1,0.1,0.2,0.1,0.3c0.5-0.1,0.9-0.4,1.2-0.7l0,0.4c0,0,0,0.1,0,0.1H97
			c0,0,0-0.1,0-0.1l0-0.4c0.3,0.3,0.8,0.6,1.3,0.7c0-0.1,0.1-0.2,0.1-0.3c-0.4-0.1-0.9-0.3-1.1-0.5H98z M98.8,22
			c0.1,0.1,0.3,0.2,0.5,0.4l0.2-0.3c-0.2-0.1-0.4-0.3-0.5-0.4L98.8,22z M99.1,20.9l-0.2,0.3c0.2,0.1,0.4,0.2,0.5,0.4l0.2-0.3
			C99.4,21.2,99.2,21,99.1,20.9z M101.9,22.8c-0.1,0.1-0.1,0.2-0.2,0.3c-0.2-0.1-0.4-0.3-0.5-0.4v0.5l0,0.1h-0.9v0.2
			c0,0,0,0.1,0.1,0.1c0.1,0,0.1,0,0.5,0c0.2,0,0.4,0,0.5-0.1c0.1-0.1,0.1-0.2,0.1-0.4l0.3,0.2c0,0.5-0.2,0.6-1,0.6
			c-0.5,0-0.7,0-0.7-0.1c-0.1-0.1-0.1-0.1-0.1-0.3v-0.6c-0.1,0.1-0.2,0.2-0.3,0.2c0,0-0.1-0.1-0.1-0.2c-0.1,0.2-0.3,0.6-0.4,0.8
			c0,0,0,0.1-0.1,0.2l-0.3-0.3c0,0,0.1-0.1,0.1-0.1c0.2-0.3,0.4-0.8,0.4-1l0.2,0.2c0.3-0.1,0.5-0.3,0.6-0.6h-0.2c-0.1,0-0.2,0-0.2,0
			v-0.3c0.1,0,0.1,0,0.2,0h0.3v-0.4H100c-0.1,0-0.2,0-0.2,0v-0.3c0.1,0,0.1,0,0.2,0h0.2V21c0,0,0-0.1,0-0.1c0.1,0,0.3,0,0.3,0
			c0,0,0,0.1,0,0.1v0.2h0.4V21c0,0,0-0.1,0-0.1c0.1,0,0.3,0,0.3,0c0,0,0,0.1,0,0.1v0.2h0.2c0.1,0,0.2,0,0.2,0v0.3
			c-0.1,0-0.1,0-0.2,0h-0.2v0.4h0.3c0.1,0,0.2,0,0.2,0v0.3c-0.1,0-0.1,0-0.2,0h-0.3C101.4,22.5,101.6,22.7,101.9,22.8z M100.5,21.9
			h0.4v-0.4h-0.4V21.9z M100.9,22.8h-0.6V23h0.6V22.8z M101.1,22.5c-0.1-0.1-0.1-0.2-0.2-0.3h-0.5c0,0.1-0.1,0.2-0.2,0.3H101.1z
			 M105,23.5c0.1,0,0.2,0,0.3,0v0.3c-0.1,0-0.2,0-0.3,0h-2.4c-0.1,0-0.2,0-0.3,0v-0.3c0.1,0,0.2,0,0.3,0h1v-0.3h-0.7
			c-0.1,0-0.2,0-0.2,0v-0.3c0.1,0,0.1,0,0.2,0h0.7v-0.3v0c-0.2,0-0.4,0-0.5,0c-0.1,0-0.2,0-0.2,0l-0.1-0.3c0.2-0.1,0.4-0.3,0.5-0.4
			H103c-0.1,0-0.2,0-0.2,0v-0.3c0.1,0,0.1,0,0.2,0h1.6c0.1,0,0.2,0,0.2,0V22c-0.1,0-0.1,0-0.2,0h-0.2c0.2,0.1,0.5,0.3,0.7,0.6
			l-0.3,0.2c0-0.1-0.1-0.1-0.2-0.2c-0.2,0-0.4,0-0.6,0v0v0.3h0.7c0.1,0,0.2,0,0.2,0v0.3c-0.1,0-0.1,0-0.2,0H104v0.3H105z
			 M104.3,22.3c-0.1-0.1-0.2-0.1-0.2-0.2l0.2-0.2h-0.7c-0.1,0.1-0.2,0.3-0.4,0.4C103.6,22.4,104,22.4,104.3,22.3z M105.2,21.2H104
			c-0.1-0.1-0.1-0.2-0.2-0.3l-0.3,0.1c0,0.1,0.1,0.2,0.1,0.2h-1.2c0,0,0,0.1,0,0.1v0.5c0,0,0,0.1,0,0.1h0.4v-0.4h2.1v0.4h0.3l0-0.1
			L105.2,21.2C105.2,21.2,105.2,21.2,105.2,21.2z M108.7,21.4h-1.1c0-0.1,0-0.2,0-0.3c0-0.1,0-0.2,0-0.2l-0.4,0c0,0,0,0.1,0,0.3
			c0,0.1,0,0.2,0,0.3H106c0,0,0,0.1,0,0.1v2.2c0,0.1,0,0.1,0,0.2h0.4c0-0.1,0-0.1,0-0.2v-2h0.8c-0.1,0.6-0.3,0.9-0.8,1.1
			c0.1,0.1,0.1,0.2,0.2,0.3c0.4-0.2,0.6-0.5,0.8-0.9c0.2,0.3,0.5,0.6,0.7,0.8c0.1-0.1,0.2-0.2,0.2-0.3c-0.2-0.2-0.5-0.6-0.8-0.9
			c0-0.1,0-0.1,0-0.2h0.8v1.5v0.2c0,0.1-0.1,0.1-0.3,0.1c-0.2,0-0.3,0-0.3,0c0.1,0.1,0.1,0.3,0.2,0.4c0.6,0,0.8-0.1,0.8-0.4
			c0,0,0-0.2,0-0.2v-1.7C108.7,21.5,108.7,21.5,108.7,21.4z M111.8,21h-1.1c0,0,0,0.1,0,0.1v0.3c0,0.3-0.2,0.5-0.5,0.6
			c0.1,0.1,0.2,0.2,0.2,0.3c0.4-0.2,0.6-0.5,0.6-0.8v-0.2h0.4v0.4c0,0.2,0,0.3,0.1,0.3c0.1,0.1,0.2,0.1,0.4,0.1c0.1,0,0.3,0,0.4,0
			c0-0.1,0-0.2,0.1-0.3c-0.1,0-0.3,0-0.4,0c-0.1,0-0.1,0-0.1,0c0,0,0,0,0,0L111.8,21C111.8,21.1,111.8,21,111.8,21z M109.8,21
			l-0.3,0.2c0.2,0.1,0.4,0.4,0.5,0.6l0.3-0.2C110.1,21.3,109.9,21.1,109.8,21z M111.5,23.3c0.2,0.1,0.5,0.2,0.8,0.3
			c-0.1,0.1-0.1,0.3-0.2,0.3c-0.4-0.1-0.7-0.3-0.9-0.4c-0.3,0.2-0.6,0.3-0.9,0.4c0-0.1-0.1-0.2-0.2-0.3c0.3-0.1,0.6-0.2,0.8-0.3
			c-0.2-0.2-0.3-0.4-0.4-0.6c-0.1,0-0.1,0-0.2,0v-0.3c0.1,0,0.1,0,0.2,0h1.1l0,0c0.1,0,0.2,0.1,0.3,0.2c0,0,0,0-0.1,0
			C111.9,22.8,111.8,23.1,111.5,23.3z M111.6,22.6H111c0.1,0.2,0.2,0.3,0.3,0.4C111.4,23,111.5,22.8,111.6,22.6z M110.4,22.9
			c-0.1,0.1-0.2,0.2-0.3,0.3V22c0,0,0-0.1,0-0.1h-0.7c0,0-0.1,0-0.1,0v0.3c0,0,0.1,0,0.1,0h0.3v1.1c0,0.1-0.1,0.1-0.1,0.2l0.2,0.3
			l0.2-0.2c0.1-0.1,0.2-0.2,0.5-0.4C110.4,23.1,110.4,23,110.4,22.9z M115,21.9v-0.9c0,0,0-0.1,0-0.2c-0.1,0-0.3,0-0.4,0
			c0,0,0,0.1,0,0.2v0.9h-0.5c-0.1,0-0.2,0-0.2,0v0.4c0.1,0,0.1,0,0.2,0h0.5v1.4c0,0.1,0,0.2,0,0.2h0.4c0-0.1,0-0.1,0-0.2v-1.4h0.6
			c0.1,0,0.2,0,0.2,0v-0.4c-0.1,0-0.1,0-0.2,0H115z M113.1,21.1c0.2,0.2,0.4,0.4,0.5,0.6l0.3-0.2c-0.2-0.2-0.3-0.4-0.5-0.6
			L113.1,21.1z M113.6,23.3v-1.2c0,0,0-0.1,0-0.1h-0.7c0,0-0.1,0-0.1,0v0.3c0,0,0.1,0,0.1,0h0.4v1.1c0,0.1,0,0.1-0.1,0.2l0.2,0.3
			c0.1-0.1,0.1-0.1,0.2-0.1c0.1-0.1,0.3-0.3,0.6-0.5c0-0.1-0.1-0.2-0.1-0.3C113.9,23.1,113.8,23.2,113.6,23.3z M118.4,23.5h-0.9v0.2
			h-0.3c0,0,0-0.1,0-0.1v-0.9c0,0,0-0.1,0-0.1h1.2c0,0,0,0.1,0,0.1v0.7L118.4,23.5z M118.1,22.9h-0.6v0.3h0.6V22.9z M119.1,21h-2.6
			c0,0.2,0,0.7,0,1.1c0,0.9-0.1,1.3-0.4,1.6c0.1,0.1,0.2,0.2,0.3,0.2c0.3-0.4,0.4-0.9,0.4-1.8c0-0.2,0-0.5,0-0.8h1.9v2v0.2
			c0,0.1-0.1,0.1-0.2,0.1c-0.1,0-0.2,0-0.3,0c0.1,0.1,0.1,0.3,0.2,0.3c0.5,0,0.7-0.1,0.7-0.3c0,0,0-0.2,0-0.2v-2.1
			C119.1,21.1,119.1,21.1,119.1,21z M117.2,22.2c-0.1,0-0.1,0-0.2,0v0.3c0.1,0,0.1,0,0.2,0h1.2c0.1,0,0.1,0,0.2,0v-0.3
			c-0.1,0-0.1,0-0.2,0H118v-0.3h0.3c0.1,0,0.1,0,0.2,0v-0.3c-0.1,0-0.1,0-0.2,0H118v-0.1c0,0,0-0.1,0-0.1c-0.1,0-0.3,0-0.3,0
			c0,0,0,0.1,0,0.1v0.1h-0.3c-0.1,0-0.1,0-0.2,0v0.3c0.1,0,0.1,0,0.2,0h0.3v0.3H117.2z"/>
	</g>
</g>
</svg>
