<?xml version="1.0" encoding="utf-8"?>
<!-- Generator: Adobe Illustrator 21.1.0, SVG Export Plug-In . SVG Version: 6.00 Build 0)  -->
<svg version="1.1" id="Layer_1" xmlns="http://www.w3.org/2000/svg" xmlns:xlink="http://www.w3.org/1999/xlink" x="0px" y="0px"
	 viewBox="0 0 1200.5 1200" style="enable-background:new 0 0 1200.5 1200;" xml:space="preserve">
<style type="text/css">
	.st0{fill:none;stroke:#DCDBDB;stroke-miterlimit:10;}
</style>
<line class="st0" x1="1200.5" y1="6" x2="0.5" y2="6"/>
<line class="st0" x1="1200.5" y1="18" x2="0.5" y2="18"/>
<line class="st0" x1="1200.5" y1="30" x2="0.5" y2="30"/>
<line class="st0" x1="1200.5" y1="42" x2="0.5" y2="42"/>
<line class="st0" x1="1200.5" y1="54" x2="0.5" y2="54"/>
<line class="st0" x1="1200.5" y1="66" x2="0.5" y2="66"/>
<line class="st0" x1="1200.5" y1="78" x2="0.5" y2="78"/>
<line class="st0" x1="1200.5" y1="90" x2="0.5" y2="90"/>
<line class="st0" x1="1200.5" y1="102" x2="0.5" y2="102"/>
<line class="st0" x1="1200.5" y1="114" x2="0.5" y2="114"/>
<line class="st0" x1="1200.5" y1="126" x2="0.5" y2="126"/>
<line class="st0" x1="1200.5" y1="138" x2="0.5" y2="138"/>
<line class="st0" x1="1200.5" y1="150" x2="0.5" y2="150"/>
<line class="st0" x1="1200.5" y1="162" x2="0.5" y2="162"/>
<line class="st0" x1="1200.5" y1="174" x2="0.5" y2="174"/>
<line class="st0" x1="1200.5" y1="186" x2="0.5" y2="186"/>
<line class="st0" x1="1200.5" y1="198" x2="0.5" y2="198"/>
<line class="st0" x1="1200.5" y1="210" x2="0.5" y2="210"/>
<line class="st0" x1="1200.5" y1="222" x2="0.5" y2="222"/>
<line class="st0" x1="1200.5" y1="234" x2="0.5" y2="234"/>
<line class="st0" x1="1200.5" y1="246" x2="0.5" y2="246"/>
<line class="st0" x1="1200.5" y1="258" x2="0.5" y2="258"/>
<line class="st0" x1="1200.5" y1="270" x2="0.5" y2="270"/>
<line class="st0" x1="1200.5" y1="282" x2="0.5" y2="282"/>
<line class="st0" x1="1200.5" y1="294" x2="0.5" y2="294"/>
<line class="st0" x1="1200.5" y1="306" x2="0.5" y2="306"/>
<line class="st0" x1="1200.5" y1="318" x2="0.5" y2="318"/>
<line class="st0" x1="1200.5" y1="330" x2="0.5" y2="330"/>
<line class="st0" x1="1200.5" y1="342" x2="0.5" y2="342"/>
<line class="st0" x1="1200.5" y1="354" x2="0.5" y2="354"/>
<line class="st0" x1="1200.5" y1="366" x2="0.5" y2="366"/>
<line class="st0" x1="1200.5" y1="378" x2="0.5" y2="378"/>
<line class="st0" x1="1200.5" y1="390" x2="0.5" y2="390"/>
<line class="st0" x1="1200.5" y1="402" x2="0.5" y2="402"/>
<line class="st0" x1="1200.5" y1="414" x2="0.5" y2="414"/>
<line class="st0" x1="1200.5" y1="426" x2="0.5" y2="426"/>
<line class="st0" x1="1200.5" y1="438" x2="0.5" y2="438"/>
<line class="st0" x1="1200.5" y1="450" x2="0.5" y2="450"/>
<line class="st0" x1="1200.5" y1="462" x2="0.5" y2="462"/>
<line class="st0" x1="1200.5" y1="474" x2="0.5" y2="474"/>
<line class="st0" x1="1200.5" y1="486" x2="0.5" y2="486"/>
<line class="st0" x1="1200.5" y1="498" x2="0.5" y2="498"/>
<line class="st0" x1="1200.5" y1="510" x2="0.5" y2="510"/>
<line class="st0" x1="1200.5" y1="522" x2="0.5" y2="522"/>
<line class="st0" x1="1200.5" y1="534" x2="0.5" y2="534"/>
<line class="st0" x1="1200.5" y1="546" x2="0.5" y2="546"/>
<line class="st0" x1="1200.5" y1="558" x2="0.5" y2="558"/>
<line class="st0" x1="1200.5" y1="570" x2="0.5" y2="570"/>
<line class="st0" x1="1200.5" y1="582" x2="0.5" y2="582"/>
<line class="st0" x1="1200.5" y1="594" x2="0.5" y2="594"/>
<line class="st0" x1="1200.5" y1="606" x2="0.5" y2="606"/>
<line class="st0" x1="1200.5" y1="618" x2="0.5" y2="618"/>
<line class="st0" x1="1200.5" y1="630" x2="0.5" y2="630"/>
<line class="st0" x1="1200.5" y1="642" x2="0.5" y2="642"/>
<line class="st0" x1="1200.5" y1="654" x2="0.5" y2="654"/>
<line class="st0" x1="1200.5" y1="666" x2="0.5" y2="666"/>
<line class="st0" x1="1200.5" y1="678" x2="0.5" y2="678"/>
<line class="st0" x1="1200.5" y1="690" x2="0.5" y2="690"/>
<line class="st0" x1="1200.5" y1="702" x2="0.5" y2="702"/>
<line class="st0" x1="1200.5" y1="714" x2="0.5" y2="714"/>
<line class="st0" x1="1200.5" y1="726" x2="0.5" y2="726"/>
<line class="st0" x1="1200.5" y1="738" x2="0.5" y2="738"/>
<line class="st0" x1="1200.5" y1="750" x2="0.5" y2="750"/>
<line class="st0" x1="1200.5" y1="762" x2="0.5" y2="762"/>
<line class="st0" x1="1200.5" y1="774" x2="0.5" y2="774"/>
<line class="st0" x1="1200.5" y1="786" x2="0.5" y2="786"/>
<line class="st0" x1="1200.5" y1="798" x2="0.5" y2="798"/>
<line class="st0" x1="1200.5" y1="810" x2="0.5" y2="810"/>
<line class="st0" x1="1200.5" y1="822" x2="0.5" y2="822"/>
<line class="st0" x1="1200.5" y1="834" x2="0.5" y2="834"/>
<line class="st0" x1="1200.5" y1="846" x2="0.5" y2="846"/>
<line class="st0" x1="1200.5" y1="858" x2="0.5" y2="858"/>
<line class="st0" x1="1200.5" y1="870" x2="0.5" y2="870"/>
<line class="st0" x1="1200.5" y1="882" x2="0.5" y2="882"/>
<line class="st0" x1="1200.5" y1="894" x2="0.5" y2="894"/>
<line class="st0" x1="1200.5" y1="906" x2="0.5" y2="906"/>
<line class="st0" x1="1200.5" y1="918" x2="0.5" y2="918"/>
<line class="st0" x1="1200.5" y1="930" x2="0.5" y2="930"/>
<line class="st0" x1="1200.5" y1="942" x2="0.5" y2="942"/>
<line class="st0" x1="1200.5" y1="954" x2="0.5" y2="954"/>
<line class="st0" x1="1200.5" y1="966" x2="0.5" y2="966"/>
<line class="st0" x1="1200.5" y1="978" x2="0.5" y2="978"/>
<line class="st0" x1="1200.5" y1="990" x2="0.5" y2="990"/>
<line class="st0" x1="1200.5" y1="1002" x2="0.5" y2="1002"/>
<line class="st0" x1="1200.5" y1="1014" x2="0.5" y2="1014"/>
<line class="st0" x1="1200.5" y1="1026" x2="0.5" y2="1026"/>
<line class="st0" x1="1200.5" y1="1038" x2="0.5" y2="1038"/>
<line class="st0" x1="1200.5" y1="1050" x2="0.5" y2="1050"/>
<line class="st0" x1="1200.5" y1="1062" x2="0.5" y2="1062"/>
<line class="st0" x1="1200.5" y1="1074" x2="0.5" y2="1074"/>
<line class="st0" x1="1200.5" y1="1086" x2="0.5" y2="1086"/>
<line class="st0" x1="1200.5" y1="1098" x2="0.5" y2="1098"/>
<line class="st0" x1="1200.5" y1="1110" x2="0.5" y2="1110"/>
<line class="st0" x1="1200.5" y1="1122" x2="0.5" y2="1122"/>
<line class="st0" x1="1200.5" y1="1134" x2="0.5" y2="1134"/>
<line class="st0" x1="1200.5" y1="1146" x2="0.5" y2="1146"/>
<line class="st0" x1="1200.5" y1="1158" x2="0.5" y2="1158"/>
<line class="st0" x1="1200.5" y1="1170" x2="0.5" y2="1170"/>
<line class="st0" x1="1200.5" y1="1182" x2="0.5" y2="1182"/>
<line class="st0" x1="1200.5" y1="1194" x2="0.5" y2="1194"/>
<line class="st0" x1="0.5" y1="0" x2="0.5" y2="1200"/>
<line class="st0" x1="12.5" y1="0" x2="12.5" y2="1200"/>
<line class="st0" x1="24.5" y1="0" x2="24.5" y2="1200"/>
<line class="st0" x1="36.5" y1="0" x2="36.5" y2="1200"/>
<line class="st0" x1="48.5" y1="0" x2="48.5" y2="1200"/>
<line class="st0" x1="60.5" y1="0" x2="60.5" y2="1200"/>
<line class="st0" x1="72.5" y1="0" x2="72.5" y2="1200"/>
<line class="st0" x1="84.5" y1="0" x2="84.5" y2="1200"/>
<line class="st0" x1="96.5" y1="0" x2="96.5" y2="1200"/>
<line class="st0" x1="108.5" y1="0" x2="108.5" y2="1200"/>
<line class="st0" x1="120.5" y1="0" x2="120.5" y2="1200"/>
<line class="st0" x1="132.5" y1="0" x2="132.5" y2="1200"/>
<line class="st0" x1="144.5" y1="0" x2="144.5" y2="1200"/>
<line class="st0" x1="156.5" y1="0" x2="156.5" y2="1200"/>
<line class="st0" x1="168.5" y1="0" x2="168.5" y2="1200"/>
<line class="st0" x1="180.5" y1="0" x2="180.5" y2="1200"/>
<line class="st0" x1="192.5" y1="0" x2="192.5" y2="1200"/>
<line class="st0" x1="204.5" y1="0" x2="204.5" y2="1200"/>
<line class="st0" x1="216.5" y1="0" x2="216.5" y2="1200"/>
<line class="st0" x1="228.5" y1="0" x2="228.5" y2="1200"/>
<line class="st0" x1="240.5" y1="0" x2="240.5" y2="1200"/>
<line class="st0" x1="252.5" y1="0" x2="252.5" y2="1200"/>
<line class="st0" x1="264.5" y1="0" x2="264.5" y2="1200"/>
<line class="st0" x1="276.5" y1="0" x2="276.5" y2="1200"/>
<line class="st0" x1="288.5" y1="0" x2="288.5" y2="1200"/>
<line class="st0" x1="300.5" y1="0" x2="300.5" y2="1200"/>
<line class="st0" x1="312.5" y1="0" x2="312.5" y2="1200"/>
<line class="st0" x1="324.5" y1="0" x2="324.5" y2="1200"/>
<line class="st0" x1="336.5" y1="0" x2="336.5" y2="1200"/>
<line class="st0" x1="348.5" y1="0" x2="348.5" y2="1200"/>
<line class="st0" x1="360.5" y1="0" x2="360.5" y2="1200"/>
<line class="st0" x1="372.5" y1="0" x2="372.5" y2="1200"/>
<line class="st0" x1="384.5" y1="0" x2="384.5" y2="1200"/>
<line class="st0" x1="396.5" y1="0" x2="396.5" y2="1200"/>
<line class="st0" x1="408.5" y1="0" x2="408.5" y2="1200"/>
<line class="st0" x1="420.5" y1="0" x2="420.5" y2="1200"/>
<line class="st0" x1="432.5" y1="0" x2="432.5" y2="1200"/>
<line class="st0" x1="444.5" y1="0" x2="444.5" y2="1200"/>
<line class="st0" x1="456.5" y1="0" x2="456.5" y2="1200"/>
<line class="st0" x1="468.5" y1="0" x2="468.5" y2="1200"/>
<line class="st0" x1="480.5" y1="0" x2="480.5" y2="1200"/>
<line class="st0" x1="492.5" y1="0" x2="492.5" y2="1200"/>
<line class="st0" x1="504.5" y1="0" x2="504.5" y2="1200"/>
<line class="st0" x1="516.5" y1="0" x2="516.5" y2="1200"/>
<line class="st0" x1="528.5" y1="0" x2="528.5" y2="1200"/>
<line class="st0" x1="540.5" y1="0" x2="540.5" y2="1200"/>
<line class="st0" x1="552.5" y1="0" x2="552.5" y2="1200"/>
<line class="st0" x1="564.5" y1="0" x2="564.5" y2="1200"/>
<line class="st0" x1="576.5" y1="0" x2="576.5" y2="1200"/>
<line class="st0" x1="588.5" y1="0" x2="588.5" y2="1200"/>
<line class="st0" x1="600.5" y1="0" x2="600.5" y2="1200"/>
<line class="st0" x1="612.5" y1="0" x2="612.5" y2="1200"/>
<line class="st0" x1="624.5" y1="0" x2="624.5" y2="1200"/>
<line class="st0" x1="636.5" y1="0" x2="636.5" y2="1200"/>
<line class="st0" x1="648.5" y1="0" x2="648.5" y2="1200"/>
<line class="st0" x1="660.5" y1="0" x2="660.5" y2="1200"/>
<line class="st0" x1="672.5" y1="0" x2="672.5" y2="1200"/>
<line class="st0" x1="684.5" y1="0" x2="684.5" y2="1200"/>
<line class="st0" x1="696.5" y1="0" x2="696.5" y2="1200"/>
<line class="st0" x1="708.5" y1="0" x2="708.5" y2="1200"/>
<line class="st0" x1="720.5" y1="0" x2="720.5" y2="1200"/>
<line class="st0" x1="732.5" y1="0" x2="732.5" y2="1200"/>
<line class="st0" x1="744.5" y1="0" x2="744.5" y2="1200"/>
<line class="st0" x1="756.5" y1="0" x2="756.5" y2="1200"/>
<line class="st0" x1="768.5" y1="0" x2="768.5" y2="1200"/>
<line class="st0" x1="780.5" y1="0" x2="780.5" y2="1200"/>
<line class="st0" x1="792.5" y1="0" x2="792.5" y2="1200"/>
<line class="st0" x1="804.5" y1="0" x2="804.5" y2="1200"/>
<line class="st0" x1="816.5" y1="0" x2="816.5" y2="1200"/>
<line class="st0" x1="828.5" y1="0" x2="828.5" y2="1200"/>
<line class="st0" x1="840.5" y1="0" x2="840.5" y2="1200"/>
<line class="st0" x1="852.5" y1="0" x2="852.5" y2="1200"/>
<line class="st0" x1="864.5" y1="0" x2="864.5" y2="1200"/>
<line class="st0" x1="876.5" y1="0" x2="876.5" y2="1200"/>
<line class="st0" x1="888.5" y1="0" x2="888.5" y2="1200"/>
<line class="st0" x1="900.5" y1="0" x2="900.5" y2="1200"/>
<line class="st0" x1="912.5" y1="0" x2="912.5" y2="1200"/>
<line class="st0" x1="924.5" y1="0" x2="924.5" y2="1200"/>
<line class="st0" x1="936.5" y1="0" x2="936.5" y2="1200"/>
<line class="st0" x1="948.5" y1="0" x2="948.5" y2="1200"/>
<line class="st0" x1="960.5" y1="0" x2="960.5" y2="1200"/>
<line class="st0" x1="972.5" y1="0" x2="972.5" y2="1200"/>
<line class="st0" x1="984.5" y1="0" x2="984.5" y2="1200"/>
<line class="st0" x1="996.5" y1="0" x2="996.5" y2="1200"/>
<line class="st0" x1="1008.5" y1="0" x2="1008.5" y2="1200"/>
<line class="st0" x1="1020.5" y1="0" x2="1020.5" y2="1200"/>
<line class="st0" x1="1032.5" y1="0" x2="1032.5" y2="1200"/>
<line class="st0" x1="1044.5" y1="0" x2="1044.5" y2="1200"/>
<line class="st0" x1="1056.5" y1="0" x2="1056.5" y2="1200"/>
<line class="st0" x1="1068.5" y1="0" x2="1068.5" y2="1200"/>
<line class="st0" x1="1080.5" y1="0" x2="1080.5" y2="1200"/>
<line class="st0" x1="1092.5" y1="0" x2="1092.5" y2="1200"/>
<line class="st0" x1="1104.5" y1="0" x2="1104.5" y2="1200"/>
<line class="st0" x1="1116.5" y1="0" x2="1116.5" y2="1200"/>
<line class="st0" x1="1128.5" y1="0" x2="1128.5" y2="1200"/>
<line class="st0" x1="1140.5" y1="0" x2="1140.5" y2="1200"/>
<line class="st0" x1="1152.5" y1="0" x2="1152.5" y2="1200"/>
<line class="st0" x1="1164.5" y1="0" x2="1164.5" y2="1200"/>
<line class="st0" x1="1176.5" y1="0" x2="1176.5" y2="1200"/>
<line class="st0" x1="1188.5" y1="0" x2="1188.5" y2="1200"/>
<line class="st0" x1="1200.5" y1="0" x2="1200.5" y2="1200"/>
</svg>
