<?xml version="1.0" encoding="utf-8"?>
<!-- Generator: Adobe Illustrator 21.1.0, SVG Export Plug-In . SVG Version: 6.00 Build 0)  -->
<svg version="1.1" id="Layer_1" xmlns="http://www.w3.org/2000/svg" xmlns:xlink="http://www.w3.org/1999/xlink" x="0px" y="0px"
	 viewBox="0 0 391.2 284.8" style="enable-background:new 0 0 391.2 284.8;" xml:space="preserve">
<style type="text/css">
	.st0{fill:url(#SVGID_1_);}
	.st1{fill:#231F20;}
</style>
<g>
	<radialGradient id="SVGID_1_" cx="102.3467" cy="142.9802" r="116.2986" gradientUnits="userSpaceOnUse">
		<stop  offset="2.453990e-02" style="stop-color:#F9EC31"/>
		<stop  offset="8.588960e-02" style="stop-color:#FAAF40"/>
		<stop  offset="0.1472" style="stop-color:#F6921E"/>
		<stop  offset="0.2086" style="stop-color:#F05A28"/>
		<stop  offset="0.2699" style="stop-color:#BE1E2D"/>
		<stop  offset="0.3313" style="stop-color:#EB008B"/>
		<stop  offset="0.3988" style="stop-color:#2E3191"/>
		<stop  offset="0.4663" style="stop-color:#00ADEE"/>
		<stop  offset="0.5337" style="stop-color:#00A551"/>
		<stop  offset="0.6012" style="stop-color:#EC1C24"/>
		<stop  offset="0.6626" style="stop-color:#EB008B"/>
		<stop  offset="0.7239" style="stop-color:#F6921E"/>
		<stop  offset="0.8098" style="stop-color:#2E3191"/>
	</radialGradient>
	<path class="st0" d="M32.9,143c61.9,2.4,62.1,2.1-23.5,50.5C95.8,146,97,145.5,53.1,174c45.8-28.3,46.6-27.4,27.6,31.4
		c22.8-55,26.2-52.9,114.6,73.3C109,150.3,106.9,146.9,122,164c-17.2-21-18.9-21-23.3-21c4.4,0,6.1,0,23.3-21
		c-15.1,17.1-13,13.8,73.3-114.7c-88.5,126.2-91.8,128.3-114.6,73.3c19,58.8,18.3,59.7-27.6,31.4c43.9,28.5,42.7,28-43.7-19.5
		C95,140.9,94.7,140.6,32.9,143z"/>
	<g>
		<path class="st1" d="M192.9,151.5c-0.7,1.6-1.6,2.9-2.7,4c-1.1,1.1-2.5,2-4,2.6c-1.5,0.6-3.3,1-5.2,1c-2.2,0-4.1-0.4-5.9-1.3
			c-1.7-0.9-3.2-2.1-4.4-3.5c-1.2-1.5-2.1-3.2-2.7-5.1c-0.6-1.9-0.9-3.9-0.9-6c0-1.7,0.3-3.5,0.8-5.4c0.5-1.9,1.3-3.7,2.4-5.3
			c1.1-1.6,2.6-3,4.4-4.1c1.8-1.1,4.1-1.6,6.8-1.6c1.8,0,3.4,0.3,4.8,0.8c1.4,0.6,2.7,1.3,3.7,2.2c1,0.9,1.9,1.9,2.5,3.1
			c0.6,1.1,1,2.3,1,3.5h0.9c0-1-0.3-2.1-0.9-3.3c-0.5-1.2-1.4-2.4-2.4-3.4c-1.1-1.1-2.4-2-4-2.7c-1.6-0.7-3.5-1.1-5.7-1.1
			c-2.8,0-5.1,0.5-7.1,1.6c-1.9,1.1-3.5,2.4-4.7,4.1c-1.2,1.7-2.1,3.5-2.7,5.6c-0.6,2.1-0.8,4.1-0.8,6c0,2.4,0.4,4.7,1.1,6.7
			c0.7,2.1,1.7,3.8,3,5.3c1.3,1.5,2.8,2.6,4.6,3.5c1.8,0.8,3.8,1.3,6,1.3c2.1,0,3.9-0.3,5.6-1c1.6-0.7,3.1-1.6,4.3-2.8
			c1.2-1.2,2.2-2.6,2.9-4.3c0.8-1.7,1.3-3.5,1.5-5.5h-0.9C194,148.3,193.6,150,192.9,151.5z"/>
		<path class="st1" d="M261.3,126.7l-12.8,31.6h-21v-15.6H247v-0.9h-19.5v-14.2h20.7v-0.9h-21.6v32.6h21.5h0.4h0.6l4.3-10.7H270
			l4.3,10.7h1l-12.9-32.6H261.3z M253.8,147.7l8-20h0.1l7.8,20H253.8z"/>
		<polygon class="st1" points="270.7,127.6 282.4,127.6 282.4,159.3 283.3,159.3 283.3,127.6 295,127.6 295,126.7 270.7,126.7 		"/>
		<polygon class="st1" points="297.6,142.8 317.1,142.8 317.1,141.9 297.6,141.9 297.6,127.6 318.3,127.6 318.3,126.7 296.7,126.7 
			296.7,159.3 318.5,159.3 318.5,158.4 297.6,158.4 		"/>
		<polygon class="st1" points="343.8,140.7 326.6,140.7 326.6,126.7 322.3,126.7 322.3,159.3 326.6,159.3 326.6,144.4 343.8,144.4 
			343.8,159.3 348.1,159.3 348.1,126.7 343.8,126.7 		"/>
		<polygon class="st1" points="368,139.9 381.7,126.7 376.1,126.7 359.6,143 359.6,126.7 355.2,126.7 355.2,159.3 359.6,159.3 
			359.6,147.9 365,142.8 376.8,159.3 382.2,159.3 		"/>
		<path class="st1" d="M222.3,135.1c0-4.9-3.9-8.8-8.8-8.8c0,0-1,0-2.1,0l-12.6,0v0.9v32h1v-15.4l13.6,0l8.5,15.4l1.1,0l-8.5-15.4
			C218.8,143.4,222.3,139.7,222.3,135.1z M199.7,143v-15.7h13.8c4.3,0,7.8,3.6,7.8,7.9s-3.5,7.8-7.8,7.8c0,0-2.6,0-7.1,0H199.7z"/>
	</g>
</g>
</svg>
