<?xml version="1.0" encoding="utf-8"?>
<!-- Generator: Adobe Illustrator 21.1.0, SVG Export Plug-In . SVG Version: 6.00 Build 0)  -->
<svg version="1.1" id="Layer_1" xmlns="http://www.w3.org/2000/svg" xmlns:xlink="http://www.w3.org/1999/xlink" x="0px" y="0px"
	 viewBox="0 0 313 97.9" style="enable-background:new 0 0 313 97.9;" xml:space="preserve">
<polygon points="6.9,0.4 6.9,13.5 12.8,13.5 12.8,0.4 17.1,0.4 17.1,30.8 12.8,30.8 12.8,17.4 6.9,17.4 6.9,30.8 2.6,30.8 2.6,0.4 
	"/>
<path d="M20.8,8.4c0-2.3,0.2-4.5,2.3-6.5c1.3-1.2,3.1-2,5.3-2c2.3,0,4,0.7,5.3,2c2.1,2,2.3,4.2,2.3,6.5v14.4c0,2.3-0.2,4.5-2.3,6.5
	c-1.3,1.2-3.1,2-5.3,2c-2.3,0-4-0.7-5.3-2c-2.1-2-2.3-4.2-2.3-6.5V8.4z M31.6,7.8c0-0.9-0.1-1.8-0.9-2.6c-0.5-0.5-1.3-0.9-2.3-0.9
	c-1.1,0-1.9,0.4-2.3,0.9c-0.8,0.8-0.9,1.7-0.9,2.6v15.7c0,0.9,0.1,1.8,0.9,2.6c0.5,0.5,1.3,0.9,2.3,0.9c1.1,0,1.9-0.4,2.3-0.9
	c0.8-0.8,0.9-1.7,0.9-2.6V7.8z"/>
<polygon points="44,0.4 51.2,19.5 51.2,0.4 55.5,0.4 55.5,30.8 51.2,30.8 44,11.7 44,30.8 39.6,30.8 39.6,0.4 "/>
<path d="M71,28.5c-0.7,1.1-1.4,1.7-2.1,2c-1.3,0.7-2.6,0.7-3.4,0.7c-1.6,0-3.4-0.4-4.8-2.2c-1.4-1.7-1.6-3.9-1.6-5.3V8.4
	c0-1.9,0.1-3.7,1.4-5.6C62.4,0.4,65.1,0,66.7,0c2.3,0,4.2,0.7,5.4,2c1.2,1.2,2.2,3.1,2.2,5.9v1.2H70V7.6c0-0.7,0-1.6-0.9-2.5
	c-0.5-0.5-1.2-0.9-2.3-0.9c-1.2,0-1.9,0.4-2.4,1.1c-0.8,1-0.8,2.1-0.8,3.2v14.2c0,0.9,0,2.2,0.7,3.1c0.5,0.7,1.4,1.1,2.4,1.1
	c0.9,0,2-0.5,2.5-1.2c0.8-1,0.8-2.5,0.8-3.6v-4.1h-3.7v-3.9h8v16.6h-2.2L71,28.5z"/>
<polygon points="91.1,0.4 91.1,15.1 98,0.4 102.5,0.4 96.4,12.9 103.6,30.8 98.9,30.8 93.7,17.2 91.1,21.9 91.1,30.8 86.7,30.8 
	86.7,0.4 "/>
<path d="M104.5,8.4c0-2.3,0.2-4.5,2.3-6.5c1.3-1.2,3.1-2,5.3-2c2.3,0,4,0.7,5.3,2c2.1,2,2.3,4.2,2.3,6.5v14.4c0,2.3-0.2,4.5-2.3,6.5
	c-1.3,1.2-3.1,2-5.3,2c-2.3,0-4-0.7-5.3-2c-2.1-2-2.3-4.2-2.3-6.5V8.4z M115.3,7.8c0-0.9-0.1-1.8-0.9-2.6c-0.5-0.5-1.3-0.9-2.3-0.9
	c-1.1,0-1.9,0.4-2.3,0.9c-0.8,0.8-0.9,1.7-0.9,2.6v15.7c0,0.9,0.1,1.8,0.9,2.6c0.5,0.5,1.3,0.9,2.3,0.9c1.1,0,1.9-0.4,2.3-0.9
	c0.8-0.8,0.9-1.7,0.9-2.6V7.8z"/>
<polygon points="127.7,0.4 134.9,19.5 134.9,0.4 139.2,0.4 139.2,30.8 134.9,30.8 127.7,11.7 127.7,30.8 123.3,30.8 123.3,0.4 "/>
<path d="M154.7,28.5c-0.7,1.1-1.4,1.7-2.1,2c-1.3,0.7-2.6,0.7-3.4,0.7c-1.6,0-3.4-0.4-4.8-2.2c-1.4-1.7-1.6-3.9-1.6-5.3V8.4
	c0-1.9,0.1-3.7,1.4-5.6c1.7-2.4,4.5-2.9,6.1-2.9c2.3,0,4.2,0.7,5.4,2c1.2,1.2,2.2,3.1,2.2,5.9v1.2h-4.3V7.6c0-0.7,0-1.6-0.9-2.5
	c-0.5-0.5-1.2-0.9-2.3-0.9c-1.2,0-1.9,0.4-2.4,1.1c-0.8,1-0.8,2.1-0.8,3.2v14.2c0,0.9,0,2.2,0.7,3.1c0.5,0.7,1.4,1.1,2.4,1.1
	c0.9,0,2-0.5,2.5-1.2c0.8-1,0.8-2.5,0.8-3.6v-4.1H150v-3.9h8v16.6h-2.2L154.7,28.5z"/>
<rect x="2.6" y="35.3" width="4.3" height="30.4"/>
<polygon points="15.1,35.3 22.3,54.4 22.3,35.3 26.7,35.3 26.7,65.7 22.3,65.7 15.1,46.6 15.1,65.7 10.7,65.7 10.7,35.3 "/>
<polygon points="43.9,35.3 43.9,39.4 38.5,39.4 38.5,65.7 34.1,65.7 34.1,39.4 28.8,39.4 28.8,35.3 "/>
<polygon points="46,35.3 58.8,35.3 58.8,39.4 50.3,39.4 50.3,48.4 57.8,48.4 57.8,52.3 50.3,52.3 50.3,61.6 59,61.6 59,65.7 
	46,65.7 "/>
<path d="M67.4,35.3c2.2,0,5.4-0.1,7.5,2.4c1,1.2,1.6,3,1.6,5.3v2.3c0,2-0.7,3.8-1.6,4.8c-0.6,0.7-1.5,1.3-2.3,1.6l4.8,14h-4.5
	l-4.2-13.1h-2.6v13.1h-4.3V35.3H67.4z M66.1,48.7h2.5c1,0,1.9-0.2,2.7-1c0.9-0.8,0.9-1.6,0.9-2.7v-2.2c0-1.2-0.4-2.2-1-2.8
	c-0.9-0.9-1.9-0.8-2.8-0.8h-2.3V48.7z"/>
<rect x="79.6" y="35.3" width="4.3" height="30.4"/>
<path d="M87.6,43.3c0-2.3,0.2-4.5,2.3-6.5c1.3-1.2,3.1-2,5.3-2c2.3,0,4,0.7,5.3,2c2.1,2,2.3,4.2,2.3,6.5v14.4c0,2.3-0.2,4.5-2.3,6.5
	c-1.3,1.2-3.1,2-5.3,2c-2.3,0-4-0.7-5.3-2c-2.1-2-2.3-4.2-2.3-6.5V43.3z M98.5,42.6c0-0.9-0.1-1.8-0.9-2.6c-0.5-0.5-1.3-0.9-2.3-0.9
	c-1.1,0-1.9,0.4-2.3,0.9c-0.8,0.8-0.9,1.7-0.9,2.6v15.7c0,0.9,0.1,1.8,0.9,2.6c0.5,0.5,1.3,0.9,2.3,0.9c1.1,0,1.9-0.4,2.3-0.9
	c0.8-0.8,0.9-1.7,0.9-2.6V42.6z"/>
<path d="M112.2,35.3c2.2,0,5.4-0.1,7.5,2.4c1,1.2,1.6,3,1.6,5.3v2.3c0,2-0.7,3.8-1.6,4.8c-0.7,0.7-1.5,1.3-2.3,1.6l4.8,14h-4.5
	l-4.2-13.1h-2.6v13.1h-4.3V35.3H112.2z M110.8,48.7h2.5c1,0,1.9-0.2,2.7-1c0.9-0.8,0.9-1.6,0.9-2.7v-2.2c0-1.2-0.4-2.2-1-2.8
	c-0.9-0.9-1.9-0.8-2.8-0.8h-2.3V48.7z"/>
<path d="M139,35.3c1.9,0,4.4,0.1,6.3,1.8c2.2,2.1,2.3,5.3,2.3,6.6v13.4c0,2.1-0.2,4.3-2,6.2c-2,2.1-4.4,2.4-6.1,2.4h-6.5V35.3H139z
	 M137.5,61.4h2c0.9,0,2-0.1,2.9-1c0.9-1,1-2.6,1-3.6V43.4c0-0.9-0.1-2-0.8-2.8c-0.8-1-1.7-1-2.8-1h-2.2V61.4z"/>
<polygon points="151.3,35.3 164.2,35.3 164.2,39.4 155.7,39.4 155.7,48.4 163.2,48.4 163.2,52.3 155.7,52.3 155.7,61.6 164.3,61.6 
	164.3,65.7 151.3,65.7 "/>
<path d="M177.1,42.9c0-0.6,0-1.9-0.7-2.8c-0.4-0.5-1-1-2.3-1c-0.6,0-1.4,0.1-2.1,0.8c-0.8,0.9-0.9,2.1-0.9,3.1
	c0,0.8,0.1,2.3,0.7,3.2c0.5,0.7,1.3,1,2,1.3l2.6,1c1.3,0.5,2.8,1,4,2.6c1.2,1.6,1.3,3.3,1.3,5.3v1c0,3.1-0.8,5.4-2.1,6.7
	c-1.2,1.2-3.1,2-5.6,2c-3.1,0-5.1-1.3-6.1-2.6c-1.4-1.8-1.4-4.7-1.4-5.1v-1h4.3v0.8c0,0.7,0,1.9,0.7,2.7c0.7,0.9,1.8,1,2.4,1
	c1.7,0,2.4-0.6,2.7-1.1c0.7-0.8,0.7-2.1,0.7-3v-1.1c0-1-0.1-2.3-0.7-3.1c-0.6-0.8-1.6-1.2-2.1-1.3l-3.2-1.1c-1.6-0.6-3.1-1.3-4-3.4
	c-0.7-1.4-0.7-2.9-0.7-4.4v-0.9c0-2.6,1-4.4,2.3-5.6c1.4-1.4,3.2-1.9,5.3-1.9c4.3,0,7.3,2.8,7.3,7.9v1h-4.3V42.9z"/>
<rect x="184.8" y="35.3" width="4.3" height="30.4"/>
<path d="M204.6,63.4c-0.7,1.1-1.4,1.7-2.1,2c-1.3,0.7-2.6,0.7-3.4,0.7c-1.6,0-3.4-0.4-4.8-2.2c-1.4-1.7-1.6-3.9-1.6-5.3V43.3
	c0-1.9,0.1-3.7,1.4-5.6c1.7-2.4,4.5-2.9,6.1-2.9c2.3,0,4.2,0.7,5.4,2c1.2,1.2,2.2,3.1,2.2,5.9V44h-4.3v-1.5c0-0.7,0-1.6-0.9-2.5
	c-0.5-0.5-1.2-0.9-2.3-0.9s-1.9,0.4-2.4,1.1c-0.8,1-0.8,2.1-0.8,3.2v14.2c0,0.9,0,2.2,0.7,3.1c0.5,0.7,1.4,1.1,2.4,1.1
	c0.9,0,2-0.5,2.5-1.2c0.8-1,0.8-2.5,0.8-3.6V53h-3.7v-3.9h8v16.6h-2.2L204.6,63.4z"/>
<polygon points="215.9,35.3 223.2,54.4 223.2,35.3 227.5,35.3 227.5,65.7 223.2,65.7 215.9,46.6 215.9,65.7 211.6,65.7 211.6,35.3 
	"/>
<polygon points="242.7,35.3 245.1,54.2 245.3,54.2 248.8,35.3 252,35.3 255.5,54.2 255.8,54.2 258.1,35.3 262.7,35.3 257.9,65.7 
	254,65.7 250.6,46.1 250.3,46.1 246.8,65.7 242.9,65.7 238.1,35.3 "/>
<polygon points="264.6,35.3 277.5,35.3 277.5,39.4 268.9,39.4 268.9,48.4 276.5,48.4 276.5,52.3 268.9,52.3 268.9,61.6 277.6,61.6 
	277.6,65.7 264.6,65.7 "/>
<polygon points="280.3,35.3 293.2,35.3 293.2,39.4 284.7,39.4 284.7,48.4 292.2,48.4 292.2,52.3 284.7,52.3 284.7,61.6 293.4,61.6 
	293.4,65.7 280.3,65.7 "/>
<polygon points="300.4,35.3 300.4,49.9 307.3,35.3 311.9,35.3 305.7,47.8 313,65.7 308.3,65.7 303.1,52.1 300.4,56.8 300.4,65.7 
	296.1,65.7 296.1,35.3 "/>
<g>
	<path d="M3.7,85.2C3,85.4,2.3,85.7,1.6,86L0,83.1c3.9-1.1,7-2.5,9.3-4.3H0.7v-2.7h11V74c-1.4,0-2.9,0.1-4.4,0.1
		c-1.5,0-2.9,0.1-4.4,0.1l-0.5-2.6c3.6,0,7.1-0.1,10.5-0.3c3.4-0.2,6.8-0.4,10.2-0.7l0.8,2.5c-1.4,0.1-2.9,0.2-4.4,0.4
		c-1.5,0.1-3.1,0.2-4.7,0.4v2.2h11v2.7h-8.7c2.6,2.2,5.8,3.6,9.3,4.3L24.9,86c-0.8-0.3-1.5-0.5-2.1-0.8v12.7h-3.1V97H6.8v0.8H3.7
		V85.2z M22.1,84.8c-3.1-1.4-5.5-3.1-7.2-5.2V84h-3.1v-4.1c-2,1.8-4.5,3.5-7.4,4.9H22.1z M6.8,89.6h12.9v-2.1H6.8V89.6z M6.8,94.3
		h12.9v-2.2H6.8V94.3z"/>
	<path d="M34.8,84.8c-1.1-1.6-2.4-3.1-3.9-4.6l2.2-2.2c0.8,0.8,1.6,1.5,2.3,2.3c0.7,0.8,1.3,1.5,1.9,2.3L34.8,84.8z M31.3,95.8
		c1.7-3,2.9-5.9,3.7-8.9l3,1.4c-0.8,3.2-2.1,6.3-3.8,9.5L31.3,95.8z M36,77.2c-0.7-0.7-1.4-1.4-2.1-2.1c-0.7-0.7-1.5-1.3-2.3-1.9
		l2.1-2.3c0.8,0.6,1.6,1.2,2.3,1.9c0.7,0.7,1.4,1.4,2.1,2.1L36,77.2z M44.5,97.4c-1.3,0-2.3-0.3-2.9-0.9c-0.6-0.6-0.9-1.6-0.9-2.8
		v-7.3c-0.4,0.2-0.8,0.5-1.3,0.7c-0.4,0.2-0.9,0.5-1.4,0.7l-1.9-2.6c2.4-1,4.2-2.2,5.3-3.5h-4V79h4.3v-2.7h-3.2v-2.7h3.2v-2.8h3v2.8
		h4.9v-2.8h3v2.8H56v2.7h-3.2V79h4.3v2.7h-3.9c0.9,1.3,2.5,2.6,4.8,3.7l-1.8,2.6c-1.1-0.6-2.1-1.2-3-2v6h-9.5v1.4
		c0,0.4,0.1,0.7,0.2,0.9c0.2,0.2,0.4,0.3,0.8,0.3h7.6c0.4,0,0.7-0.1,0.9-0.3c0.2-0.2,0.3-0.5,0.4-0.9c0.1-0.4,0.2-0.8,0.3-1.2
		c0.1-0.4,0.1-0.9,0.2-1.5l3,1.5c-0.1,0.5-0.2,1-0.3,1.4c-0.1,0.4-0.2,0.8-0.3,1.2c-0.3,0.9-0.7,1.6-1.3,2c-0.6,0.5-1.4,0.7-2.5,0.7
		H44.5z M51.5,84.2c-0.3-0.4-0.6-0.8-1-1.2c-0.3-0.4-0.6-0.9-0.9-1.3h-4.5c-0.5,1-1.2,1.8-2,2.6H51.5z M43.7,89.2h6.5v-2.2h-6.5
		V89.2z M44.9,79h4.9v-2.7h-4.9V79z"/>
	<path d="M73.8,92.3h-9v-2.8h9v-2.1l-7.9,0.5L65,85.4c0.9-0.5,1.8-1.1,2.8-1.8c1-0.8,2.1-1.7,3.2-2.7h-5.4v-2H63v-5.5h10.7
		c-0.3-0.6-0.7-1.3-1.4-2.1l3.2-0.8c0.3,0.4,0.6,0.9,1,1.4c0.3,0.5,0.6,1,0.9,1.6h10.4v5.5H85v2h-9.8c-1.7,1.5-3.3,2.8-4.9,4
		l9.2-0.5c-0.3-0.3-0.7-0.6-1.1-0.8c-0.4-0.3-0.8-0.6-1.3-0.9l2.7-1.5c1.2,0.9,2.4,1.8,3.4,2.7c1,0.9,2,1.7,2.9,2.6l-2.6,2
		c-0.4-0.4-0.9-1-1.5-1.5l-5.3,0.4v2.3h9v2.8h-9v2h11.3v2.8H62.6v-2.8h11.2V92.3z M66.1,78h18.5v-1.9H66.1V78z"/>
	<path d="M95,97.9V75.1h8.9c-0.4-1-1.2-1.9-2.5-2.8l2.7-1.8c1.7,1.2,2.8,2.7,3.3,4.6h10.5v18.6c0,2.7-1.3,4.1-4,4.1
		c-0.6,0-1.3,0-1.9,0c-0.6,0-1.3-0.1-1.9-0.1l-0.7-3.2c0.6,0,1.2,0.1,1.9,0.1c0.6,0,1.3,0,1.9,0c1,0,1.6-0.5,1.6-1.5v-3.6l-1.8,2.1
		c-2.7-2.2-4.8-5-6.3-8.5c-1.6,3.6-3.9,6.4-6.8,8.5l-1.8-2.1v8.3H95z M105,79.7c0-0.2-0.1-0.4-0.1-0.6c0-0.2-0.1-0.5-0.1-0.8h-6.7
		v10.4C101.3,86.5,103.6,83.5,105,79.7 M108.1,78.3c0.9,4.2,3.2,7.7,6.7,10.4V78.3H108.1z"/>
	<path d="M124.7,77v-2.9h4.1c-0.4-0.7-1.1-1.5-2.1-2.2l2.6-1.5c0.8,0.6,1.7,1.5,2.8,2.6l-1.9,1.2h4.4V77H124.7z M125.4,78.5h8.3v2.9
		h-8.3V78.5z M125.4,83h8.3v2.9h-8.3V83z M125.4,87.5h8.3v10.3h-2.9v-1.1h-2.6v1.1h-2.9V87.5z M128.3,93.9h2.6v-3.4h-2.6V93.9z
		 M148.5,83.1V86c-1,2.7-2.2,4.8-3.7,6.2c1,0.7,2.1,1.3,3.1,1.8c1,0.5,2,0.8,3.1,1l-1.3,3c-2.4-0.7-4.8-1.9-7-3.7
		c-1,0.8-2.2,1.6-3.4,2.2c-1.2,0.6-2.5,1.1-3.9,1.6l-1.3-3c2.5-0.6,4.6-1.6,6.4-2.8c-1.3-1.7-2.3-3.7-2.9-6.1h-1.6v-3.1H148.5z
		 M146.8,81.6c-1.9,0-2.8-1-2.8-2.9v-4h-3.4v0.8c0,3-1.3,5.4-3.8,7.2l-2.1-2.5c1.9-1.3,2.9-3,2.9-5.2v-3.4h9.5v5.7
		c0,0.8,0.3,1.2,0.9,1.2h2.6l-0.7,3.1H146.8z M140.6,86.1c0.6,1.8,1.3,3.2,2,4.1c1.2-1.3,2-2.6,2.7-4.1H140.6z"/>
	<path d="M155.8,77v-2.9h4.3c-0.5-0.7-1.3-1.5-2.2-2.2l2.8-1.5c0.4,0.3,0.9,0.7,1.4,1.2c0.5,0.4,1,0.9,1.5,1.4l-1.8,1.2h4.8V77
		H155.8z M156.6,78.5h9.2v2.9h-9.2V78.5z M156.6,83h9.2v2.9h-9.2V83z M156.6,87.5h9.2v10.3h-3v-1.1h-3.2v1.1h-3V87.5z M159.6,93.9
		h3.2v-3.4h-3.2V93.9z M172.4,80.4v-9.6h3.1v9.6h5.8v3h-5.8v14.4h-3.1V83.4h-5.8v-3H172.4z"/>
	<path d="M186.4,95.8c1.6-3,2.3-6.7,2.3-11.1V71.6h22.8v22c0,1.3-0.3,2.4-1,3.1c-0.7,0.7-1.7,1-3,1c-0.4,0-0.9,0-1.5,0
		c-0.6,0-1.2-0.1-1.9-0.1l-0.8-3.1c1,0.1,1.9,0.2,2.5,0.2c0.6,0,1.2,0,1.6,0c0.4,0,0.7-0.1,0.9-0.3c0.2-0.2,0.3-0.6,0.3-1.1V74.5
		h-16.8v9.7c0,5.9-1,10.5-2.9,13.9L186.4,95.8z M198.7,79.8H194v-2.9h4.7v-1.7h3v1.7h4.7v2.9h-4.7v1.6h5.9v2.9h-14.8v-2.9h5.9V79.8z
		 M206.4,93.8H194v-7.9h12.3V93.8z M197,90.9h6.4v-2.2H197V90.9z"/>
</g>
</svg>
