<?xml version="1.0" encoding="utf-8"?>
<!-- Generator: Adobe Illustrator 21.1.0, SVG Export Plug-In . SVG Version: 6.00 Build 0)  -->
<svg version="1.1" id="Layer_1" xmlns="http://www.w3.org/2000/svg" xmlns:xlink="http://www.w3.org/1999/xlink" x="0px" y="0px"
	 viewBox="0 0 596 509.9" style="enable-background:new 0 0 596 509.9;" xml:space="preserve">
<style type="text/css">
	.st0{clip-path:url(#SVGID_2_);fill:#CF0A2C;}
</style>
<g>
	<defs>
		<rect id="SVGID_1_" x="-124.4" y="-166" width="844.9" height="841.9"/>
	</defs>
	<clipPath id="SVGID_2_">
		<use xlink:href="#SVGID_1_"  style="overflow:visible;"/>
	</clipPath>
	<path class="st0" d="M45.5,447.6c-3.3,1-6.6,1.4-9.6,1.8v2.5l10.8,0v2.2H35.9l0,5.4h6.9v12.9h-2.3l0-1.6l-11.6,0v1.6h-2.2v-12
		c-0.9,0.5-2.2,1.1-3.7,1.6l-1.7-1.9c4-1.2,7.5-3.1,9.8-5.9H23v-2.2h10.7l0-2.2c-2.7,0.2-5.6,0.5-8.7,0.5l-1.6-2.2
		c7.2,0,15.1-0.6,20.4-2.1L45.5,447.6z M33.6,454.6c-1.2,1.8-3.6,3.8-5.3,4.8l5.3,0.1V454.6z M40.5,461.6l-11.6,0l0,2.2l11.5,0
		V461.6z M40.5,468.6l0-2.5H29l0,2.5L40.5,468.6z M37.8,454.1c3.7,1,7,2.9,10,5.6l-1.5,1.8c-2.5-2.5-6.3-4.5-10.1-5.5L37.8,454.1z"
		/>
	<path class="st0" d="M72.6,458.4c-1.1-1.7-2.6-3.1-4.6-3.8l1.4-1.7c1.6,0.5,3.8,1.9,4.9,3.9L72.6,458.4z M74.7,461.3
		c-0.6,3.9-1.9,7.7-4.2,10.9l-2.2-1.2c2.3-2.5,3.9-8.3,4.5-10.7l2.1,0.7c2.3-1.1,4.1-2.8,5-4.6h-4.7v-2.2h4.6v-3.1h-3.4V449h3.4
		v-3.4H82l0,3.4l5,0v-3.3h2.3l0,3.4h3.4v2.2h-3.4v3.1h4.6l0,2.2h-4.6c1.2,2,4.2,4.4,6.1,4.9l-1.6,1.8c-1.5-0.7-2.8-1.7-3.5-2.3
		l0,5.3h-9.1v1.8c0,0.4,0.1,1,0.8,1h7.9c1.2,0,1.1-1.1,1.3-2.8h2.2c-0.1,2.4-0.3,5-3,5h-9.1c-1.9,0-2.4-1.4-2.4-2.5V461
		c-0.7,0.5-1.6,1.3-2.8,1.9L74.7,461.3z M73.9,451.8c-1.7-2.4-3.3-3.1-4.8-3.6l1.7-1.5c1.8,0.7,3.5,1.8,4.7,3.6L73.9,451.8z
		 M82.2,456.5c-0.3,1-1.1,2-1.6,2.6h7.9c-0.5-0.6-1.2-1.7-1.8-2.6L82.2,456.5z M81.1,463.9h6.8l0-2.7h-6.8V463.9z M82,451.1l0,3.1
		l5,0l0-3.1H82z"/>
	<path class="st0" d="M116.6,470.9v-2.2h11.1V466l-8.8,0v-2.2l8.8,0v-2.3h2.3l0.1,2.3h8.7v2.2l-8.7,0v2.8l11,0v2.2L116.6,470.9z
		 M138.3,455v-4.8h-19.1v4.9h-2.3V448h10.8c-0.3-0.4-1.2-1-2.3-1.7l2.2-1.2c1.2,0.8,2.1,1.9,2.7,2.9h10.3l0,7H138.3z M137.3,461.9
		c-0.3-0.5-1.1-1.2-1.5-1.7c-5.3,0.6-11.8,1.1-15.2,1.7c-0.5-0.8-0.9-1.4-1.4-2.2c2.7-1.3,5-3.5,6.5-5.4h-4.9l0-2.2l16.3,0v2.2h-8.4
		c-1.5,2-3.4,3.9-4.9,4.8l9.8-0.8l-1.8-1.2l2-1.4c1.9,0.9,4.4,3.2,5.5,4.9L137.3,461.9z"/>
	<path class="st0" d="M178.9,469.4c1.5,0.1,2.5,0.3,3.6,0.2c0.4,0,0.6-0.5,0.6-1.1v-14.1l-7,0c1.1,5.5,3.6,8.6,6.8,11.1l-1.6,1.9
		c-3-2.5-5.5-5.6-6.6-9.1c-1.5,3.4-4,7-7.8,9.1l-1.4-1.9c4-2.4,7-6.3,8.1-11h-8.2l0,18h-2.4v-20.3h10.6c-0.1-1-0.2-2.1-0.1-3.2h-5.5
		l0-2.2l7.8,0c-0.1,2.2-0.1,3.9,0.1,5.4l9.6,0l0,16.7c0,0.8-0.2,1.8-0.8,2.4c-0.7,0.7-3.8,0.6-5,0.6L178.9,469.4z"/>
	<path class="st0" d="M211.4,445.4c1,0.9,2.8,2.3,3.5,4.1l-0.6,0.3l4.4,0.1v2.2l-11.4,0l0-2.2h5.2c-0.2-0.8-2.1-2.6-3-3.3
		L211.4,445.4z M217.6,455.8l-9,0v-2.2l9.1,0L217.6,455.8z M217.6,457.7l0,2.2h-9v-2.2H217.6z M209.1,472.1V462h8.2l0,8l-6,0v2.2
		H209.1z M215.1,464.1l-3.7,0l0,3.6h3.7V464.1z M216.5,470.4c2.6-0.7,5.1-2.2,7-3.7c-1.6-1.7-2.7-4.1-3.6-6.2h-1.2v-2l-1.6-1.9
		c3.3-1,3.7-2.1,3.4-9.4h9.2v6.6c0,0.4,0.2,0.6,0.7,0.6h3v2h-3.9c-1.3,0-2-1-2-2.2l0-4.9h-4.9c-0.1,3.5,0.7,6.9-3.6,9l12.3,0.1
		c-0.6,3.5-2.2,6.3-4.5,8.5c2.1,1.6,4.6,2.7,7.7,3.6l-2,1.9c-2.5-0.9-5.4-2.3-7.3-4c-2.3,1.7-4.6,3.2-7.3,4.1L216.5,470.4z
		 M222.3,460.4c0.7,1.5,1.4,3.2,2.9,4.8c0.9-1,2.4-2.5,3.2-4.8H222.3z"/>
	<path class="st0" d="M259.9,449.7c-0.6-1.3-1.4-2.2-2.7-3.4l1.9-1.3c1.5,1.2,2.7,2.6,3.3,4.4l-0.5,0.3l5,0.1v2.2h-12.4v-2.2H259.9z
		 M265.7,455.7l-9.8,0v-2.2h9.8V455.7z M255.9,457.5h9.7v2.2H256L255.9,457.5z M262.8,471.7l0-1.4h-3.9v1.4l-2.2,0v-9.8l8.4,0v9.8
		H262.8z M262.7,464l-3.9,0v4h3.9V464z M272,456.5l-6.2,0v-2.2h6.3l0-8.9l2.3,0l0,8.9h7v2.2l-7,0v15.8H272V456.5z"/>
	<path class="st0" d="M301.1,454.1V452h3.1l0-6.6l2.4,0l0,6.6h3.3v2.2l-3.3,0v18.3h-2.4v-18.3H301.1z M313.6,459l4.1,0
		c-0.3,3.5-0.5,7.1-1.4,10.2c-0.2,0.9-1.1,1.8-2,1.9c-0.8,0.1-1.6-0.1-2.5-0.2l-0.5-1.6c-0.6,0.9-1.7,2.1-2.7,2.9l-1.7-1.4
		c2.1-1.9,3.4-3.6,4-6.3c0.2-1.2,0.5-2.3,0.5-3.4l-3,0V459h3.1c0-0.5,0.1-1.2,0.1-2.1c-0.3,0.1-1,0.3-1.6,0.4l-1.2-2.1
		c3.3-0.5,6.6-1.8,7.4-4.6l-4.7,0v-2.2h5.2l0.2-3.1l2.3,0c0,1.3-0.1,2.3-0.2,3.1h6.5c-0.2,2.8-0.7,4.6-1.3,6.2
		c-0.3,0.8-1.1,1.4-1.8,1.6c-1.2,0.2-2.4-0.1-3.7-0.3c-0.1-0.9-0.2-1.5-0.4-2.4c1.3,0.2,2.2,0.6,3.3,0.6c0.2,0,0.3-0.1,0.4-0.2
		c0.5-1,0.8-2.1,1.1-3.2l-4.4,0c-0.4,2.2-2.8,5.2-6.6,6.1l1.8,0.1L313.6,459z M313.7,469.1c0.2-0.1,0.3-0.1,0.4-0.4
		c0.8-2.6,1.1-5.1,1.2-7.5h-1.9c-0.4,3.8-0.7,4.9-1.9,7.6L313.7,469.1z M322.8,456.7l0,2.3h4.2c0,1.9-0.1,3.5-0.3,5.1
		c-0.1,1.7-0.5,3.4-0.8,5c-0.2,1-0.9,2.1-2.1,2.4c-0.6,0.1-1.4,0-2.4-0.1l-0.9-2.3c1.3,0.1,2,0.5,2.8,0.3c0.2-0.1,0.4-0.5,0.5-1
		c0.6-2.4,0.8-5,1-7.4h-2c-0.3,5.2-1.7,8.4-5.3,11.1l-1.7-1.5c2.7-2.1,4.4-4.7,4.7-7.7c0.1-0.7,0.1-1.4,0.2-1.8l-2.3,0V459h2.4
		l0.2-2.4L322.8,456.7z"/>
	<path class="st0" d="M361.9,446.1c3.8,2.9,7.7,6,12.9,7l-1.4,2c-0.9-0.2-1.6-0.5-2-0.6l0,6.1h-21.7v-6.4c-0.4,0.2-1,0.5-1.9,0.8
		c-0.5-0.7-0.8-1.3-1.2-2c5.2-2,9.9-4.3,13.9-8.5l2.1,1.1L361.9,446.1z M365.4,452.2h-9.8l0-1.2c-1.9,1.2-3.6,2-4.6,2.4l18.2,0.1
		c-0.7-0.3-2.5-1.3-3.8-2.2V452.2z M351.4,472.1v-10.5l18.2,0l0,10.6h-2.4v-1.5h-13.6v1.5H351.4z M351.9,455.6v2.7h3.1
		c-0.3-0.4-1.1-1-2.1-1.9c0.5-0.3,1.1-0.6,1.6-0.8L351.9,455.6z M353.7,465l13.6,0v-1.3h-13.6V465z M367.3,467.1h-13.6v1.4h13.6
		L367.3,467.1z M354.9,455.6c1.2,0.9,2,1.8,2.6,2.7h1.8l0-2.7H354.9z M363.7,450.1c-0.8-0.6-2.3-1.8-3.1-2.6
		c-1.3,1.1-2.3,1.9-3.4,2.6L363.7,450.1z M361.6,455.6l0,2.8h2c0.8-0.8,1.4-1.6,2-2.8H361.6z M367.5,456.5c-0.5,0.9-1.1,1.9-1.1,1.9
		h2.6l0-2.8h-3L367.5,456.5z"/>
	<polygon class="st0" points="453.5,445.2 456,445.2 456,455.3 466.7,455.3 466.7,457.6 456,457.6 456,472.5 453.5,472.5 
		453.5,457.6 442.8,457.6 442.8,455.3 453.5,455.3 	"/>
	<path class="st0" d="M499.8,471.4c-2.6,0-4.6-0.7-6.4-2.6c-0.6,0.8-2.2,2.6-3.8,3.7l-1.6-1.8c3.3-1.9,5.2-5.7,5.9-8.6h-4.6v-1.9
		c1.9-1.8,3.4-3.9,4.3-5.7h-4.7v-2.2h7l0,2.1c-0.8,2.2-2.1,4.3-3.4,5.6l3.6,0c0,2.7-0.6,5.1-1.5,7c1.8,1.9,4.5,2.1,7.3,2.1l10,0
		l3.7-0.2c-0.5,1-0.7,1.6-1.1,2.4L499.8,471.4z M492.5,451.6c-0.5-2-1.6-3.5-3.3-4.9l2.1-0.9c1.6,1.3,2.6,2.9,3.3,4.8L492.5,451.6z
		 M497.4,446.7l16.2,0V466c0,1.2-0.6,1.8-1.4,2.2c-1.1,0.4-2.2,0.3-3.6,0.3l-0.7-2.2l2.9,0.2c0.6,0,0.6-0.3,0.6-0.7v-16.7h-11.5
		l0,10.1c0,3.4-0.3,6.5-2.5,9.3c-0.7-0.5-1.3-1-1.9-1.6c1.6-1.8,2.2-4.1,2.2-6.5V446.7z M510.3,453h-3.8v1.8h4.4v2.2h-4.4v1.5h-2.2
		v-1.5H500v-2.2h4.3V453h-3.8v-2.2h3.8v-1.7h2.2v1.7h3.8V453z M509.5,465.7h-8.2v-6.8h8.2V465.7z M507.2,461.1h-3.6v2.4h3.7
		L507.2,461.1z"/>
	<path class="st0" d="M543.9,446.1c-0.1,1.1-0.4,1.8-0.6,2.3h16.8v2.2l-9.2,0.1l0,3.8h7.6v2.2H551v4.9h10.4v2.2l-10.4,0v8.6h-2.4
		v-8.6h-11.7v-2.2l3.7,0v-7.1l8,0v-3.8h-6.2c-1,2-2.1,4.1-4.1,6l-1.9-1.5c2.7-2.4,4.4-5.7,5.5-10L543.9,446.1z M542.9,456.7v4.9h5.6
		l0-4.9H542.9z"/>
	<polygon class="st0" points="35,416.3 35,408.7 37.3,408.7 37.3,427.5 35,427.5 35,418.5 26,418.5 26,427.5 23.6,427.5 23.6,408.7 
		26,408.7 26,416.3 	"/>
	<path class="st0" d="M59.3,418.1c0,5.6-4.4,9.8-9.9,9.8c-5.5,0-9.9-4.2-9.9-9.8c0-5.4,4.5-9.8,9.9-9.8
		C54.8,408.3,59.3,412.7,59.3,418.1 M56.9,418.1c0-4.1-3.1-7.6-7.5-7.6c-4.4,0-7.5,3.5-7.5,7.6c0,4.3,3.4,7.6,7.5,7.6
		C53.5,425.7,56.9,422.4,56.9,418.1"/>
	<polygon class="st0" points="61.4,407.8 75.6,422.6 75.6,408.7 77.9,408.7 77.9,428.3 63.8,413.5 63.8,427.5 61.4,427.5 	"/>
	<path class="st0" d="M98.6,418v0.8c0,5.2-3.6,9.1-8.9,9.1c-5.3,0-9.5-4.5-9.5-9.8c0-5.4,4.4-9.9,9.8-9.9c2.9,0,5.8,1.3,7.7,3.7
		l-1.6,1.6c-1.4-1.9-3.6-3.1-5.9-3.1c-4.2,0-7.5,3.4-7.5,7.7c0,3.9,3.2,7.7,7.3,7.7c2.9,0,6.1-2.5,6.2-5.6h-4.9V418H98.6z"/>
	<polygon class="st0" points="118.7,408.7 121.8,408.7 113.3,417.2 122,427.5 118.8,427.5 111.7,418.8 110.7,419.7 110.7,427.5 
		108.4,427.5 108.4,408.7 110.7,408.7 110.7,416.9 	"/>
	<path class="st0" d="M141.9,418.1c0,5.6-4.4,9.8-9.9,9.8c-5.5,0-9.9-4.2-9.9-9.8c0-5.4,4.5-9.8,9.9-9.8
		C137.5,408.3,141.9,412.7,141.9,418.1 M139.6,418.1c0-4.1-3.1-7.6-7.5-7.6c-4.4,0-7.5,3.5-7.5,7.6c0,4.3,3.4,7.6,7.5,7.6
		C136.1,425.7,139.6,422.4,139.6,418.1"/>
	<polygon class="st0" points="144.1,407.8 158.3,422.6 158.3,408.7 160.6,408.7 160.6,428.3 146.5,413.5 146.5,427.5 144.1,427.5 	
		"/>
	<path class="st0" d="M181.3,418v0.8c0,5.2-3.7,9.1-8.9,9.1c-5.3,0-9.5-4.5-9.5-9.8c0-5.4,4.3-9.9,9.8-9.9c2.9,0,5.8,1.3,7.7,3.7
		l-1.7,1.6c-1.3-1.9-3.6-3.1-5.9-3.1c-4.2,0-7.5,3.4-7.5,7.7c0,3.9,3.2,7.7,7.3,7.7c2.9,0,6.1-2.5,6.2-5.6h-4.9V418H181.3z"/>
	<rect x="191" y="408.7" class="st0" width="2.4" height="18.8"/>
	<polygon class="st0" points="196.8,407.8 210.9,422.6 210.9,408.7 213.3,408.7 213.3,428.3 199.1,413.5 199.1,427.5 196.8,427.5 	
		"/>
	<polygon class="st0" points="221.8,427.5 219.5,427.5 219.5,410.8 215,410.8 215,408.7 226.3,408.7 226.3,410.8 221.8,410.8 	"/>
	<polygon class="st0" points="228.3,408.7 238.4,408.7 238.4,410.8 230.6,410.8 230.6,416.1 238.2,416.1 238.2,418.3 230.6,418.3 
		230.6,425.4 238.4,425.4 238.4,427.5 228.3,427.5 	"/>
	<path class="st0" d="M253.1,427.5h-2.9l-5.5-8h-1v8h-2.4v-18.8h2.9c1.7,0,3.5,0,5,0.9c1.6,0.9,2.5,2.7,2.5,4.5c0,2.7-1.8,5-4.5,5.3
		L253.1,427.5z M243.8,417.6h0.8c2.4,0,5-0.4,5-3.4c0-2.9-2.8-3.4-5.1-3.4h-0.6V417.6z"/>
	<rect x="255" y="408.7" class="st0" width="2.4" height="18.8"/>
	<path class="st0" d="M279.5,418.1c0,5.6-4.4,9.8-9.9,9.8c-5.5,0-9.9-4.2-9.9-9.8c0-5.4,4.5-9.8,9.9-9.8
		C275,408.3,279.5,412.7,279.5,418.1 M277.1,418.1c0-4.1-3.1-7.6-7.5-7.6c-4.4,0-7.5,3.5-7.5,7.6c0,4.3,3.4,7.6,7.5,7.6
		C273.7,425.7,277.1,422.4,277.1,418.1"/>
	<path class="st0" d="M293.6,427.5h-2.9l-5.5-8h-1v8h-2.4v-18.8h2.9c1.7,0,3.5,0,5,0.9c1.6,0.9,2.5,2.7,2.5,4.5c0,2.7-1.8,5-4.5,5.3
		L293.6,427.5z M284.2,417.6h0.8c2.4,0,5-0.4,5-3.4c0-2.9-2.8-3.4-5.1-3.4h-0.6V417.6z"/>
	<path class="st0" d="M302.7,408.7h3.9c5.8,0,10.6,3,10.6,9.3c0,6.4-4.7,9.5-10.7,9.5h-3.8V408.7z M305.1,425.4h0.8
		c4.8,0,9-1.8,9-7.3c0-5.5-4.1-7.3-9-7.3h-0.8V425.4z"/>
	<polygon class="st0" points="319.7,408.7 329.8,408.7 329.8,410.8 322,410.8 322,416.1 329.6,416.1 329.6,418.3 322,418.3 
		322,425.4 329.8,425.4 329.8,427.5 319.7,427.5 	"/>
	<path class="st0" d="M341.2,412.3c-0.7-1.2-1.6-1.8-3-1.8c-1.5,0-3.1,1-3.1,2.7c0,1.5,1.5,2.2,2.6,2.7l1.4,0.5
		c2.7,1.1,4.7,2.5,4.7,5.7c0,3.4-2.6,5.9-6,5.9c-3,0-5.4-2.2-5.8-5.3l2.4-0.5c0,2.1,1.6,3.6,3.6,3.6c2,0,3.5-1.7,3.5-3.7
		c0-2-1.6-2.9-3.2-3.6l-1.3-0.5c-2.1-0.9-4.1-2.2-4.1-4.8c0-3,2.7-4.9,5.6-4.9c2.1,0,3.8,1,4.9,2.9L341.2,412.3z"/>
	<rect x="346.3" y="408.7" class="st0" width="2.4" height="18.8"/>
	<path class="st0" d="M369.5,418v0.8c0,5.2-3.7,9.1-8.9,9.1c-5.3,0-9.5-4.5-9.5-9.8c0-5.4,4.4-9.9,9.8-9.9c2.9,0,5.8,1.3,7.7,3.7
		l-1.7,1.6c-1.3-1.9-3.6-3.1-5.9-3.1c-4.2,0-7.5,3.4-7.5,7.7c0,3.9,3.2,7.7,7.3,7.7c2.9,0,6.1-2.5,6.2-5.6H362V418H369.5z"/>
	<polygon class="st0" points="371.7,407.8 385.8,422.6 385.8,408.7 388.2,408.7 388.2,428.3 374,413.5 374,427.5 371.7,427.5 	"/>
	<path class="st0" d="M401.7,422.8l-2.2,4.7H397l9-19.6l9,19.6h-2.5l-2.2-4.7H401.7z M406,413l-3.4,7.6h6.7L406,413z"/>
	<path class="st0" d="M425.1,412.3c-0.7-1.2-1.6-1.8-3-1.8c-1.5,0-3.2,1-3.2,2.7c0,1.5,1.5,2.2,2.6,2.7l1.4,0.5
		c2.7,1.1,4.7,2.5,4.7,5.7c0,3.4-2.7,5.9-6,5.9c-3,0-5.4-2.2-5.8-5.3l2.4-0.5c0,2.1,1.6,3.6,3.6,3.6c2,0,3.5-1.7,3.5-3.7
		c0-2-1.6-2.9-3.2-3.6l-1.3-0.5c-2.1-0.9-4.1-2.2-4.1-4.8c0-3,2.7-4.9,5.5-4.9c2.1,0,3.8,1,4.9,2.9L425.1,412.3z"/>
	<path class="st0" d="M438.6,412.3c-0.7-1.2-1.6-1.8-3-1.8c-1.5,0-3.2,1-3.2,2.7c0,1.5,1.5,2.2,2.6,2.7l1.4,0.5
		c2.7,1.1,4.7,2.5,4.7,5.7c0,3.4-2.7,5.9-6,5.9c-3,0-5.4-2.2-5.8-5.3l2.4-0.5c0,2.1,1.6,3.6,3.6,3.6c2,0,3.5-1.7,3.5-3.7
		c0-2-1.6-2.9-3.2-3.6l-1.3-0.5c-2.1-0.9-4.1-2.2-4.1-4.8c0-3,2.7-4.9,5.5-4.9c2.1,0,3.8,1,4.9,2.9L438.6,412.3z"/>
	<path class="st0" d="M462.2,418.1c0,5.6-4.4,9.8-9.9,9.8c-5.5,0-9.9-4.2-9.9-9.8c0-5.4,4.5-9.8,9.9-9.8
		C457.8,408.3,462.2,412.7,462.2,418.1 M459.9,418.1c0-4.1-3.1-7.6-7.5-7.6c-4.4,0-7.5,3.5-7.5,7.6c0,4.3,3.4,7.6,7.5,7.6
		C456.4,425.7,459.9,422.4,459.9,418.1"/>
	<path class="st0" d="M478.4,412.3c-1.4-1.2-3.2-1.8-5-1.8c-4.2,0-7.4,3.5-7.4,7.7c0,4.1,3.2,7.6,7.4,7.6c1.8,0,3.6-0.7,5-1.9v2.8
		c-1.5,0.9-3.3,1.3-5,1.3c-5.4,0-9.8-4.3-9.8-9.7c0-5.6,4.5-9.9,10-9.9c1.6,0,3.3,0.4,4.8,1.3V412.3z"/>
	<rect x="481.2" y="408.7" class="st0" width="2.3" height="18.8"/>
	<path class="st0" d="M489.9,422.8l-2.2,4.7h-2.5l9-19.6l9,19.6h-2.5l-2.2-4.7H489.9z M494.2,413l-3.4,7.6h6.7L494.2,413z"/>
	<polygon class="st0" points="508,427.5 505.6,427.5 505.6,410.8 501.2,410.8 501.2,408.7 512.5,408.7 512.5,410.8 508,410.8 	"/>
	<rect x="514.4" y="408.7" class="st0" width="2.4" height="18.8"/>
	<path class="st0" d="M538.8,418.1c0,5.6-4.4,9.8-9.9,9.8c-5.5,0-9.9-4.2-9.9-9.8c0-5.4,4.5-9.8,9.9-9.8
		C534.3,408.3,538.8,412.7,538.8,418.1 M536.4,418.1c0-4.1-3.1-7.6-7.5-7.6c-4.4,0-7.5,3.5-7.5,7.6c0,4.3,3.4,7.6,7.5,7.6
		C533,425.7,536.4,422.4,536.4,418.1"/>
	<polygon class="st0" points="541,407.8 555.1,422.6 555.1,408.7 557.5,408.7 557.5,428.3 543.3,413.5 543.3,427.5 541,427.5 	"/>
	<path class="st0" d="M299.8,278h3.4l13.1,30.5H313l-4.4-10.3h-14.2l-4.5,10.3h-3.2L299.8,278z M295.5,295.5h11.8l-5.9-14
		L295.5,295.5z"/>
	<polygon class="st0" points="319.7,278 323.8,278 340.8,303.4 340.9,303.4 340.9,278 344,278 344,308.6 340.9,308.6 322.8,281.7 
		322.7,281.7 322.7,308.6 319.7,308.6 	"/>
	<polygon class="st0" points="350,278 354.1,278 371.2,303.4 371.3,303.4 371.3,278 374.3,278 374.3,308.6 371.3,308.6 353.1,281.7 
		353.1,281.7 353.1,308.6 350,308.6 	"/>
	<rect x="380.4" y="278" class="st0" width="3.1" height="30.5"/>
	<polygon class="st0" points="386.7,278 390.1,278 400.9,304.8 411.7,278 415,278 402.3,308.6 399.3,308.6 	"/>
	<polygon class="st0" points="418,278 434.7,278 434.7,280.8 421.1,280.8 421.1,291.8 434.3,291.8 434.3,294.5 421.1,294.5 
		421.1,305.8 434.7,305.8 434.7,308.6 418,308.6 	"/>
	<path class="st0" d="M439.9,278h7.8c4.1,0,6.1,0.5,7.5,1.2c3.4,1.6,5.4,5,5.4,8.7c0,4.4-3.2,8.9-9.1,9.3l8.6,11.4h-3.8L446,294.7
		c3.9,0,5.2,0,6.6-0.5c3.3-0.9,5-3.8,5-6.5c0-2.4-1.4-4.9-3.3-5.9c-1.8-0.9-3.4-1.2-5.9-1.2H443v27.8h-3.1V278z"/>
	<path class="st0" d="M465.9,300c0.2,3.8,2.6,6.3,6.4,6.3c3.2,0,6.1-2.5,6.1-6.1c0-4.7-4.7-5.9-6.8-6.5c-2.8-0.8-7.9-2-7.9-8
		c0-4.7,3.8-8.2,8.6-8.2c5,0,8.5,3.8,8.5,8.3h-3.1c0-3.1-2.5-5.5-5.4-5.5c-3.5,0-5.5,2.7-5.5,5.3c0,3.7,3.3,4.6,7.3,5.7
		c7.5,2,7.5,7.9,7.5,8.8c0,4.7-3.8,9-9.2,9c-4,0-9.3-2.4-9.4-9.1H465.9z"/>
	<path class="st0" d="M495.8,278h3.4l13.1,30.5H509l-4.4-10.3h-14.2l-4.5,10.3h-3.2L495.8,278z M491.5,295.5h11.8l-5.9-14
		L491.5,295.5z"/>
	<path class="st0" d="M515.5,278h7.8c4.1,0,6.1,0.5,7.5,1.2c3.4,1.6,5.4,5,5.4,8.7c0,4.4-3.2,8.9-9.1,9.3l8.6,11.4h-3.8l-10.4-13.8
		c3.9,0,5.2,0,6.6-0.5c3.3-0.9,5-3.8,5-6.5c0-2.4-1.4-4.9-3.3-5.9c-1.8-0.9-3.4-1.2-5.9-1.2h-5.3v27.8h-3.1V278z"/>
	<polygon class="st0" points="547.7,298.4 537.1,278 540.5,278 549.2,295.2 558.1,278 561.5,278 550.7,298.4 550.7,308.6 
		547.7,308.6 	"/>
	<path class="st0" d="M396.1,468.1h24.6v1.9h-24.6V468.1z M397.7,448.8h21.4v1.9h-21.4V448.8z M399.5,458.2h17.4v1.9h-17.4V458.2z"
		/>
	<path class="st0" d="M43.2,137.1h-5.7c0-6.6,0.8-12.7,2.4-18.1c2.4-8,5.2-19.1,8.4-33.2H220l-83.3,98.1
		c51.1,12.7,76.6,45.7,76.6,99c0,31.8-10.5,57-31.4,75.7c-20.7,18.9-44.7,28.4-71.8,28.4c-19.9,0-38.2-6-54.9-18.1
		C39,356.9,28.5,338.3,23.9,313h8.8c6.6,18.3,17.3,31.8,32,40.4c14.7,8.9,29.7,13.3,45,13.3c21.9,0,40.5-6.9,55.8-20.8
		c15.3-13.9,22.9-34.5,22.9-61.9c0-27.2-7.4-48.4-22.3-63.7c-15.3-14.9-33.3-22.3-54-22.3c-4,0-9.1,0.3-15.1,0.9l79.7-93.8h-74.5
		c-17.3,0-30.2,2-38.6,6C55.2,115.1,48.4,123.8,43.2,137.1 M54.4,45.9h199.8l-17.5,20.2H51.4L54.4,45.9z M202.8,364.6
		c9.1-6.6,16.8-18.5,23.2-35.6c6-16.5,9.1-31.9,9.1-46.2c0-29.4-9.5-56.2-28.4-80.6c34.8,19.1,52.2,46.6,52.2,82.4
		c0,21.7-5.7,39.5-17.2,53.4C230.5,351.7,217.5,360.6,202.8,364.6"/>
	<path class="st0" d="M332.3,63.1c-13.5,20.3-20.2,50-20.2,89c0,37,7,64.1,21.1,81.2c-31-19.3-46.5-47.3-46.5-83.9
		C286.7,110,301.9,81.2,332.3,63.1 M331.7,147c0-34.6,8.4-62.9,25.1-84.8c16.7-21.7,39.3-32.6,67.9-32.6c24.9,0,46.3,9.4,64,28.1
		c17.7,18.5,26.6,48.7,26.6,90.5c0,39.2-8.4,68.4-25.3,87.5c-16.9,19.3-38.8,29-65.8,29c-21.1,0-38.8-5.4-53.1-16.3
		c-14.5-10.7-24.5-24.1-30.2-40.4C334.7,191.9,331.7,171.6,331.7,147 M357,155.5c0,32,6.4,55,19.3,69.1
		c13.1,14.3,28.9,21.4,47.4,21.4c18.7,0,34.5-7.3,47.4-22c12.9-14.3,19.3-39.5,19.3-75.7c0-65.6-22.3-98.4-67-98.4
		C379.2,49.9,357,85.1,357,155.5 M515.2,232.4c13.9-19.9,20.8-48.6,20.8-86c0-34.2-6.9-62.5-20.8-84.8
		c30.8,21.3,46.2,49.6,46.2,84.8C561.3,183.4,545.9,212.1,515.2,232.4"/>
	<path class="st0" d="M561.3,387.2L522.5,320l-25.3,43.9c1-3.2,1.6-6.7,1.6-10.3c0-18.6-15-33.6-33.6-33.6h-32v67.2h32
		c9.9,0,18.8-4.3,24.9-11.1l-6.4,11.1H561.3z M395,387.2h31.9V320H395V387.2z"/>
	<rect x="336.7" y="320" class="st0" width="3.2" height="67.2"/>
	<rect x="296.6" y="352.1" class="st0" width="33.8" height="3.2"/>
	<rect x="287.1" y="320" class="st0" width="3.2" height="67.2"/>
	<path class="st0" d="M388.7,320h-4.6l-37.9,33.7l41,33.5h4.6c-8-6.7-41-33.6-41-33.6L388.7,320z"/>
	<polygon class="st0" points="533.7,38.7 529.6,38.7 529.6,36.5 533.7,36.5 533.7,29.6 536.2,29.6 536.2,36.5 540.9,36.5 
		540.9,38.7 536.2,38.7 536.2,56 533.7,56 	"/>
	<path class="st0" d="M543.2,29.6h2.5V39h0.1c0.7-1.2,2.7-3,6-3c2.4,0,4.4,0.6,6.2,2.4c1.5,1.4,2.4,3.7,2.4,6.9V56h-2.5V45.3
		c0-2.5-0.8-4.3-1.8-5.3c-1.4-1.3-3.1-1.7-4.2-1.7c-1.1,0-2.9,0.4-4.2,1.7c-1.1,1-1.8,2.8-1.8,5.3V56h-2.5V29.6z"/>
</g>
</svg>
