<?xml version="1.0" encoding="utf-8"?>
<!-- Generator: Adobe Illustrator 21.1.0, SVG Export Plug-In . SVG Version: 6.00 Build 0)  -->
<svg version="1.1" id="Layer_1" xmlns="http://www.w3.org/2000/svg" xmlns:xlink="http://www.w3.org/1999/xlink" x="0px" y="0px"
	 viewBox="0 0 92 86.2" style="enable-background:new 0 0 92 86.2;" xml:space="preserve">
<style type="text/css">
	.st0{fill:#FFFFFF;}
</style>
<g>
	<path class="st0" d="M79.2,27.7H32.5c-4,0-7.2,3.3-7.2,7.2v35.9c0,4,3.3,7.2,7.2,7.2h46.7c4,0,7.2-3.3,7.2-7.2V35
		C86.4,31,83.2,27.7,79.2,27.7z M81.9,70.9c0,1.5-1.2,2.8-2.8,2.8H32.5c-1.5,0-2.8-1.2-2.8-2.8V35c0-1.5,1.2-2.8,2.8-2.8h46.7
		c1.5,0,2.8,1.2,2.8,2.8L81.9,70.9L81.9,70.9z"/>
	<path class="st0" d="M10.1,51.2V15.3c0-1.5,1.2-2.8,2.8-2.8h46.7c1.5,0,2.8,1.2,2.8,2.8v6.6h4.5v-6.6c0-4-3.3-7.2-7.2-7.2H12.8
		c-4,0-7.2,3.3-7.2,7.2v35.9c0,4,3.3,7.2,7.2,7.2h5.1v-4.5h-5.1C11.3,54,10.1,52.7,10.1,51.2z"/>
</g>
</svg>
